<svg width="882" height="479" viewBox="0 0 882 479" fill="none" xmlns="http://www.w3.org/2000/svg">
<path fill-rule="evenodd" clip-rule="evenodd" d="M715.621 106.469C715.378 104.981 714.728 103.735 713.858 102.822C712.017 100.887 707.998 100.551 705.641 101.306C697.74 103.84 697.182 106.808 692.824 113.644C692.078 114.815 691.934 115.148 691.189 116.31C690.972 116.65 690.605 117.176 690.343 117.608C689.168 119.547 689.403 120.171 687.518 121.155C685.589 122.161 683.544 121.878 680.593 122.038C678.61 122.145 667.495 124.821 667.78 121.964C668.04 119.358 668.367 120.701 668.888 117.881C663.033 117.297 663.765 118.153 660.36 120.694C656.948 123.24 652.706 124.387 648.972 126.235L640.644 130.068C638.119 131.121 638.575 131.083 636.602 132.132C636.982 135.032 636.972 135.451 636.606 139.121L640.231 142.521C641.901 144.054 642.609 144.217 643.624 146.111C642.289 147.724 640.078 148.905 639.213 150.062C637.267 152.667 639.74 152.538 637.602 153.518C634.832 154.789 631.35 152.746 629.018 154.718C627.981 155.594 626.563 158.966 626.062 160.432C621.799 160.007 619.55 159.155 616.407 158.77C616.026 163.699 618.961 168.32 618.568 172.264C618.238 175.565 615.322 173.37 612.878 172.478C606.567 170.174 599.415 166.932 595.851 160.913C597.701 158.861 597.798 160.526 598.906 158.423C596.145 156.596 596 156.118 593.957 153.56C592.103 151.237 591.723 150.064 588.622 149.011C581.725 152.68 586.163 150.762 578.579 150.767C572.698 150.772 576.014 155.182 576.668 158.235C577.04 159.971 577.196 161.127 575.109 161.995L560.296 165.753C555.911 165.316 556.228 163.116 555.223 160.355C552.584 160.697 545.359 161.617 543.655 163.349L543.018 164.126C541.415 166.278 540.302 171.378 536.75 162.706C535.152 163.556 534.549 164.085 532.376 164.366L532.598 173.432C532.999 177.861 534.426 177.145 536.616 179.977C537.814 181.526 544.215 193.338 544.061 194.883C543.885 196.648 539.647 199.931 538.331 201.102C535.821 203.334 535.631 206.588 534.604 210.534C532.048 220.353 530.927 212.117 524.948 217.401C523.346 218.817 523.118 218.721 521.852 220.621C525.259 226.974 526.164 223.262 526.511 232.077C526.584 233.927 527.159 236.597 527.484 238.962C527.679 240.38 527.708 241.512 527.709 242.005C527.731 246.665 527.72 246.963 524.439 250.929C527.663 256.941 525.176 254.786 526.262 259.571C527.016 262.898 530.664 265.862 530.352 268.99C530.049 272.028 527.795 273.523 527.37 277.778C527.079 280.695 530.291 280.241 533.388 280.498C536.409 280.749 539.426 281.076 542.443 281.377C543.564 284.114 544.46 285.932 542.447 288.366C546.023 289.025 547.05 290.226 548.314 293.117L550.296 297.857C551.006 300.526 552.748 301.776 554.957 303.59L552.99 308.254L555.672 313.177C557.461 316.482 557.892 315.059 560.66 316.738C559.404 329.323 553.076 335.709 559.631 341.095C562.449 339.596 570.361 333.08 573.726 333.416C577.085 333.751 573.735 335.141 577.616 336.599C580.425 333.205 579.355 327.148 588.023 316.672C591.982 317.067 595.646 316.163 597.557 317.752C599.23 319.141 600.589 321.956 602.75 323.731C613.527 322.337 607.477 319.105 613.929 328.598L618.553 335.635C620.718 340.178 619.96 343.496 623.906 346.525C625.243 347.55 626.338 348.094 626.795 349.89C629.861 349.941 631.128 347.829 633.975 346.953C637.281 345.935 644.416 348.611 648.773 347.926C650.636 347.632 652.123 346.959 653.575 346.715C657.455 346.064 659.503 350.357 661.798 350.585C664.872 350.892 661.618 350.631 663.348 350.145L668.325 348.441C674.935 349.101 670.228 350.897 676.601 347.655C685.647 343.05 688.14 345.068 691.531 340.211C693.354 337.601 691.588 338.551 694.626 337.77C695.928 337.435 698.851 337.77 699.015 336.127C699.421 332.052 697.496 330.26 697.829 326.925C697.962 325.585 698.998 324.767 699.632 322.912L692.476 317.305C692.813 315.48 693.651 313.163 694.417 311.909C692.118 310.02 689.984 309.969 690.039 306.58C694.473 305.979 692.037 300.616 693.016 290.804C695.652 290.463 696.18 289.819 698.481 288.919C700.207 288.244 702.575 287.217 703.917 286.999L704.608 280.079C706.229 279.87 710.451 279.169 711.761 278.696C711.898 277.33 711.872 276.109 711.942 274.917C712.036 273.327 712.226 273.492 712.521 271.085C715.256 271.297 714.131 271.437 716.062 270.739C715.413 266.773 711.352 263.6 709.59 260.127C708.667 258.308 708.544 255.23 708.393 252.762C708.22 249.931 709.963 248.944 711.396 247.213C710.943 243.754 707.941 239.661 708.195 237.11C708.329 235.77 709.365 234.952 709.999 233.096C717.266 233.821 722.293 236.03 725.206 228.324C730.444 228.846 730.983 230.744 730.403 226.138C729.904 222.172 730.734 220.062 728.469 217.399C726.928 215.587 724.851 214.33 723.698 211.755C721.825 207.571 721.362 203.579 721.786 199.33C722.023 196.952 727.339 195.94 729.215 195.179C726.757 190.598 724.106 189.855 729.668 186.418C732.911 184.415 733.946 183.771 737.334 184.109C737.957 177.868 740.448 180.184 742.468 174.837C740.251 174.004 739.715 172.698 738.69 170.926C736.905 167.84 737.482 168.574 737.948 163.904C734.31 160.915 734.071 160.505 736.555 156.776C735.156 155.628 734.669 154.99 732.595 154.285L732.871 151.517C735.345 151.197 737.135 150.329 739.094 149.003L741.305 147.038C743.447 144.624 742.44 144.784 746.132 145.153C747.364 140.245 748.394 140.533 745.046 136.504C743.567 134.723 743.519 135.296 743.139 132.974C740.298 132.754 736.8 133.645 734.062 132.113L732.197 130.456C729.032 126.692 729.969 124.363 730.422 119.826C730.616 117.884 733.322 117.177 734.706 114.175C735.447 112.568 735.315 111.995 736.098 110.438C737.198 108.256 737.043 109.794 737.985 107.302C736.469 106.056 734.634 104.137 732.999 103.104C731.187 101.959 728.133 100.516 726.105 99.8275C725.512 103.033 724.866 103.417 722.384 104.611C719.646 105.928 718.724 106.709 715.621 106.469Z" fill="#D0D0B9"/>
<path fill-rule="evenodd" clip-rule="evenodd" d="M489.166 133.501C489.053 140.428 487.231 138.417 477.086 142.08C476.379 140.354 475.757 139.098 475.485 137.028C469.599 139.419 468.895 141.679 466.048 142.615C456.808 145.651 453.075 146.325 447.112 153.717C442.345 159.628 445.216 157.222 446.124 164.15C439.091 166.69 429.93 163.442 424.296 164.735C421.601 165.353 422.395 164.838 421.4 168.227C420.775 170.356 420.171 172.358 420.339 173.794C420.765 177.455 424.889 180.12 424.674 182.277L423.983 189.197C420.367 188.836 418.063 188.082 417.452 184.353L416.063 184.214C414.354 188.736 408.9 187.529 413.211 192.895C415.931 196.281 414.144 201.475 411.249 203.963C409.637 205.349 406.493 206.905 405.242 208.293C406.474 211.3 407.982 213.028 409.414 215.697C411.693 214.772 411.729 214.531 415.108 214.868C415.066 217.447 415.573 218.189 416.144 220.381C416.529 221.855 417.356 225.223 417.214 226.185C415.924 234.947 406.982 231.278 412.704 246.067C414.1 249.676 413.986 254.227 413.467 259.43C416.14 261.052 417.151 260.989 417.049 264.067C417.044 264.206 417.017 264.421 417.012 264.557L416.559 268.493C416.501 269.309 416.57 270.513 416.46 271.608C422.8 273.762 423.116 275.197 422.508 281.296C422.039 285.993 419.576 287.298 417.443 289.876C418.314 296.527 419.315 296.105 414.693 300.498C411.154 303.863 407.56 306.248 412.822 310.17C414.938 311.748 416.578 312.301 417.804 314.371C415.829 316.76 409.743 319.678 406.626 320.944C407 323.797 408.365 324.609 408.088 327.379C407.818 330.087 407.032 327.351 406.285 331.392C419.267 335.802 417.449 328.964 424.209 341.566C429.102 342.054 430.452 342.266 429.976 347.033C429.751 349.292 417.975 353.308 426.517 356.846C428.623 357.718 429.275 358.091 431.649 358.381C431.126 363.627 432.183 362.722 428.747 365.713C424.34 369.551 428.705 368.665 424.505 373.742C425.999 376.527 428.754 380.365 428.469 383.222C428.122 386.697 426.083 387.04 424.374 389.104C425.403 390.55 426.401 391.473 426.739 393.533C435.296 394.386 437.676 389.32 438.82 397.665C439.713 404.182 447.652 412.917 441.981 418.29C439.663 420.486 440.803 419.051 439.321 422.037C437.933 424.834 435.07 426.002 433.078 428.407C435.716 433.324 446.868 434.691 451.608 430.836C452.986 429.716 453.809 429.054 454.904 427.81C456.229 426.303 456.602 425.255 457.861 423.649C460.142 420.738 460.458 422.208 462.148 418.779C463.081 416.886 462.023 417.795 463.756 416.856C464.992 416.185 472.364 415.023 474.394 415.057C473.708 410.872 469.439 408.472 469.666 406.2C469.885 404.004 469.845 405.299 471.18 404.162C471.288 404.071 471.458 403.95 471.574 403.866C471.691 403.781 471.871 403.679 471.994 403.601C473.155 402.87 474.292 402.635 475.039 401.875L476.621 398.368C479.65 388.355 474.245 389.427 480.88 383.376C482.072 382.289 482.803 381.771 484.097 381.083C482.705 370.456 480.268 372.648 486.588 363.162C488.809 363.383 491.281 363.917 493.138 363.375C495.942 362.555 495.071 361.429 497.42 360.049C499.696 360.905 499.443 361.437 500.528 363.236C500.853 363.777 501.526 364.865 501.889 365.303C502.819 366.427 502.196 366.23 503.744 366.969C503.931 365.094 503.864 363.386 504.629 361.839L507.322 358.133C508.615 356.331 509.067 356.254 510.345 354.827C511.379 353.672 510.627 354.545 511.562 353.204C514.654 348.765 511.188 349.548 513.037 344.136C517.96 345.808 516.821 343.369 522.223 347.451C524.556 349.213 524.823 349.481 527.834 350.504L530.608 343.792C528.047 342.829 528.992 342.263 525.954 341.231C526.77 336.811 528.939 338.147 529.629 332.513C521.916 329.892 523.293 326.821 524.562 323.307C525.29 321.292 524.993 320.002 525.622 318.324C526.722 315.39 529.8 315.875 530.867 312.291L533.294 302.828C527.995 298.475 530.18 298.817 530.826 292.071L531.775 287.787C532.99 284.959 536.004 285.335 538.074 283.038C525.543 281.789 524.605 284.457 525.568 274.802C525.844 272.033 527.343 271.506 528.273 268.783C527.031 266.468 525.068 263.88 524.418 261.122C523.337 256.545 525.482 254.241 521.458 252.729C522.017 247.125 523.993 248.598 525.313 245.752C525.837 244.62 525.103 239.026 524.985 236.505L522.491 225.19C522.41 225.07 522.296 224.899 522.214 224.78C522.131 224.662 522.024 224.485 521.939 224.369C520.687 222.651 520.43 222.402 518.246 221.66C518.753 218.915 519.186 219.481 520.948 217.965C521.613 217.393 521.768 217.232 522.429 216.663C526.229 213.396 526.997 212.749 531.714 213.219C532.083 209.52 533.215 203.77 534.882 201.554L541.982 194.676C539.293 190.892 537.574 185.801 534.966 181.964C532.834 178.829 531.81 180.482 530.885 176.393C530.302 173.814 529.673 170.414 529.952 167.619C523.771 168.62 524.978 175.926 512.385 174.952C512.856 170.235 514.439 169.404 517.096 165.941L527.043 152.438C533.215 144.231 532.077 146.328 533.059 136.481C533.398 133.088 527.475 127.538 525.554 127.346C510.529 125.848 518.395 128.065 511.911 130.247C508.565 131.373 509.363 128.115 508.954 124.992C505.542 124.652 503.892 125.794 501.314 124.23C502.09 120.034 503.874 122.351 505.477 117.657C501.004 116.137 500.092 118.103 497.503 121.144C489.968 129.995 498.755 134.243 489.166 133.501Z" fill="#FFDA18"/>
<path fill-rule="evenodd" clip-rule="evenodd" d="M533.418 287.466C532.914 292.512 532 294.637 531.549 299.16C534.98 301.979 535.844 302.09 533.024 311.043C530.791 318.132 528.01 315.892 526.704 320.424C526.271 321.928 525.476 325.933 525.245 327.184C527.478 329.019 527.721 330.102 531.151 331.267C530.116 341.638 529.51 334.976 528.795 340.816C530.687 341.528 531.799 342.501 532.686 343.999C531.322 347.992 530.356 346.257 529.773 352.095C526.715 352.428 524.464 351.853 521.85 349.658C517.614 346.102 519.705 346.441 514.213 346.35C515.325 354.836 516.997 348.165 507.274 361.251C505.029 364.272 506.369 361.69 505.684 368.561C498.197 367.814 501.285 365.775 497.207 362.125C495.682 366.589 493.299 365.229 487.833 364.684C483.838 370.681 482.373 371.148 486.244 380.599C484.698 382.467 483.241 383.812 481.343 385.519C477.665 388.827 480.026 389.018 479.801 392.53L477.73 401.276C476.882 404.049 474.092 404.503 471.813 405.716C472.204 408.1 474.276 410.339 475.359 412.359C479.227 411.834 478.188 411.077 482.579 414.098C484.362 415.325 485.244 415.951 486.813 417.006C493.933 421.798 490.868 417.16 496.268 420.734C497.229 419.667 496.164 420.818 497.37 419.747C497.462 419.666 497.639 419.511 497.74 419.421C497.842 419.331 498.003 419.189 498.109 419.094C505.548 412.439 503.14 418.883 507.016 422.139C510.906 425.407 522.731 430.118 523.256 430.508C529.201 434.933 526.939 434.395 527.668 436.444C530.639 437.453 531.113 436.905 531.559 439.627C537.444 436.497 534.411 438.868 536.658 434.968C536.739 434.826 536.832 434.645 536.921 434.513C537.422 433.767 541.144 430.637 542.322 429.446C547.946 423.766 541.285 427.454 552.798 417.364L557.808 412.597C559.17 410.482 559.672 405.602 560.27 403.156C561.347 398.756 560.868 397.281 559.944 394.233C556.037 381.349 559.486 384.715 560 379.568C560.144 378.118 557.495 376.856 556.109 376.385L556.592 371.541C566.092 367.684 561.373 369.991 564.228 365.315L571.869 366.077C573.7 363.078 571.782 360.361 576.231 362.495C581.137 364.847 577.523 362.951 582.77 362.272C584.748 364.043 583.935 361.938 583.882 365.179C588.328 365.622 589.064 366.157 591.918 364.094C597.82 359.825 594.836 354.868 601.683 353.419C602.858 353.171 604.038 353.393 604.662 354.52C605.486 356.006 604.546 356.531 603.533 358.054C608.334 358.134 612.446 356.798 612.105 353.366C611.563 347.91 603.08 350.99 607.688 337.503C611.747 337.908 612.61 337.295 616.092 337.642C615.545 334.309 610.64 326.953 608.236 324.978C605.383 325.348 604.499 326.418 601.084 326.362C600.013 319.823 591.503 316.943 587.675 320.906C586.422 322.202 585.214 325.246 583.929 327.211C579.471 334.028 583.585 336.262 576.575 339.991L572.897 335.993C567.713 338.907 566.062 338.932 563.204 341.565C561.832 342.83 561.656 343.078 560.049 343.933C557.474 343.058 556.016 341.388 554.143 339.85C554.869 332.575 556.768 327.609 557.604 319.23C557.949 315.777 556.173 319.12 553.759 314.738C549.44 306.901 551.254 308.628 552.109 304.006C548.9 301.883 549.236 303.148 548.435 300.646C544.051 286.952 546.259 294.261 538.141 289.335C539.303 286.262 538.972 288.362 540.395 286.45C540.878 285.801 543.158 284.583 540.334 284.502C540.071 284.494 535.262 287.167 533.418 287.466Z" fill="#FFDA18"/>
<path fill-rule="evenodd" clip-rule="evenodd" d="M732.572 224.865L731.95 231.093L725.7 230.469L724.031 233.871C721.393 236.503 714.981 236.527 711.951 234.689L709.794 236.72C710.592 238.903 713.675 245.529 713.486 247.421C713.152 250.769 704.757 251.336 715.665 265.985C717.128 267.95 718.362 269.751 718.709 272.401C711.982 271.73 713.732 273.074 713.019 280.22C711.963 280.6 707.23 281.625 705.866 281.603C705.786 286.552 707.197 287.823 701.239 289.939L698.341 291.069C696.256 291.832 697.648 291.748 695.038 291.704C694.743 294.656 694.142 298.502 694.121 301.371C694.072 308.188 694.654 303.543 692.617 308.933C694.692 309.638 695.179 310.276 696.577 311.425C695.81 312.679 694.973 314.996 694.635 316.822C704.996 320.715 700.089 325.435 699.919 327.133C699.656 329.769 700.311 331.414 700.618 334.191C706.971 334.297 706.99 327.345 714.854 332.116C715.9 339.742 709.878 342.527 708.408 354.535C711.466 354.586 712.972 353.593 716.185 353.913C717.3 354.024 717.989 356.534 719.313 357.72C725.617 354.366 727.333 354.68 727.989 348.102C736.62 348.963 732.846 343.503 738.96 343.605C739.549 348.1 742.665 353.189 743.204 357.306C740.495 358.285 737.233 358.957 734.524 359.935C736.206 362.775 736.345 360.216 736.888 364.364C734.05 367.794 734.399 364.302 732.84 369.525C731.804 372.994 731.41 372.903 729.702 375.856C727.74 379.251 728.634 386.672 730.096 390.242C736.316 390.862 735.415 391.717 738.795 395.227C740.456 396.952 741.12 396.924 741.075 399.723C743.768 399.768 745.086 398.536 747.553 397.518C750.161 396.44 751.344 394.759 754.043 396.098C757.728 397.927 756.103 398.334 761.371 397.286C764.455 396.672 765.812 395.901 769.478 396.266C769.702 397.974 770.152 399.267 770.883 400.842C771.74 402.688 772.686 403.412 773.414 405.134C774.49 407.679 773.827 408.093 773.556 411.375C773.146 416.331 773.852 413.555 774.421 417.026C778.589 414.616 772.738 417.183 775.645 412.411C776.274 411.38 778.692 408.798 779.555 407.754C790.567 408.852 785.127 409.411 792.402 405.541C791.721 403.878 791.319 403.301 790.611 401.805C789.834 400.164 789.101 399.388 790.654 398.764C795.486 396.825 794.88 401.797 795.797 392.602C791.201 393.225 790.865 392.319 787.67 389.695C788.541 387.389 792.489 383.231 794.124 381.254C803.395 387.388 799.2 388.241 802.394 389.765C803.305 388.068 803.333 381.851 803.4 379.41C803.461 377.22 803.222 374.096 802.27 372.069L801.078 369.863C795.558 357.896 790.894 354.943 787.702 345.175L786.784 342.744C786.22 341.037 786.169 339.25 786.046 337.626C785.186 326.337 778.349 334.757 776.798 322.92C767.308 321.974 766.744 320.519 763.74 320.22C761.939 320.04 759.643 322.821 757.769 323.817C758.713 325.577 760.968 329.232 760.079 331.281C758.971 333.832 755.678 335.97 753.054 335.926C752.181 333.53 752.697 330.92 750.618 330.276C747.962 329.453 749.176 331.112 749.134 331.5C748.805 334.574 750.309 330.576 748.956 334.819C745.988 334.456 746.192 334.013 745.048 332.284C744.081 330.822 743.365 330.086 742.562 328.59C737.219 331.433 736.006 332.828 729.577 332.187C730.421 323.735 735.321 316.809 736.438 305.617C736.873 301.251 735.834 297.252 736.255 294.459C736.503 292.811 737.39 291.502 737.947 289.607C738.8 286.702 741.261 283.176 740.223 280.355C739.541 278.502 738.509 277.964 737.909 276.377C736.644 273.038 740.656 270.378 740.999 266.937C741.155 265.381 739.787 262.405 739.537 260.501L754.198 245.732C755.745 245.093 756.56 245.686 757.439 244.492C760.005 241.006 756.595 246.909 757.709 243.696C758.166 242.381 757.572 239.834 764.736 239.953L764.874 238.569C761.89 238.272 758.77 237.857 755.806 237.621C750.427 237.192 750.897 239.272 748.693 239.052C746.86 238.869 745.785 236.084 745.788 235.146C745.794 232.991 747.631 232.124 748.827 230.679C745.684 224.82 744.235 224.25 737.085 221.821C736.38 223.289 736.552 222.878 735.434 223.693C734.108 224.66 734.373 224.574 732.572 224.865Z" fill="#FFDA18"/>
<path fill-rule="evenodd" clip-rule="evenodd" d="M804.544 16.8011C807.812 17.1272 811.411 17.8577 813.435 19.0859C812.56 23.8182 806.028 24.6366 805.868 24.6205C802.135 24.2483 800.431 20.6136 795.77 22.3641L762.21 42.1054C750.05 51.5916 758.585 43.1356 748.539 56.5071L742.899 65.1631C743.04 65.2562 743.262 65.2536 743.304 65.4687C743.344 65.6836 743.622 65.7127 743.702 65.7791C743.782 65.8447 743.991 66.0181 744.089 66.0993L745.229 67.0771C745.352 67.167 745.503 67.2996 745.632 67.384C745.925 67.5739 746.93 68.0752 747.063 68.1237C749.27 68.9241 752.04 68.8707 754.43 69.1091C754.807 71.9906 754.293 77.884 752.404 79.0591C750.602 80.1805 743.224 79.1725 740.129 78.8639C738.466 81.5853 739.264 83.8987 731.457 91.5915C730.588 92.4493 731.304 91.6469 730.385 92.6137C729.206 93.8557 729.522 93.4729 728.544 95.0287C727.602 96.5265 727.714 95.9675 727.013 97.8223C730.082 99.8527 736.711 101.237 740.075 107.511C738.549 111.981 738.369 107.913 736.576 114.117C734.444 121.495 733.151 113.64 731.96 125.57C731.809 127.086 734.037 129.811 735.322 130.456C737.576 131.586 740.668 130.798 743.096 131.746C746.017 132.887 744.422 134.638 747.748 135.232C752.195 136.027 748.776 133.93 752.758 137.873C757.901 142.965 767.017 134.722 769.835 134.417C775.017 133.855 772.523 135.131 776.829 132.841C777.162 129.51 776.825 127.629 778.413 125.456L782.95 121.666C784.896 120.433 786.022 119.415 787.387 117.753C788.957 115.841 789.912 115.1 790.777 112.568C800.169 113.505 791.783 107.776 807.931 109.386C808.519 110.824 809.097 111.867 809.596 113.114C810.722 115.927 809.32 114.855 811.407 116.722C815.124 116.119 813.752 114.029 818.064 113.96C823.264 113.876 823.439 116.313 824.766 111.251C827.986 98.9702 828.902 103.085 829.73 94.7884C830.652 95.3481 837.53 98.5283 837.314 93.2146C836.969 84.7248 833.013 79.1248 837.399 75.4481C840.282 73.0318 841.287 72.8724 843.466 69.6023C841.475 67.966 841.922 66.403 836.496 67.3279C833.55 67.8301 834.112 68.6692 832.354 68.4939C828.728 68.1322 828.473 66.7096 825.546 66.4177C823.58 66.2217 822.206 68.5095 820.035 69.0211C817.5 69.6181 814.03 68.7631 811.31 68.4918C812.006 64.726 816.075 62.9116 816.306 60.6039C816.635 57.3065 815.443 55.0849 815.051 52.0927C812.436 51.2039 806.227 49.1785 803.451 48.8391C801.871 36.7731 805.948 41.2373 813.24 42.128C815.058 36.8063 813.201 34.7087 819.792 31.4273C824.325 29.1708 822.669 33.6376 826.795 29.1478C832.434 23.0132 830.044 25.9904 833.515 24.8989C834.869 24.4728 836.131 23.6094 836.286 22.0634C836.547 19.4427 831.867 18.638 829.642 17.9464C826.739 17.0439 823.567 16.5682 820.795 15.6267C821.345 10.1086 821.737 10.7049 823.082 6.77025L820.127 2.82171L810.404 7.63737L807.587 11.9692C805.873 16.1679 806.879 13.9791 804.544 16.8011Z" fill="#A4A46C"/>
<path fill-rule="evenodd" clip-rule="evenodd" d="M361.327 175.747C360.921 179.817 364.715 177.656 357.436 187.307C356.488 188.564 355.99 188.917 354.947 190.484C360.905 195.38 356.584 194.505 357.19 199.526C357.704 203.777 360.791 200.679 355.929 207.201C354.29 209.401 354.532 209.311 350.999 208.959C350.461 204.863 344.181 197.062 343.488 192.836L341.405 192.628C341.321 197.821 343.683 197.911 343.561 199.133C343.214 202.607 341.175 202.95 339.467 205.014C339.818 207.154 339.307 206.532 341.344 207.298C340.882 211.069 339.184 213.273 336.875 215.05L333.611 217.285C329.063 220.589 330.901 218.91 324.489 219.377C317.891 219.857 320.498 221.211 316.223 223.285C313.766 224.478 313.785 223.79 311.559 224.593C310.005 240.171 308.701 232.151 308.164 237.533C307.55 243.683 318.759 241.641 324.643 245.706C326.978 247.318 325.778 244.995 326.402 248.721C326.404 248.733 326.074 253.994 330.328 254.419C330.328 254.419 343.69 250.497 343.697 261.314C343.702 267.223 345.409 266.772 346.103 272.065C357.988 273.251 350.972 272.42 358.315 277.998C364.438 282.648 367.746 278.069 373.315 287.377C375.502 291.033 374.8 290.301 382.089 291.028C386.075 291.426 387.967 287.926 390.976 286.324C395.006 290.584 395.899 293.231 398.7 294.009C402.636 295.103 401.3 293.909 404.302 296.434C406.357 298.164 407.14 298.631 409.249 300.027C419.87 294.377 414.904 292.563 415.285 288.749C415.883 282.752 419.654 287.147 420.764 276.017C421.165 271.998 416.337 273.764 414.817 271.333C413.623 269.425 414.928 264.212 415.2 261.486C413.387 259.997 413.192 260.179 411.24 258.994C413.04 240.956 410.054 249.803 409.287 240.245C408.045 224.769 416.537 230.88 414.089 219.804C413.755 218.295 413.612 217.214 413.437 215.885C410.29 215.642 410.609 216.302 407.118 215.954C406.722 213.536 403.328 209.291 401.833 205.643C408.331 200.053 411.245 202.716 412.037 194.781C412.338 191.766 408.197 191.086 408.56 187.445C408.823 184.809 412.053 185.061 413.349 181.634C411.134 180.801 410.58 179.495 409.546 177.692C407.445 174.028 408.795 176.964 409.385 172.154C406.776 172.11 406.099 172.238 406.732 174.793C407.606 178.322 408.404 174.948 407.861 180.388C399.923 181.464 405.102 178.095 401.756 178.961C398.856 179.711 403.865 184.708 405.225 186.352C405.316 186.462 405.458 186.613 405.545 186.726L406.964 189.383C405.693 190.919 406.051 190.02 405.298 192.012C399.886 191.472 391.962 185.066 392.167 183.016C392.485 179.826 391.852 184.318 394.673 178.304C395.532 176.472 396.274 175.155 396.676 172.983L391.365 175.83C382.721 180.886 388.953 185.074 387.573 192.239C386.511 197.757 382.602 194.516 381.623 204.327C381.266 207.897 386.589 206.496 390.04 208.904C390.938 209.529 391.766 210.586 392.557 211.301C395.494 213.957 397.481 214.115 396.497 223.98C393.06 225.808 395.806 226.007 389.344 225.363C389.549 222.706 389.005 221.495 388.624 219.594C387.69 214.933 388.799 213.643 380.587 214.706L379.275 227.853C370.85 231.274 370.473 235.054 365.055 236.931C358.533 239.191 354.303 239.045 349.448 233.106C337.985 219.086 351.743 227.902 358.857 228.612C361.439 228.869 369.666 219.425 371.597 216.893C375.541 211.719 371.003 212.342 371.554 206.817C371.891 203.449 374.344 199.556 375.572 196.186L378.496 188.104C379.162 186.769 379.884 186.608 379.946 185.99C380.561 179.831 375.514 178.764 384.799 170.944C387.026 169.068 387.899 166.58 388.545 163.086C378.21 156.249 380.264 160.42 371.992 168.55C369.323 171.173 361.613 172.883 361.327 175.747Z" fill="#A4A46C"/>
<path fill-rule="evenodd" clip-rule="evenodd" d="M299.898 229.021C298.971 228.928 297.926 226.36 293.922 231.056C290.989 234.496 293.909 235.657 290.045 237.982C287.577 239.468 286.267 238.896 284.233 241.774C282.377 244.401 277.963 252.894 277.951 255.849C277.923 263.438 281.163 259.065 284.215 264.693C292.9 280.704 287.019 273.724 285.969 284.238C285.75 286.434 287.713 287.85 287.639 288.598C287.111 293.889 283.066 293 287.821 297.348C289.504 298.888 288.703 298.616 290.77 299.393C290.223 304.874 290.26 308.235 293.138 310.81C296.057 310.433 294.842 309.705 299.422 309.146C305.412 308.417 313.696 307.479 315.843 301.195C319.403 302.404 327.269 307.293 329.549 312.265C330.601 314.56 333.93 323.154 335.119 324.25C336.805 325.802 342.894 328.352 346.07 328.669C346.852 326.601 348.583 325.651 350.327 323.761C352.844 321.032 352.695 321.642 357.248 322.097C358.349 318.875 362.094 311.34 364.186 308.812L376.618 310.75L377.125 313.569L385.438 313.591C385.967 313.719 390.674 318.425 393.025 318.166C395.755 317.865 398.302 314.31 401.484 314.628C403.154 314.794 403.414 315.952 404.749 317.05C407.743 316.565 412.639 314.475 413.706 311.654C407.065 309.398 408.123 303.253 407.525 301.438C407.044 299.974 402.759 296.885 401.427 296.241C396.834 294.025 396.463 297.784 391.468 288.471C384.508 290.223 391.944 293.41 375.705 291.79C373.7 291.59 371.024 287.296 369.828 285.777C364.155 278.57 362.94 285.134 354.599 276.583C353.66 275.621 354.527 276.221 353.243 275.146C352.144 274.227 353.043 274.607 351.427 274.084C350.251 273.703 346.712 273.524 345.275 273.381C344.572 271.664 344.298 270.102 343.615 268.378C340.04 259.338 344.431 261.497 341.079 257.733C340.543 257.132 337.982 254.943 337.346 254.42C328.398 257.652 329.21 254.656 324.845 253.173L325.397 247.638C322.194 246.549 321.774 245.702 318.107 244.683C318.106 244.682 303.658 243.574 306.75 235.891C307.417 234.232 308.021 233.943 308.821 232.841C311.497 229.156 309.296 233.249 309.828 227.915C310.081 225.387 312.14 226.985 309.726 225.414C307.106 223.709 302.979 229.328 299.898 229.021Z" fill="#A4A46C"/>
<path fill-rule="evenodd" clip-rule="evenodd" d="M754.886 141.833L751.564 138.746C750.414 137.618 749.506 135.459 748.821 137.203C747.514 140.528 750.342 135.602 749.161 141.736C748.988 142.633 747.808 145.448 747.388 146.676C746.238 147.091 745.134 147.045 744.22 147.476C742.556 148.26 739.746 151.813 735.584 152.487C736.197 156.227 738.22 154.198 738.018 156.224C737.779 158.609 737.236 158.852 736.839 160.998C739.346 161.941 737.667 161.787 740.174 162.729C739.778 166.698 738.25 167.309 740.265 170.252C741.733 172.397 743.214 173.363 744.488 175.738C743.587 178.119 743.679 177.203 741.987 178.903C737.22 183.69 739.236 181.503 739.146 187.086C735.786 186.467 738.288 186.611 735.836 185.943C734.529 185.587 735.219 184.734 730.846 187.838C729.534 188.769 729.232 189.088 728.314 190.199C730.008 193.358 731.498 192.455 731.165 196.772C729.499 196.988 728.896 197.136 727.46 197.696C725.806 198.342 726.171 198.559 723.943 198.848C723.427 204.024 722.946 204.242 724.395 208.014C726.986 214.757 728.933 214.625 730.718 217.479C733.382 221.737 729.482 224.981 734.173 222.339C737.005 220.746 739.439 218.406 746.677 224.169C748.567 225.674 749.72 228.673 750.908 230.889C748.854 233.371 747.743 233.397 748.204 236.909C753.493 236.224 748.723 234.695 758.834 235.878C760.854 236.114 762.941 236.474 764.751 236.096L769.454 234.835C770.069 226.878 764.596 228.882 775.147 223.915C783.661 219.908 781.403 220.37 785.49 221.759L784.126 227.193L787.021 227.502C787.725 225.44 788.371 224.511 789.186 222.377C790.003 220.244 790.206 219.033 791.109 216.957C794.295 209.634 796.434 213.268 797.358 208.267C795.961 209.01 790.976 214.722 788.073 199.311C787.828 198.002 787.79 197.111 787.547 195.926C787.199 194.225 787.198 194.835 786.842 192.687L784.084 178.986C783.413 175.367 787.045 172.996 790.461 168.832C792.092 166.843 792.748 165.164 794.764 163.98C798.358 165.331 800.728 173.237 804.883 171.669C807.5 170.681 803.67 166.112 804.552 157.269C801.446 156.697 800.826 154.71 799.218 152.719C792.488 144.381 795.174 148.913 789.963 148.826C788.201 135.378 786.179 144.942 782.638 137.636C779.294 130.739 778.033 134.672 774.422 135.344C774.342 135.36 772.845 135.506 772.658 135.526C768.704 135.943 769.376 135.733 766.693 137.577C762.237 140.64 759.106 139.588 754.886 141.833Z" fill="#FFDA18"/>
<path fill-rule="evenodd" clip-rule="evenodd" d="M824.734 116.653C809.574 115.141 817.875 118.213 810.429 119.419C808.885 116.542 807.67 113.741 806.396 110.631C802.757 110.57 800.485 111.861 797.16 111.806C796.217 116.905 795.553 112.602 791.701 115.25C790.176 116.298 788.604 119.275 787.277 120.731C785.331 122.862 784.084 122.701 782.06 124.468C778.486 127.589 778.679 128.299 778.419 130.902C784.844 132.085 781.766 133.78 784.792 137.782C785.449 138.651 784.56 138.153 786.368 139.04C787.884 139.784 787.854 139.165 789.009 140.064C790.976 141.594 789.268 140.26 790.705 144.47C790.757 144.623 790.816 144.83 790.875 144.971C792.635 149.189 793.114 143.287 798.237 148.42C800.525 150.713 801.517 153.976 804.754 155.192C804.379 152.898 803.393 152.29 801.903 150.525C798.093 146.015 796.006 147.021 800.602 140.828C801.795 139.222 802.659 138.007 803.841 136.233L809.397 136.787C810.083 142.018 808.147 139.527 806.553 144.191C810.234 147.214 816.668 151.114 816.576 156.358C816.512 159.969 815.615 164.371 816.019 166.982C817.01 173.381 823.508 195.806 824.285 201.609C824.721 204.866 822.635 207.841 821.662 210.689C827.861 215.781 825.879 214.145 827.036 222.834C827.386 225.457 831.983 231.403 833.901 233.762C837.425 238.095 839.357 238.756 844.276 241.829C850.395 245.651 875.114 262.611 878.642 263.402C881.39 264.018 879.806 261.108 879.344 258.384C876.487 241.502 870.482 248.656 871.75 235.951C872.498 228.458 874.19 231.971 867.799 226.46C866.056 224.956 866.809 224.908 864.521 224.048C864.729 221.958 864.866 218.291 865.262 216.415C865.967 213.078 866.625 214.187 868.542 211.871C868.09 208.423 868.77 208.53 865.857 207.068C863.534 205.903 861.277 205.788 859.44 204.673C859.221 204.407 857.41 196.897 857.628 194.709C857.896 192.024 858.924 194.711 859.501 190.004C845.329 188.591 849.243 184.957 845.424 181.839C844.081 180.742 845.332 181.127 844.217 181.491C840.952 182.383 843.74 181.26 843.119 183.117C842.479 185.025 844.748 183.622 842.085 185.076C835.652 188.59 832.87 179.832 830.986 175.754L826.218 166.284C825.345 164.52 824.185 163.101 824.962 161.166C825.186 160.606 825.997 159.543 826.43 159.109C828.123 157.412 826.832 157.978 829.063 157.617C829.166 151.264 826.302 151.495 826.765 145.507C830.873 146.01 830.195 147.152 833.503 148.276C831.149 142.529 832.145 142.846 833.968 134.874C834.939 130.621 834.284 130.595 845.229 129.179C844.679 125.819 843.682 127.575 842.537 122.476L839.581 106.452C839.123 103.655 838.139 101.822 838.544 97.7636C830.461 95.0183 831.361 96.7579 830.426 100.301C829.71 103.015 829.103 102.741 828.248 105.409C827.339 108.244 827.896 108.747 826.692 111.275C825.677 113.405 825.118 113.521 824.734 116.653Z" fill="#FFDA18"/>
<path fill-rule="evenodd" clip-rule="evenodd" d="M608.949 339.025C608.289 345.631 607.103 348.082 613.538 349.267C613.155 353.104 613.707 353.93 613.473 356.948C608.253 359.725 609.562 360.052 602.015 359.299C601.759 362.614 602.792 364.223 603.954 366.617C609.461 377.971 605.421 372.532 612.731 377.259C616.305 379.57 616.776 380.088 616.336 384.488C615.961 388.246 614.883 383.206 607.084 391.852L599.261 400.955C604.261 407.99 603.9 403.665 603.363 409.052C603.048 412.203 597.299 417.061 595.851 417.759C591.685 419.768 591.046 418.147 589.059 421.909C588.433 423.094 588.844 422.723 588.098 423.843C584.982 428.519 587.186 422.019 581.498 431.331C576.128 430.795 577.61 430.229 574.062 432.405C569.865 434.979 571.82 432.815 567.262 433.405C567.046 436.199 567.819 436.351 567.252 438.128C566.326 441.031 565.744 438.103 564.975 442.262C567.74 442.6 567.515 442.838 569.005 444.061C567.166 448.928 564.048 444.526 563.314 451.881C569.034 454.03 559.815 456.305 585.317 455.378C591.061 455.169 596.19 450.864 600.9 447.958C607.62 443.813 607.438 436.014 613.935 436.662C618.502 437.118 619.188 438.584 624.216 439.085C627.697 429.874 631.419 440.543 639.857 437.175C644.494 435.324 640.614 432.915 646.13 430.836C647.737 430.229 647.398 430.531 649.004 429.677C645.649 423.421 646.553 426.119 647.883 412.793C648.228 409.335 650.037 406.949 651.49 404.767C649.838 403.409 649.54 402.734 648.26 401.044C645.443 397.322 642.591 399.403 645.521 393.712C649.411 386.158 649.877 389.069 653.493 384.7C652.519 382.885 649.853 380.032 647.725 379.233L649.667 373.835C648.097 373.086 648.733 373.475 647.929 372.074C647.874 371.978 647.073 369.647 647.062 369.602C646.74 368.214 646.443 365.169 646.467 363.732C643.806 365.148 642.004 368.147 639.033 360.894C636.426 361.317 637.505 361.48 635.353 362.624C633.789 361.589 633.145 360.791 631.393 360.132C631.651 358.029 631.959 357.641 632.503 356.05C628.773 354.783 620.053 347.041 618.837 344.311C616.723 339.571 620.197 339.448 612.49 338.68C611.396 338.571 609.822 338.784 608.949 339.025Z" fill="#FFDA18"/>
<path fill-rule="evenodd" clip-rule="evenodd" d="M254.591 190.959C253.892 197.962 259.013 194.324 253.417 202.722C248.746 201.135 248.256 200.111 241.818 199.469C239.968 194.954 238.56 194.344 233.841 191.343C231.159 189.638 234.038 190.676 230.075 190.61C234.448 201.286 231.499 197.845 231.118 202.496C230.97 204.304 231.486 204.595 231.196 207.495C226.052 207.096 225.745 207.815 223.491 214.413C226.835 215.55 224.951 215.987 227.033 214.129C229.632 211.807 227.666 211.336 233.56 211.924C235.358 212.103 235.895 213.847 237.313 216.491C235.209 219.034 232.463 220.758 229.792 222.879C225.142 226.57 229.366 225.984 226.508 228.899C223.34 232.129 222.243 229.663 216.415 229.082C215.99 231.381 216.009 230.532 215.314 232.398C214.964 233.337 214.684 234.423 214.197 235.695C213.335 237.94 212.403 239.171 209.754 239.6C209.486 243.065 210.582 244.577 210.315 248.042L212.398 248.25C213.461 245.437 215.166 244.782 218.543 245.699C220.592 246.256 225.63 248.467 226.575 248.58C231.141 249.126 227.907 244.168 230.845 242.714C231.375 242.451 238.039 243.818 240.176 244.031C241.773 248.413 240.817 252.454 254.8 251.738C265.345 251.198 264.883 254.44 272.548 257.044C278.573 249.762 280.642 241.282 283.772 238.888C284.941 237.994 286.956 237.14 288.096 236.39C292.16 233.717 288.064 230.068 298.226 224.663C300.733 225.604 299.054 225.451 301.561 226.393C304.428 223.211 308.895 222.934 311.529 222.228C315.75 221.096 317.154 218.387 321.187 217.686C322.684 217.426 325.276 217.3 327.061 217.074C331.01 216.577 333.144 215.957 336.885 211.868C338.824 209.747 339.375 208.618 336.414 207.505C336.952 202.115 337.679 205.449 338.425 201.416C334.631 202.031 335.844 203.934 332.882 204.759C331.444 205.159 330.701 204.637 328.92 205.369C325.662 206.708 328.467 207.444 321.485 208.759C314.999 209.982 314.002 208.137 304.417 202.452C301.47 200.704 298.687 199.567 295.976 197.893C294.797 197.165 293.095 196.193 292.05 195.374C290.443 194.115 290.433 193.604 288.709 192.378L281.54 186.781C275.933 182.304 279.006 185.008 272.09 184.318C268.089 183.919 262.879 181.841 260.406 183.28C259.752 183.661 254.619 190.684 254.591 190.959Z" fill="#FFDA18"/>
<path fill-rule="evenodd" clip-rule="evenodd" d="M663.056 352.109C655.073 351.313 658.425 348.063 653.314 348.719C647.356 349.483 654.238 350.548 640.67 349.668C640.035 349.627 632.541 345.767 630.067 352.314C632.628 353.276 631.683 353.842 634.722 354.875L634.238 359.718C636.932 359.281 636.392 358.584 638.682 357.365C642.145 359.658 640.809 358.826 642.366 362.625C646.396 361.972 643.81 360.338 648.198 360.412C648.138 364.152 648.901 371.346 652.58 372.728C652.136 376.355 651.605 375.3 650.639 378.126C656.267 387.63 659.641 379.515 666.139 379.089C669.725 378.853 670.246 379.927 672.955 380.371C678.131 381.218 676.955 378.654 678.628 378.821C685.757 379.532 685.564 381.04 690.978 386.548C694.221 389.847 697.266 393.799 700.47 397.242C710.986 408.54 708.379 410.924 720.642 407.448C728.276 405.283 726.765 407.383 736.012 408.305C736.806 407.005 739.109 401.281 739.688 399.586C735.504 391.786 733.064 392.636 729.197 392.25C725.529 385.413 726.304 386.087 727.243 376.681C727.435 374.754 727.509 376.07 729.044 373.442C733.203 366.325 730.272 369.028 734.875 363.465C733.469 360.843 732.526 361.707 732.581 358.344C735 358.031 738.387 357.1 740.496 356.338C740.551 352.959 738.523 350.369 737.991 346.304C733.932 346.962 735.834 350.848 729.867 350.387C729.447 354.593 729.601 353.589 727.336 355.065C723.502 357.564 721.46 359.931 717.024 359.588C716.741 357.423 716.209 356.821 715.355 355.229C712.366 356.308 709.195 356.711 706.118 356.404C706.542 352.162 707.856 349.097 709.033 345.207C710.967 338.81 715.784 334.276 711.616 332.207C709.431 331.121 704.219 334.901 702.352 336.301C698.56 339.143 701.353 337.926 696.348 339.082C692.828 339.896 693.175 341.535 691.247 343.738C688.202 347.221 687.101 344.007 681.45 347.334C680.029 348.171 679.781 348.251 678.323 348.962C669.4 353.308 672.634 349.478 666.574 350.959C663.979 351.594 665.087 352.312 663.056 352.109Z" fill="#FFDA18"/>
<path fill-rule="evenodd" clip-rule="evenodd" d="M582.982 367.185L582.476 364.367C576.966 365.251 583.76 365.977 574.16 364.209C573.394 368.355 571.598 368.146 564.717 367.46C563.863 374.435 554.64 369.689 559.801 376.554C560.877 377.986 562.324 377.284 561.173 381.659C559.642 387.483 559.782 387.318 562.503 395.992C563.5 399.171 560.27 412.218 559.999 412.935C559.083 415.361 555.787 416.751 553.888 418.689C551.845 420.775 550.029 422.075 548.222 424.211C544.228 428.928 547.19 428.282 540.448 433.373C534.672 437.733 542.874 437.026 531.353 441.705C528.55 439.196 532.215 440.364 527.997 438.691C522.361 436.455 525.367 437.614 525.211 436.007C525.061 434.464 527.961 436.51 522.962 432.673C515.643 427.052 518.974 431.697 513.48 428.31C502.616 421.613 502.981 423.752 503.489 418.659C500.529 418.61 493.007 425.294 492.799 427.377C492.238 433.003 494.496 430.624 504.239 433.939L518.685 439.322C520.349 440.906 521.152 446.491 521.495 449.108C524.346 449.457 526.281 450.485 528.927 451.35C539.074 454.667 532.07 445.969 551.775 447.935C555.978 448.354 553.985 449.553 562.055 450.358C562.324 447.664 561.964 445.835 566.08 445.168C565.004 443.35 565.284 443.585 562.815 442.746L563.16 439.287C564.583 438.928 564.511 440.16 565.252 437.383C565.924 434.867 564.753 437.383 565.102 433.889C565.431 430.593 569.18 431.99 571.868 431.26C575.61 430.245 572.704 429.057 580.24 429.808C582.579 425.978 580.987 426.458 585.04 424.01C589.593 421.258 586.807 420.133 589.682 418.019C591.603 416.604 593.901 417.247 596.579 414.773C602.46 409.343 601.777 410.808 602.242 406.145C598.218 405.654 597.543 403.629 598.228 400.141C598.653 397.97 606.031 390.327 607.59 388.597C609.493 386.485 610.529 384.911 614.176 384.972C615.069 376.016 608.522 379.389 605.627 374.781C603.094 370.75 600.157 363.779 600.618 359.16C600.721 358.133 602.423 356.257 603.116 355.216C601.521 355.475 599.413 356.43 598.229 357.804C596.594 359.699 597.359 368.619 582.982 367.185Z" fill="#A4A46C"/>
<path fill-rule="evenodd" clip-rule="evenodd" d="M353.565 325.436C351.274 328.874 350.377 328.732 347.513 331.263C342.279 335.89 344.527 341.738 346.309 348.515C347.261 352.132 347.905 350.906 353.853 353.169C355.644 353.85 356.094 354.261 357.948 354.915C363.633 356.923 365.93 357.431 368.447 362.881C369.607 365.392 368.591 364.84 370.85 366.006L379.972 369.187C386.186 369.816 389.497 366.029 388.251 378.513C391.495 378.094 393.5 376.398 396.403 376.019C400.549 375.476 401.836 376.023 405.355 374.498C411.09 372.012 415.857 372.155 423.946 372.289C425.331 368.236 424.089 370.847 424.36 368.138C424.559 366.144 428.521 364.796 430.051 360.319L421.298 356.651C422.222 347.393 423.96 350.308 427.249 347.585C429.437 345.772 428.104 347.878 428.166 344.058C424.213 343.663 423.776 343.85 422.088 341.386C418.383 335.979 419.583 335.697 412.199 334.194C409.388 333.623 406.979 332.91 404.755 332.638C404.837 326.78 403.299 330.738 406.765 326.549C405.653 324.984 406.662 326.629 405.884 324.724C404.678 321.774 404.877 322.292 401.205 319.005C397.655 319.465 394.859 322.565 392.456 322.326C390.651 322.146 387.616 319.222 385.534 318.435C382.6 317.326 378.654 317.456 375.437 317.135L374.931 314.316C370.4 313.837 369.076 313.006 364.67 312.566C364.151 315.376 362.009 318.904 360.667 321.665C357.727 327.715 359.32 326.01 353.565 325.436Z" fill="#FFDA18"/>
<path fill-rule="evenodd" clip-rule="evenodd" d="M203.531 154.418C203.28 156.932 204.113 156.927 204.436 159.401C197.86 167.348 194.59 162.456 194.643 159.123C191.086 158.768 190.742 158.501 188.667 160.385C183.211 165.338 186.675 168.685 186.386 171.577C186.106 174.383 185.326 171.512 183.194 177.004C179.938 185.39 182.003 174.76 175.462 187.071C172.534 192.584 178.394 196.235 181.804 199.468C184.577 202.099 180.712 201.155 188.915 205.747C192.228 207.602 191.383 207.649 193.006 210.673C195.266 210.849 197.811 210.485 199.395 209.913C201.629 216.045 196.614 214.602 205.926 214.758C209.864 224.372 209.929 216.824 209.196 224.168C215.745 224.278 210.985 223.172 215.237 226.217L218.876 227.716C221.68 228.732 222.396 229.949 224.481 227.977C228.476 224.195 219.895 228.099 231.662 218.918C233.684 217.341 234.167 217.598 234.679 214.83C229.346 211.106 227.871 217.645 225.304 217.389C223.578 217.217 222.866 215.398 221.413 214.205C221.929 212.694 221.786 213.099 222.473 211.615C225.69 204.653 224.329 206.541 229.257 205.903C229.547 202.993 230.413 198.756 230.317 197.225C230.26 196.317 228.429 190.705 228.066 189.711C232.758 188.017 233.948 188.498 239.099 192.792C241.319 194.642 242.254 195.545 243.351 198.223C245.595 198.447 247.258 198.447 249.317 199.149C254.214 200.819 254.499 202.101 253.039 192.807C252.608 190.065 253.226 190.021 254.939 187.503C259.47 180.841 257.252 182.139 248.55 181.271C248.589 178.841 247.364 176.448 246.408 174.119C245.56 172.057 244.534 169.753 243.611 167.5C240.277 167.445 239.63 168.876 238.172 165.609C237.689 164.527 236.705 160.716 236.73 159.127C224.426 156.862 220.949 153.804 216.247 167.567C214.611 167.367 214.358 167.541 212.78 165.945L208.939 161.45C207.149 158.869 207.251 152.971 207.487 149.921C207.463 149.92 204.154 148.171 203.531 154.418Z" fill="#D0D0B9"/>
<path fill-rule="evenodd" clip-rule="evenodd" d="M246.602 299.181C239.194 296.664 240.783 298.102 237.853 302.501C232.407 301.958 231.035 300.527 230.147 309.42C233.282 310.485 233.627 311.797 235.427 312.743C237.599 313.883 237.864 312.333 241.122 311.912C242.224 314.937 240.539 313.99 243.288 315.866C244.32 316.569 246.352 317.446 247.506 318.148C249.431 319.319 249.708 319.193 251.898 320.287C254.27 321.472 253.716 321.711 255.435 323.123C260.04 321.254 260.471 320.882 265.735 322.987C268.394 324.052 268.689 323.96 269.119 326.584C270.93 325.621 271.4 325.703 272.174 324.094C274.687 324.948 274.002 325.43 276.897 325.963C277.449 320.43 277.179 321.792 279.274 317.979C283.136 310.948 281.339 315.224 283.559 315.445C287.049 315.794 286.73 315.133 289.878 315.377L289.34 301.832C288.894 300.574 287.685 299.714 286.737 298.869C285.471 297.742 284.557 296.807 283.409 295.863C283.809 294.69 284.777 292.238 285.078 290.841C285.806 287.463 284.761 288.311 284.201 285.667C283.131 280.607 289.542 278.543 284.685 270.033L282.581 265.391C280.785 262.302 276.614 264.014 276.719 257.459L275.33 257.32C273.963 261.323 273.241 260.19 271.734 263.031C268.708 268.734 271.917 268.207 261.377 276.036C257.883 278.633 256.878 277.255 256.629 279.779C256.43 281.788 257.292 281.939 257.778 283.111C258.998 286.06 258.849 284.733 257.052 287.778C252.954 294.728 258.221 291.639 251.101 293.793C247.26 294.953 248.86 295.79 246.602 299.181Z" fill="#D0D0B9"/>
<path fill-rule="evenodd" clip-rule="evenodd" d="M343.235 358.649L344.934 362.997C343.016 363.691 338.742 363.829 337.174 364.464C334.497 365.548 336.371 363.923 334.996 367.258C331.125 376.641 334.941 371.38 335.936 377.188C336.26 379.077 334.134 382.437 332.971 384.182C337.118 384.25 334.079 382.894 341.444 383.629C340.971 386.185 339.99 387.182 338.808 388.957C339.843 390.885 342.182 395.096 343.673 396.43C343.745 396.463 343.894 396.34 343.909 396.415L356.123 395.285C360.873 394.741 363.52 392.443 367.979 391.866C372.962 395.96 373.567 400.167 377.361 403.285C378.162 402.317 379.544 400.98 380.51 400.133C382.173 398.677 382.535 398.301 385.521 398.472C385.883 398.492 395.221 400.037 395.622 396.02C396.133 390.906 395.13 388.285 395.598 382.674C396.258 374.76 392.75 380.61 387.349 380.52C386.998 377.839 386.19 373.226 386.233 370.624C372.751 372.369 380.235 368.629 368.312 367.44C365.272 360.016 364.78 358.816 354.822 355.557C346.682 352.893 347.814 350.527 345.559 355.268L343.235 358.649Z" fill="#D0D0B9"/>
<path fill-rule="evenodd" clip-rule="evenodd" d="M146.156 147.512C146.112 150.23 149.764 160.251 151.137 164.426C153.507 171.631 158.223 165.732 161.168 165.781C161.536 168.023 162.456 169.043 163.634 170.762C170 180.061 166.322 174.43 173.81 177.72C176.678 178.98 175.245 180.252 178.54 181.491C181.99 179.655 180.581 178.841 182.499 175.425C185.666 169.787 183.405 174.908 184.433 164.607C184.68 162.139 186.153 163.401 189.222 158.795L194.084 159.28C192.489 147.105 191.86 147.154 200.769 139.479C203.47 137.153 203.762 137.383 206.919 136.1C208.371 121.556 205.314 125.103 203.595 122.877C201.033 119.56 206.737 119.887 201.891 115.41L198.711 112.919C194.786 117.663 192.984 119.808 186.908 122.61C179.259 126.138 181.821 131.966 175.452 133.501C172.945 134.106 173.29 133.247 171.955 135.452C169.02 140.301 171.544 146.321 166.272 147.16L156.495 147.677C152.469 148.168 150.811 147.976 146.156 147.512Z" fill="#D0D0B9"/>
<path fill-rule="evenodd" clip-rule="evenodd" d="M344.997 397.26L352.377 428.746C354.646 428.174 353.027 429.002 355.108 426.637C356.814 424.697 355.623 424.909 358.417 424.456C361.71 427.161 358.967 426.405 361.687 433.867C364.262 434.124 366.087 434.706 367.35 434.904L377.661 435.461C381.453 435.839 378.694 441.623 384.261 439.613C384.35 434.14 381.442 438.517 380.646 433.662C384.855 432.142 389.691 433.088 392.96 430.025C393.642 429.386 396.473 426.14 397.06 425.747C398.815 424.572 399.994 425.737 403.144 426.122C406.269 416.972 405.748 422.034 405.811 414.431C405.837 411.234 406.543 412.143 405.311 409.735C404.679 408.498 397.579 398.925 396.808 398.235C394.001 399.728 395.977 399.676 391.951 400.084C390.494 400.23 387.266 399.971 385.042 400.211C378.752 400.887 381.676 405.663 375.074 405.152C374.409 401.089 369.055 397.582 368.47 394.011C364.76 393.949 361.573 396.066 357.946 396.722C353.984 397.439 349.601 397.719 344.997 397.26Z" fill="#FFDA18"/>
<path fill-rule="evenodd" clip-rule="evenodd" d="M249.573 156.914C249.463 163.718 251.542 162.846 245.134 166.255C245.797 171.32 249.56 176.115 250.073 180.026C262.977 181.313 262.53 182.632 278.08 182.96C280.619 183.014 282.255 184.585 285.896 187.681C287.113 188.716 287.83 189.481 289.298 190.628C290.232 191.357 290.049 191.171 290.875 191.883C290.986 191.98 291.134 192.121 291.244 192.218C291.353 192.316 291.501 192.458 291.61 192.557L296.087 195.898C298.792 197.434 301.536 198.702 304.511 200.469C312.293 205.094 318.175 209.746 324.858 205.892C334.197 200.506 330.624 206.296 336.55 199.133C338.89 199.564 339.04 199.914 340.579 200.933C340.939 196.274 338.895 196.727 339.255 193.113C339.355 192.109 344.208 188.389 336.408 182.722C334.072 181.023 331.26 178.603 328.135 178.028C327.024 181.277 327.93 180.077 327.444 184.947C327.259 186.802 324.885 187.776 323.144 188.286C320.404 189.089 318.316 187.728 315.986 187.299C316.553 181.609 318.771 181.35 312.051 181.715C306.676 182.007 305.919 179.306 302.785 178.993C300.68 178.783 297.162 180.895 294.721 179.814C293.02 179.059 290.706 175.656 289.934 174.218C291.791 171.973 293.561 171.877 294.958 171.019C296.373 170.15 295.962 170.919 296.737 169.305C292.784 168.911 268.845 165.712 266.245 167.116C264.348 168.14 262.461 170.621 259.999 171.931C257.275 171.005 256.62 169.781 253.261 169.162C252.567 163.863 250.493 154.909 258.81 155.739C261.821 156.039 260.843 157.054 264.227 157.677C265.25 154.972 267.425 156.127 264.582 149.76C263.637 147.64 263.322 147 261.166 146.19C260.754 150.313 259.132 151.387 256.806 153.301C253.584 155.953 252.871 155.16 249.573 156.914Z" fill="#D0D0B9"/>
<path fill-rule="evenodd" clip-rule="evenodd" d="M430.161 429.514C428.645 431.346 428.016 432.506 427.456 435.534C422.79 436.137 419.531 434.199 420.671 439.015C422.024 444.733 424.374 445.335 424.06 448.474C423.761 451.475 419.867 450.629 422.596 452.184C423.767 452.852 426.205 451.841 427.628 451.276L440.741 446.261C441.022 446.157 442.05 445.747 442.221 445.69C446.085 444.396 448.935 446.408 453.189 447.603C458.908 449.209 460.725 446.658 461.915 455.743C466.314 456.181 470.72 456.6 475.115 457.064C485.653 458.176 481.822 456.847 487.125 456.161C487.151 454.582 487.098 453.986 486.797 452.615L484.747 445.951C483.295 439.619 490.89 437.913 493.015 432.289C489.784 430.746 491.397 425.398 492.86 423.452C493.096 423.138 493.659 422.615 493.698 422.565C494.868 421.07 494.439 423.481 494.051 421.909C492.362 417.738 493.866 424.505 486.245 418.744C483.743 416.852 481.051 414.407 477.309 413.95C476.669 417.415 476.622 416.122 468.151 417.55C465.663 417.969 466.036 417.106 464.43 418.452C461.549 420.87 465.868 419.935 460.541 423.807C455.524 427.455 455.015 438.411 436.145 433.534C431.72 432.39 433.723 430.853 430.161 429.514Z" fill="#A4A46C"/>
<path fill-rule="evenodd" clip-rule="evenodd" d="M789.753 389.903C797.763 392.625 791.377 390.565 797.393 390.665L796.495 399.661C794.472 400.392 795.081 400.219 792.259 399.937C792.608 402.606 797.052 406.792 789.066 410.021C786.558 411.034 783.483 410.243 780.04 409.9L777.38 415.24C777.56 416.965 777.878 414.66 777.823 418.065L774.994 418.567C775.738 424.372 776.627 418.108 776.876 429.644C776.901 430.807 776.796 434.131 776.924 435.961C777.105 438.57 777.869 438.693 777.49 442.492C767.34 443.804 766.93 441.927 764.09 450.24L770.635 458.252C776.369 468.028 776.277 468.93 769.87 476.674C771.467 477.217 771.856 477.524 773.968 477.782C774.473 475.048 775.019 475.348 775.993 472.486C776.652 470.551 777.015 468.333 777.295 465.534C780.926 464.06 781.346 464.336 785.298 463.634C786.553 463.412 787.737 463.106 789.037 462.752C794.225 461.34 792.234 461.047 796.665 454.189C802.074 445.814 801.174 437.115 802.551 423.327C803.171 417.112 804.222 404.701 803.253 399.87C800.766 387.467 804.112 394.952 799.932 390.502C799.833 390.397 799.685 390.252 799.599 390.137C798.798 389.059 799.041 384.979 793.847 384.022C792.805 386.78 790.953 386.727 789.753 389.903Z" fill="#FFDA18"/>
<path fill-rule="evenodd" clip-rule="evenodd" d="M291.477 315.05L291.062 319.202C285.339 318.631 282.94 317.574 280.924 320.056C278.122 323.507 278.62 327.102 277.961 328.866C277.005 331.425 275.961 329.943 275.721 332.347C275.583 333.733 277.24 338.791 280.144 340.182C287.248 343.585 284.132 341.08 286.893 346.12C288.164 348.439 288.558 347.643 289.935 349.36C291.305 351.068 290.924 352.08 291.897 353.481C292.931 354.97 300.428 357.873 301.224 357.952C303.262 358.156 304.597 354.858 307.23 350.518C310.958 344.369 310.483 348.017 315.732 346.122C315.848 338.998 314.867 341.075 310.866 338.647L310.691 334.809C310.703 334.665 310.725 334.464 310.742 334.324C310.757 334.187 310.777 333.985 310.795 333.85C311.13 331.437 311.311 331.376 312.41 329.698C314.606 326.346 316.461 323.376 319.401 323.426C319.835 326.742 320.414 329.415 322.332 330.569C327.669 333.78 332.971 333.458 334.176 333.723C335.919 334.106 336.904 334.607 337.751 334.523C339.139 334.387 342.359 332.272 343.157 331.385C336.225 327.18 334.19 330.19 332.004 323.318C331.406 321.434 330.925 320.48 330.015 318.584L327.747 314.076C325.91 310.097 320.958 306.495 317.029 305.019C313.972 306.814 314.246 309.607 305.514 311.181L298.209 312.379C292.736 314.227 291.77 312.107 291.477 315.05Z" fill="#A4A46C"/>
<path fill-rule="evenodd" clip-rule="evenodd" d="M231.495 246.659C230.717 254.45 232.764 249.654 236.015 257.593C234.003 260.024 231.471 261.9 228.448 263.127C228.382 267.26 230.327 267.223 227.462 270.406C224.461 273.742 224.576 272.165 223.464 278.015C222.505 283.069 221.672 282.187 219.755 285.916C216.971 291.33 219.066 289.089 213.74 291.013C214.64 293.208 214.827 294.047 216.09 296.088C219.682 301.897 221.563 296.311 224.762 303.001C225.839 305.253 225.819 306.218 228.265 307.137C228.658 303.932 229.867 302.624 230.414 299.663L236.664 300.287C237.545 297.709 238.42 297.538 239.301 294.959C242.435 295.342 241.992 295.927 245.482 296.275C246.222 292.274 247.988 291.554 253.744 290.809C254.827 279.961 256.823 293.54 254.473 280.69C254.105 278.685 254.28 278.408 254.5 276.208C255.987 276.016 256.228 275.968 257.728 275.482C260.417 274.612 261.665 272.987 264.654 269.943C270.335 264.159 266.228 268.311 269.615 262.012C270.809 259.793 270.536 262.235 271.019 258.289C268.286 257.785 267.338 257.068 265.24 256.009C256.002 251.345 258.373 254.931 249.001 253.996C243.948 253.492 243.066 251.61 239.484 250.95C239.595 244.063 231.864 242.963 231.495 246.659Z" fill="#D0D0B9"/>
<path fill-rule="evenodd" clip-rule="evenodd" d="M143.06 191.016C145.132 194.516 145.893 190.735 145.216 197.521C152.091 198.206 151.516 197.657 150.984 202.987C154.332 203.605 154.41 205.13 155.432 207.624C160.268 206.999 163.247 206.635 161.898 220.15C164.857 219.767 164.098 219.403 168.159 219.235C187.382 218.439 179.675 227.956 190.696 232.951C196.777 235.706 195.228 232.559 197.116 232.747C199.732 233.008 198.384 233.333 201.214 233.855C203.456 227.291 200.672 233.627 201.142 227.558C203.381 226.749 205.42 226.326 207.669 225.414C207.747 224.628 207.942 223.491 207.834 222.737C207.504 220.454 207.116 221.462 205.893 219.234C204.88 217.388 205.366 218.844 205.024 216.764C199.739 217.447 197.909 217.772 198.424 212.611L192.105 212.679C187.036 203.229 185.015 208.195 181.109 201.941C181.031 201.817 180.951 201.622 180.867 201.502L179.876 200.404C175.583 196.555 177.757 198.704 174.416 194.05C172.429 191.282 171.363 190.759 174.332 185.618L176.321 181.056C171.899 177.422 174.95 177.928 166.977 176.528C161.334 175.538 162.478 176.133 157.986 178.917C156.48 179.851 155.355 180.194 154.438 181.583C151.681 185.759 156.888 183.622 147.058 188.122C144.645 189.225 144.66 189.083 143.06 191.016Z" fill="#D0D0B9"/>
<path fill-rule="evenodd" clip-rule="evenodd" d="M201.274 108.283L200.221 110.946L206.696 117.21C203.52 122.412 204.487 120.484 205.449 122.677C209.394 122.038 214.818 111.839 214.736 122.095C214.686 128.481 215.394 131.472 217.358 137.756C222.596 154.512 233.761 150.407 239.149 150.497C240.108 140.885 244.162 142.212 241.735 132.497C240.865 129.014 241.381 120.622 240.653 116.217C239.95 111.967 236.564 108.572 235.23 98.3917C237.021 97.6121 236.584 97.828 239.466 98.1155L239.742 95.3481C234.083 94.3054 220.991 90.7377 216.238 94.6786C214.007 96.5272 213.677 102.729 212.249 105.344C210.264 108.98 206.322 106.461 201.274 108.283Z" fill="#FFDA18"/>
<path fill-rule="evenodd" clip-rule="evenodd" d="M207.427 299.679C207.382 302.39 207.873 301.545 207.638 304.592C205.094 304.396 203.629 304.83 201.812 305.263C198.078 306.151 198.885 305.606 198.003 309.163C196.176 316.531 192.856 312.134 191.951 321.198C191.153 329.196 197.596 331.003 194.185 340.988L199.741 341.542C196.355 347.086 197.495 349.986 197.454 350.399C197.194 353.005 196.867 351.662 196.345 354.482C198.721 354.719 202.296 354.434 203.193 354.685C204.877 355.158 205.53 356.827 207.946 357.735C213.653 349.169 210.504 359.05 216.426 347.104C217.131 345.683 217.316 345.016 218.032 343.627C219.52 340.742 223.954 336.969 226.825 337.255C228.701 337.442 228.707 337.777 230.229 338.293C231.387 336.555 232.332 335.465 233.49 333.727C229.035 333.283 221.086 332.546 218.892 329.74C217.139 327.497 216.926 323.982 217.231 320.923C219.313 320.586 222.095 319.008 223.828 318.088C223.94 318.18 232.579 327.975 236.167 322.242C236.559 321.617 237.549 318.498 237.926 317.396C234.247 316.947 233.205 315.511 230.791 313.68C218.096 304.051 226.397 306.34 220.84 302.725C218.113 300.951 217.402 302.384 215.08 299.794C214.864 299.553 215.732 296.307 207.427 299.679Z" fill="#FFDA18"/>
<path fill-rule="evenodd" clip-rule="evenodd" d="M313.427 334.012C313.142 336.87 313.045 337.818 317.18 338.579C317.121 342.23 318.043 343.987 317.603 348.405C311.389 348.302 311.086 349.181 308.27 353.343C303.327 360.648 304.497 359.62 304.707 370.362C304.855 377.931 305.013 371.039 313.03 377.559C314.555 378.799 316.577 379.769 316.371 381.827C316.03 385.249 313.408 385.724 319.43 386.325C324.357 386.816 327.408 385.266 331.514 384.735C332.363 377.796 336.132 381.214 332.276 374.55C331.135 372.577 331.008 374.075 331.69 371.093C333.175 364.595 335.368 361.926 342.196 362.039C341.908 359.842 341.508 359.947 341.221 357.749C345.221 352.916 346.743 356.171 343.253 343.376C342.173 339.418 341.109 338.829 343.5 334.915C340.798 335.352 339.83 337.045 336.917 336.999C333.841 336.95 328.789 335.194 325.712 334.164C320.608 332.455 319.11 333.809 318.285 327.508C315.686 327.929 313.707 331.203 313.427 334.012Z" fill="#D0D0B9"/>
<path fill-rule="evenodd" clip-rule="evenodd" d="M161.883 327.284C162.108 329.001 162.332 330.133 162.857 331.574L169.867 331.445C171.444 344.865 170.59 335.605 174.282 340.692C175.289 342.08 175.692 350.039 175.509 352.404C181.419 352.502 180.281 351.486 181.208 358.563C185.033 358.627 187.821 357.216 191.834 357.526C192.888 359.492 194.394 361.512 195.448 363.477C202.085 363.172 203.358 362.44 204.364 369.555C204.855 373.03 206.01 374.106 208.234 375.934C208.593 375.789 210.495 374.869 210.587 374.836C211.395 374.543 211.636 373.195 214.832 375.577C214.959 375.671 215.105 375.814 215.228 375.913C215.349 376.011 215.49 376.157 215.609 376.256C215.727 376.354 215.868 376.498 215.986 376.595C217.034 377.457 217.455 377.656 218.514 378.357L222.475 375.417C221.91 372.015 221.222 372.381 219.86 369.632C214.881 359.583 217.638 365.895 219.197 357.46C214.697 357.011 215.432 356.386 210.932 355.937C209.97 358.751 209.259 359.219 206.975 360.434L203.046 356.01C198.427 358.268 200.058 356.383 194.124 355.658C194.878 349.502 197.025 354.039 194.259 347.285C194.982 346.412 195.338 346.23 195.932 345.442C196.702 344.421 196.879 343.768 197.52 342.719C189.424 341.911 192.688 341.93 193.141 337.39C193.507 333.724 191.076 327.584 190.195 324.537C188.637 319.155 193.051 316.047 187.362 310.956C186.805 313.969 182.34 316.909 179.791 318.814C173.411 323.58 172.037 321.639 169.197 323.769C166.779 325.583 166.669 327.364 161.883 327.284Z" fill="#D0D0B9"/>
<path fill-rule="evenodd" clip-rule="evenodd" d="M204.547 228.596C205.105 232.849 205.208 230.626 203.362 234.101C201.766 237.105 202.858 237.991 199.344 238.56L198.654 245.48C195.663 245.181 187.702 243.696 185.668 249.076L189.018 251.43C190.583 252.925 190.716 252.458 190.672 255.166C187.29 255.713 189.522 256.383 186.854 256.646C185.319 256.797 184.204 255.919 181.505 255.65C180.668 257.863 180.27 257.828 178.381 258.832C178.654 260.916 178.865 261.014 178.593 263.745C185.466 262.632 175.814 259.301 193.178 265.2L195.55 283.607C196.771 280.033 196.075 279.556 200.131 279.87C200.971 271.453 202.865 273.154 207.073 273.574C207.985 271.162 211.177 267.674 212.764 265.755C220.849 268.502 220.025 270.564 224.851 271.154C225.783 268.691 225.729 269.777 227.28 267.902C226.544 262.28 224.747 264.162 227.889 261.659C229.557 260.33 231.508 259.718 234.011 256.693C231.718 254.81 230.845 253.465 229.701 250.672C222.569 249.961 224.166 249.828 218.127 248.01C214.365 246.876 214.027 250.663 209.283 251.431C208.699 249.829 207.097 241.692 207.826 239.583C208.962 236.295 214.427 236.346 213.158 226.66C208.995 226.59 208.71 228.666 204.547 228.596Z" fill="#D0D0B9"/>
<path fill-rule="evenodd" clip-rule="evenodd" d="M93.6722 293.924C93.598 298.498 95.0187 294.487 94.2323 302.366C94.0369 304.325 91.986 304.644 90.4147 305.48C91.0238 309.201 91.788 305.771 91.3199 310.462C91.1584 312.08 89.684 312.373 88.7529 315.098C87.0331 314.927 85.3227 314.379 84.6061 314.353C83.1853 314.301 83.0303 314.771 81.0437 315.028C85.2341 325.257 73.3483 326.84 90.2194 328.522C92.3502 328.735 93.3924 327.114 94.0371 325.409L96.1206 325.616C95.8399 328.429 95.667 327.821 96.4013 329.838C99.9776 328.547 105.618 328.383 109.318 330.107C111.548 331.147 111.112 330.676 111.474 333.438C113.314 333.468 115.074 332.817 115.884 331.821C119.086 327.88 112.518 329.456 127.928 323.199C127.85 322.6 127.483 319.758 127.22 319.326C126.05 317.399 125.892 319.138 124.003 316.864C122.462 315.01 124.13 315.239 121.87 313.518C120.468 312.451 119.509 312.716 117.851 311.711C120.075 301.675 121.01 302.299 113.898 299.679C108.413 297.657 112.032 297.578 108.927 293.562C105.776 289.486 103.505 290.014 99.0173 289.566C98.5003 293.786 97.3646 293.447 93.6722 293.924Z" fill="#D0D0B9"/>
<path fill-rule="evenodd" clip-rule="evenodd" d="M113.249 285.88C112.28 295.585 109.404 293.861 119.081 297.651C124.052 299.597 121.239 305.096 120.763 308.993C126.153 309.985 123.138 311.236 126.767 314.267C127.486 314.867 126.988 314.186 128.036 315.139C131.664 318.436 130.091 328.088 133.971 331.275C135.825 329.035 135.121 328.952 136.714 326.853C137.06 326.398 137.538 326.032 138.065 325.394C150.998 326.684 149.046 324.392 157.72 325.257C157.985 321.823 157.252 319.571 156.383 316.813L156.074 315.794C156.009 315.586 155.841 314.974 155.769 314.771L153.979 310.51C149.815 299.525 151.134 307.408 143.446 299.394L138.553 296.393C133.1 294.687 132.014 294.422 126.868 288.122C125.181 286.055 123.959 284.17 121.998 282.56C119.011 284.149 116.405 284.598 113.249 285.88Z" fill="#D0D0B9"/>
<path fill-rule="evenodd" clip-rule="evenodd" d="M64.4357 304.074C59.7619 302.317 59.8069 294.707 52.3483 298.675C53.3466 302.601 56.5426 300.768 56.5884 305.388C53.7691 307.294 54.1703 304.047 50.2684 305.457C50.9818 307.886 51.5496 305.788 53.7504 307.696C59.3324 312.534 55.0972 316.592 54.6511 317.774C55.4027 319.176 56.8738 320.822 57.281 322.621C58.3596 327.387 55.9119 327.683 62.7131 328.361C65.2534 328.615 64.3999 326.638 67.8517 326.079C70.7577 328.679 71.7502 335.306 72.3715 337.012L76.539 337.428C77.1464 335.651 77.3741 335.457 78.2734 334.106C80.6657 334.919 80.4868 335.026 83.7609 335.353C84.4779 333.255 84.8479 333.437 85.564 331.34L81.3974 330.924C83.8191 326.958 79.1471 327.356 79.0494 322.055C79.005 319.653 80.1504 319.257 80.2867 317.539C80.4043 316.05 79.3271 314.824 79.025 312.517C82.6454 311.047 82.4898 311.465 87.4977 311.965L90.0226 308.038C89.1416 306.428 88.61 305.827 88.3263 303.661C90.1555 301.451 90.2157 301.682 92.8394 300.617C92.8838 297.85 92.0962 296.326 92.1407 293.559C80.6262 294.088 87.2733 292.593 80.5404 290.306C78.0604 297.564 76.6376 294.57 72.3578 296.643C68.475 298.524 68.8135 301.745 64.4357 304.074Z" fill="#D0D0B9"/>
<path fill-rule="evenodd" clip-rule="evenodd" d="M396.791 377.268L397.29 393.388C397.328 396.887 402.538 402.243 406.537 408.094C408.965 411.645 407.897 413.591 407.233 420.24L415.796 422.792C417.331 423.642 416.892 423.109 417.307 424.739L418.695 424.878C420.151 421.025 420.835 424.519 421.331 419.549C422.1 411.849 417.341 415.846 423.895 407.925C422.955 405.632 422.22 404.829 423.753 402.32C421.032 402.274 421.881 402.764 418.821 402.527C419.523 398.734 421.136 400.418 421.527 396.507C421.853 393.237 420.462 393.608 419.995 390.764L427.006 383.776C427.439 379.438 423.777 378.782 423.042 374.295L413.427 374.152C409.77 373.979 411.269 373.89 409.377 374.686C406.814 375.764 406.505 376.439 403.531 376.996C401.395 377.395 399.179 377.453 396.791 377.268Z" fill="#FFDA18"/>
<path fill-rule="evenodd" clip-rule="evenodd" d="M403.563 428.958C402.304 428.194 399.978 427.358 398.145 427.02C393.205 432.991 392.923 433.552 384.051 434.7C385.159 435.871 384.819 435.725 386.691 436.361C386.267 440.601 386.714 441.863 382.666 441.55C384.256 451.254 394.691 457.109 396.979 452.761L400.452 453.107C401.495 461.072 405.434 460.67 408.027 461.55C411.438 456.43 412.547 457.842 421.844 456.639C421.899 453.277 420.956 454.14 419.55 451.517C420.386 449.305 420.785 449.34 422.673 448.335L419.052 439.779C417.674 435.612 418.351 438.293 415.446 437.996L411.207 436.709L412.036 428.405C413.798 427.468 412.843 427.641 414.952 427.299L415.228 424.531C412.813 423.711 409.296 422.542 406.337 422.247C405.103 424.266 404.797 426.939 403.563 428.958Z" fill="#FFDA18"/>
<path fill-rule="evenodd" clip-rule="evenodd" d="M100.001 193.71C100.19 195.156 102.837 202.918 105.463 203.876C108.22 204.882 113.872 202.795 115.15 210.596C118.84 210.964 119.402 210.551 122.165 210.596C122.796 211.773 123.328 212.796 124.417 213.845C127.214 216.54 129.04 214.958 134.037 217.443C136.135 218.487 135.926 219.063 138.075 219.871L140.231 217.839C139.27 204.664 149.749 209.621 148.481 199.943C138.281 198.926 142.479 196.55 138.339 196.137C136.775 195.981 134.738 198.791 129.862 189.7C121.203 193.216 123.297 191.561 114.273 188.428C112.99 187.983 110.988 187.387 110.009 186.82C107.483 185.357 109.622 185.231 106.524 184.577C102.928 190.464 107.408 190.702 100.001 193.71Z" fill="#FFDA18"/>
<path fill-rule="evenodd" clip-rule="evenodd" d="M322.363 160.193C323.449 149.314 319.919 146.307 329.351 137.657C331.891 135.327 334.187 133.378 337.251 131.753C348.466 125.807 342.755 126.176 354.982 122.291C362.857 119.789 364.459 115.269 375.17 115.82C379.411 116.038 388.989 116.448 392.528 113.628C394.876 111.759 394.531 111.594 394.146 108.65C391.016 108.598 389.679 109.649 387.538 109.8C380.507 110.293 370.387 109.423 362.738 110.003C359.934 110.216 357.551 110.303 355.435 111.203L337.942 121.729C336.209 123.281 335.404 125.122 333.267 126.179C330.219 127.689 332.249 126.238 330.147 126.635C327.322 127.168 320.959 133.457 319.432 134.122C316.415 135.438 311.336 132.531 314.108 149.762C314.868 154.486 318.191 157.433 322.363 160.193Z" fill="#D0D0B9"/>
<path fill-rule="evenodd" clip-rule="evenodd" d="M236.339 326.323C233.875 326.078 231.074 325.494 228.793 324.849C223.867 323.456 227.073 321.905 222.793 321.478C221.124 321.311 220.64 322.396 219.113 323.207C221.599 329.274 218.647 327.737 225.984 330.348C233.415 332.992 239.509 328.192 233.604 337.738C229.898 343.727 229.727 340.497 226.624 339.331C221.066 342.287 217.147 348.904 215.311 354.276C216.551 354.697 219.434 355.583 220.247 356.024C223.675 357.88 221.354 356.984 221.01 360.435C220.746 363.081 220.772 360.666 221.497 362.58C225.646 362.044 223.752 362.417 225.153 358.493C227.469 352.008 232.599 356.031 235.384 356.977C235.425 354.408 230.982 344.657 238.642 345.421L250.104 350.059C251.068 347.508 251.636 348.45 252.671 345.423C249.05 345.062 248.595 344.274 245.863 343.347C247.202 336.103 263.519 329.926 249.343 322.712C246.581 321.305 243.21 318.898 239.946 318.297C239.437 321.052 237.598 324.435 236.339 326.323Z" fill="#D0D0B9"/>
<path fill-rule="evenodd" clip-rule="evenodd" d="M134.63 148.945C136.648 153.873 135.474 152.544 142.899 157.456C136.524 167.026 140.874 163.794 129.775 162.438C129.798 161.023 129.605 159.245 129.312 157.73C128.831 155.228 128.82 155.253 126.948 153.921C123.4 151.398 122.317 152.342 118.102 152.888C118.661 157.151 119.984 160.929 119.568 166.312C121.015 165.789 122.151 165.566 123.874 165.343C126.325 169.913 125.864 168.337 135.405 169.289C136.141 173.78 137.921 170.045 136.242 174.963L140.409 175.378L144.166 186.935C146.315 186.657 148.539 185.702 150.057 184.792C156.13 181.154 147.037 183.912 158.375 176.292C160.293 175.002 161.536 174.226 164.368 174.274C162.912 170.717 161.655 170.427 160.197 166.869C155.638 167.608 161.518 168.399 152.419 167.491C149.931 167.243 146.444 154.556 145.136 150.548C143.598 145.84 144.408 145.727 139.905 145.278C137.959 145.084 135.608 147.761 134.63 148.945Z" fill="#A4A46C"/>
<path fill-rule="evenodd" clip-rule="evenodd" d="M778.387 307.006C780.596 311.125 785.175 309.264 784.503 316.002C784.144 319.601 780.401 315.816 784.73 324.716C786.034 327.398 785.673 327.156 787.531 329.424C792.49 335.479 790.104 332.743 796.044 336.466C802.477 340.497 804.493 347.691 809.019 353.218C811.853 356.677 813.1 359.97 814.799 361.853C816.536 363.777 817.776 363.688 819.279 365.192C821.978 367.892 823.695 380.396 834.201 387.348C834.297 381.353 828.183 376.953 837.145 379.206C840.029 379.931 839.812 379.973 841.975 379.738C840.367 377.022 836.545 376.374 833.078 374.916C822.607 370.508 823.297 370.653 820.384 361.112C817.487 351.622 813.976 348.692 824.871 347.283L825.009 345.899C822.054 344.894 815.205 339.499 812.081 337.372L805.64 333.09C798.398 327.807 796.609 328.187 794.242 322.68C792.82 319.371 789.947 317.688 786.87 314.072C786.777 313.963 786.643 313.806 786.552 313.695C786.462 313.584 786.334 313.422 786.245 313.309C784.325 310.857 780.94 304.655 778.387 307.006Z" fill="#FFDA18"/>
<path fill-rule="evenodd" clip-rule="evenodd" d="M248.081 340.559C249.897 341.177 249.313 341.16 251.077 341.93C252.486 342.546 253.563 342.902 254.819 343.328L254.543 346.096C252.531 346.602 252.631 346.548 252.114 349.348C260.845 350.218 261.952 351.486 263.212 351.628C268.654 352.247 259.552 348.773 279.207 353.325C280.925 353.723 284.183 354.498 285.029 354.406C286.549 354.242 288.958 352.592 289.758 351.705C287.968 347.335 287.142 348.498 285.496 345.645C279.719 335.626 278.87 344.612 275.26 334.923C273.151 329.264 275.387 330.052 274.048 326.377C271.867 326.926 272.348 327.27 269.603 328.729C266.257 325.979 267.368 324.313 260.989 323.677C253.958 322.976 257.938 329.019 255.273 333.016C253.409 335.811 249.693 335.841 248.081 340.559Z" fill="#A4A46C"/>
<path fill-rule="evenodd" clip-rule="evenodd" d="M70.2843 338.415C70.7707 342.127 72.4832 342.22 72.8993 346.453C73.2025 349.535 72.7416 348.087 73.6776 350.904L77.4845 363.69C78.7172 366.02 81.1315 367.785 82.5262 370.385L89.053 368.24C88.2366 365.029 89.1594 368.599 88.1164 366.462C87.5595 365.321 87.5656 366.103 87.3148 364.573C87.4906 364.421 87.9848 364.058 88.101 363.977C95.1689 359.094 90.6446 360.535 91.0596 355.162C93.2733 355.2 93.313 354.947 95.8478 354.861C96.3315 354.844 97.5353 354.838 97.6918 354.782C98.4588 354.511 98.3172 355.002 98.7605 353.67C100.37 348.835 95.7756 353.057 101.819 345.753C98.6841 343.85 100.143 345.936 97.721 344.646L98.8949 332.882C97.1832 331.877 97.5894 332.255 95.4219 332.536C94.7213 330.611 94.8623 331.732 95.0731 329.007L92.9893 328.799C92.3257 330.061 93.4253 330.22 87.9682 329.672C84.3247 329.307 84.6367 328.655 83.6146 331.358L88.4768 331.843C87.8726 335.113 85.3723 336.124 84.2443 339.108L78.7891 337.746C78.15 339.639 77.9223 339.833 77.023 341.183C73.8322 339.248 73.7523 341.264 70.2843 338.415Z" fill="#FFDA18"/>
<path fill-rule="evenodd" clip-rule="evenodd" d="M157.322 244.852C155.931 248.924 154.918 247.449 149.12 249.615L139.686 252.877C140.047 254.296 139.872 253.656 140.486 254.767C141.002 255.704 141.227 256.118 142.013 256.701C143.357 257.698 145.711 258.216 147.537 258.552C146.274 271.204 148.145 265.422 149.003 271.977C152.437 271.532 154.836 270.504 157.683 269.348L160.135 271.808C161.473 270.278 160.454 270.852 162.476 270.525L163.028 264.989C164.358 264.489 163.95 264.542 165.876 264.574L166.635 256.962C169.918 257.017 170.208 255.921 173.719 256.271C175.976 256.496 174.183 256.923 177.054 258.001L181.831 253.723C183.201 254.081 183.707 254.611 185.388 254.86C187.761 255.211 185.714 254.742 188.649 254.266C188.005 253.065 184.728 249.707 183.43 248.353C181.556 246.398 179.154 245.007 177.114 243.332C173.851 243.86 176.424 244.285 172.798 244.286C170.765 244.286 168.708 243.605 166.687 243.834C163.814 244.16 164.282 245.258 162.475 245.699C160.286 246.233 160.338 245.221 157.322 244.852Z" fill="#D0D0B9"/>
<path fill-rule="evenodd" clip-rule="evenodd" d="M171.03 283.257C166.971 282.852 166.108 283.465 162.626 283.118C164.015 285.464 165.007 284.753 168.739 285.125C170.331 289.013 169.672 288.712 174.644 289.208C174.372 292.741 176.655 295.462 179.165 300.142C179.458 299.986 183.413 296.062 186.165 300.79C187.039 302.291 186.502 303.207 187.22 305.015C188.256 307.629 187.929 305.593 189.549 308.2C190.183 309.22 191.039 311.2 191.257 312.529C193.389 312.184 192.061 312.59 193.565 311.459L195.583 309.258C197.083 307.233 197.518 306.016 197.849 302.704C199.769 302.456 199.998 302.133 201.63 301.873C203.258 301.614 204.292 301.571 205.696 301.39C205.317 298.498 205.339 298.525 202.568 297.584C203.367 293.264 205.088 296.073 206.037 290.942C203.271 290.727 199.11 292.183 195.342 292.67C192.318 285.287 193.598 286.367 192.556 278.415C187.57 277.918 188.611 276.535 186.353 275.965C184.835 275.582 181.977 276.827 180.06 277.175C168.438 279.286 171.479 277.446 171.03 283.257Z" fill="#FFDA18"/>
<path fill-rule="evenodd" clip-rule="evenodd" d="M42.3564 309.073C42.0005 312.638 38.6219 310.098 35.2732 309.764C33.4721 309.584 31.7509 312.102 28.677 312.6C26.2561 310.433 28.3009 310.019 24.8544 308.725C24.2922 314.357 24.9708 316.084 26.0276 319.845C30.4571 335.616 23.0595 340.017 30.6124 342.965C31.8116 343.433 31.0119 344.525 32.6218 343.213C34.7572 341.47 30.6678 343.087 29.8015 336.473C31.5771 334.502 29.4655 335.312 32.7181 335.366L32.33 331.157C35.237 330.783 36.6272 330.754 38.2702 328.931C36.3179 327.747 31.2888 328.603 32.1538 319.935C37.8586 319.197 32.8302 320.218 37.7465 322.358C40.7551 323.667 44.5754 321.984 43.4124 333.637C43.2474 335.291 43.0169 336.363 42.5425 337.235C41.5072 339.138 41.7695 338.866 39.3869 338.827C39.7117 334.626 40.0393 336.843 38.2741 335.92C37.1791 337.564 34.7437 340.819 34.1111 342.493C39.5246 341.793 38.3588 339.394 41.544 345.331C47.8142 342.785 43.8882 342.591 48.1872 338.673C49.2666 337.689 48.2154 338.944 49.3179 337.721C45.568 332.445 48.999 332.288 50.2157 328.725L55.7722 329.279C56.6276 320.708 52.7175 324.742 53.3351 318.554C53.5859 316.04 54.4013 316.209 55.2079 313.849C53.5549 312.491 53.1573 312.446 52.7744 310.112C51.1015 310.328 50.6594 310.552 48.5382 310.388C47.8908 305.447 50.4252 305.684 42.7707 304.921L42.3564 309.073Z" fill="#FFDA18"/>
<path fill-rule="evenodd" clip-rule="evenodd" d="M50.5631 337.632C48.5968 339.814 47.683 338.373 47.232 342.891C46.9784 345.433 50.0743 346.44 50.0143 350.157L47.9308 349.95C47.8872 352.66 48.3776 351.814 48.1416 354.862C49.7821 355.165 56.636 360.276 61.0823 362.752C64.8609 364.857 63.5433 366.018 71.6544 362.525C76.5823 360.402 75.3715 360.03 73.0551 353.616C69.0465 342.518 72.0211 336.279 62.7152 335.35L62.9223 333.275C58.6091 332.748 59.7913 331.47 57.0168 329.191C49.6277 330.148 49.3243 328.179 50.5631 337.632Z" fill="#FFDA18"/>
<path fill-rule="evenodd" clip-rule="evenodd" d="M423.751 395.331C423.549 397.351 422.459 398.826 421.809 400.729C423.832 399.998 423.224 400.17 426.046 400.452C424.587 408.342 424.929 401.324 425.911 408.824C424.117 410.369 422.593 410.83 422.658 414.566C422.688 416.261 423.661 421.044 422.791 422.823C422.455 423.512 420.866 424.768 420.247 425.209L417.872 426.977C413.954 430.172 412.644 429.313 412.313 432.627C412.043 435.331 411.991 432.905 413.052 434.567L414.746 436.364C417.605 435.532 414.698 435.901 417.134 434.615C419.894 433.157 421.885 434.946 424.532 434.27C428.646 433.221 424.426 431.218 429.833 427.575C431.302 426.586 432.066 426.36 433.664 425.243C433.782 425.161 433.947 425.038 434.063 424.953C439.323 421.139 437.147 421.394 439.349 418.194C440.417 416.639 441.586 416.249 442.861 414.708C441.28 410.85 438.628 404.708 437.521 400.627C435.012 391.373 441.83 396.435 425.209 394.778C424.926 393.051 425.346 393.91 424.408 392.252C423.221 390.154 424.072 391.001 422.15 390.28C422.341 391.733 423.753 395.31 423.751 395.331Z" fill="#A4A46C"/>
<path fill-rule="evenodd" clip-rule="evenodd" d="M152.733 227.622C155.404 232.131 158.88 229.307 160.304 229.076C162.71 233.561 164.93 231.926 164.268 238.556C167.696 239.188 165.101 238.299 167.179 239.999C170.205 242.474 166.038 241.049 170.283 241.995C174.269 242.884 174.492 241.035 177.396 240.565C178.626 241.378 182.701 244.823 183.555 245.095C186.731 246.101 188.704 242.391 191.218 242.642L196.774 243.196C197.679 234.132 197.295 240.03 198.923 235.723C193.542 235.307 197.136 237.924 191.207 235.719C188.324 234.647 186.05 233.902 184.391 231.682C178.24 223.447 181.857 222.141 169.537 220.912C167.5 220.709 157.998 224.505 156.663 225.421C154.523 226.891 155.454 227.182 152.733 227.622Z" fill="#D0D0B9"/>
<path fill-rule="evenodd" clip-rule="evenodd" d="M153.954 308.323C156.147 310.286 159.466 322.103 159.936 325.692C165.763 324.938 163.357 326.281 167.291 323.003C170.626 320.223 174.506 321.006 177.51 318.369L185.972 310.818C184.446 299.174 182.859 301.75 178.953 303.829C177.255 302.433 177.553 303.335 177.146 300.852L175.062 300.645C174.23 302.377 173.074 303.002 170.481 304.381C163.663 299.871 167.356 299.876 158.393 298.982C154.583 298.602 156.305 304.565 155.651 306.39C155.052 308.061 156.216 305.891 154.974 307.339C151.847 310.982 155.796 304.822 153.954 308.323Z" fill="#FFDA18"/>
<path fill-rule="evenodd" clip-rule="evenodd" d="M96.6645 191.98C106.606 192.146 98.2023 183.562 114.503 174.891C113.93 170.507 111.493 166.336 117.416 166.795C118.055 160.391 118.511 160.4 115.95 153.371C112.956 153.758 112.004 153.649 110.208 155.694C108.466 157.677 108.518 159.511 105.67 160.259C98.8765 162.043 104.199 156.43 95.8101 167.66C91.6136 173.279 90.6172 171.857 92.8212 179.219L96.6645 191.98Z" fill="#A4A46C"/>
<path fill-rule="evenodd" clip-rule="evenodd" d="M117.968 168.248L115.884 168.04C115.43 172.594 116.79 174.248 114.579 176.486C112.567 178.524 110.595 179.943 108.878 182.017C110.721 185.454 111.255 185.762 115.387 186.532C122 187.766 120.31 188.556 123.536 189.768C124.286 189.24 124.983 188.656 126.098 188.23C131.345 186.227 132.202 188.978 134.058 191.389C138.795 197.545 134.488 188.966 143.889 196.691C143.925 194.489 145.007 195.375 140.206 191.431C145.281 185.297 139.383 184.86 139.503 177.385C137.178 176.594 137.035 176.034 134.641 176.9C134.882 174.488 135.541 172.853 134.334 171.385C132.258 168.858 124.582 173.033 123.662 167.418C120.222 167.361 120.98 168.548 117.968 168.248Z" fill="#D0D0B9"/>
<path fill-rule="evenodd" clip-rule="evenodd" d="M87.961 265.188C86.3679 281.15 84.6118 274.981 79.1506 283.178C80.9862 287.66 81.4106 287.974 85.3042 290.29C85.4474 290.375 85.6144 290.49 85.7572 290.572C88.4056 292.077 86.7032 291.885 92.2903 290.646C96.9355 289.617 96.7703 289.372 97.1396 285.672C100.185 285.907 99.8167 285.239 104.849 285.741C107.44 286 106.103 288.264 110.823 289.133C111.32 284.158 110.892 284.717 106.382 278.771C105.987 278.25 105.505 277.72 105.213 277.181C104.356 275.594 105.063 276.976 104.506 275.215C103.892 273.272 104.775 273.801 102.801 272.156C100.845 270.524 101.339 272.422 99.721 269.582C99.5573 269.295 99.3557 268.6 99.1723 268.123C99.0957 267.924 98.9142 267.324 98.8286 267.132C97.4815 264.103 97.1387 266.365 96.6405 262.56C91.3122 262.028 91.8974 263.59 87.961 265.188Z" fill="#D0D0B9"/>
<path fill-rule="evenodd" clip-rule="evenodd" d="M82.9234 210.177C82.2299 217.126 81.7624 216.912 87.8479 217.037C94.7096 217.176 97.2538 212.867 98.2074 218.69C112.424 220.108 108.834 218.536 114.316 211.911C110.474 204.748 110.639 205.953 103.061 205.197C99.1177 197.845 99.3857 194.835 94.4427 193.156C91.7346 194.597 88.7386 196.649 87.1666 199.821C86.4241 201.32 83.0274 209.135 82.9234 210.177Z" fill="#D0D0B9"/>
<path fill-rule="evenodd" clip-rule="evenodd" d="M66.6214 368.099C67.205 371.661 68.9463 375.231 72.8761 375.711C71.9301 385.191 69.6752 376.59 66.1462 386.92C61.5741 386.464 59.191 386.633 55.6583 386.573C55.1659 390.597 53.9801 388.909 55.1938 391.996L58.1061 397.29L58.38 408.509C62.5021 408.92 64.3982 408.479 67.4776 408.717C69.1989 403.679 68.9396 401.101 69.5537 394.948C70.4402 386.065 67.8934 394.997 74.5431 386.276C77.9616 381.792 76.0603 378.951 76.6943 372.598C79.0636 371.338 77.2944 371.51 80.3052 371.56C79.8475 368.768 77.3241 366.383 75.3702 364.779C73.3634 365.038 68.7514 367.234 66.6214 368.099Z" fill="#D0D0B9"/>
<path fill-rule="evenodd" clip-rule="evenodd" d="M126.851 269.068C126.475 272.83 126.707 274.199 126.718 276.901C126.747 284.073 121.853 279.399 126.798 285.001C127.823 286.163 128.335 286.819 129.33 288.022C132.715 292.118 140.813 298.222 145.705 295.18C147.291 294.194 147.447 293.779 149.019 292.943C148.531 289.218 148.912 286.981 149.36 282.494C147.629 281.072 145.111 278.828 142.63 278.627C140.385 278.444 141.167 279.552 139.68 278.766C137.578 277.655 139.76 276.297 132.783 269.932C129.904 267.305 127.083 266.735 126.851 269.068Z" fill="#D0D0B9"/>
<path fill-rule="evenodd" clip-rule="evenodd" d="M99.1835 342.481L104.74 343.036C99.8918 350.313 99.7648 346.716 100.787 354.522C97.7662 354.471 96.2399 355.394 93.0091 355.144C93.2804 357.213 93.9025 358.469 94.6093 360.195C93.482 360.796 90.1182 362.992 89.3334 363.862C90.4161 364.498 94.8413 364.732 97.5502 365.416C101.017 366.292 102.916 366.614 107.254 367.047C107.035 365.38 106.81 364.939 106.974 362.826C109.179 362.54 109.073 362.143 111.279 361.858C111.724 357.403 111.206 355.557 111.689 350.718C109.325 349.154 107.484 347.449 105.921 345.251C106.695 342.987 107.285 343.055 108.077 340.839C108.937 338.433 108.083 337.65 108.347 335.009C108.44 334.073 109.135 334.7 110.012 332.38C108.067 328.754 108.182 329.403 101.953 328.781C98.2802 328.415 100.602 331.754 100.635 334.324C100.667 336.843 99.5364 338.946 99.1835 342.481Z" fill="#D0D0B9"/>
<path fill-rule="evenodd" clip-rule="evenodd" d="M195.894 288.745C195.246 295.239 199.79 289.833 207.632 290.615L207.149 295.458C206.88 298.151 207.803 295.581 205.618 297.476C205.526 297.556 205.291 297.697 205.213 297.759C205.134 297.821 204.925 297.923 204.789 298.019C207.955 298.072 210.522 297.174 212.705 296.012C212.418 293.815 212.019 293.92 211.731 291.722C214.96 290.411 216.058 290.246 218.072 287.025C221.932 280.857 221.785 282.354 222.417 276.016C222.658 273.604 216.072 270.304 213.94 269.58C210.315 271.709 209.764 275.91 207.075 276.795C202.95 278.151 204.036 274.151 201.999 279.843C201.982 279.89 201.418 281.347 201.366 281.432L197.353 285.088C196.489 286.423 196.065 287.028 195.894 288.745Z" fill="#FFDA18"/>
<path fill-rule="evenodd" clip-rule="evenodd" d="M116.409 226.095C114.518 226.064 118.028 225.886 116.409 226.095C115.998 230.215 116.441 233.833 117.484 236.707C118.873 240.532 118.045 239.858 116.765 243.602C120.334 242.314 129.344 243.88 131.986 241.173C132.878 240.258 133.555 238.121 134.263 236.961C132.208 235.602 132.062 236.144 131.132 233.763C130.35 231.759 130.319 230.124 130.753 228.787C133.3 220.939 135.528 222.763 136.408 222.5C133.056 216.25 127.497 219.196 123.291 215.394C123.165 215.28 119.339 209.452 114.96 214.245C114.636 214.599 112.176 218.042 112.061 218.39C110.88 221.971 113.679 219.433 116.409 226.095Z" fill="#D0D0B9"/>
<path fill-rule="evenodd" clip-rule="evenodd" d="M111.078 253.031C115.795 259.667 114.306 259.207 118.709 260.794C122.759 262.254 118.804 260.355 121.988 263.205C125.044 263.256 124.608 262.046 126.929 263.583C129.175 265.07 126.926 265.466 130.81 266.182C132.164 262.599 136.329 261.297 138.585 258.571C138.13 255.095 135.409 252.529 133.413 248.803C132.197 246.529 132.843 246.117 130.035 245.837C125.918 245.427 121.691 246.114 118.542 246.594C113.479 247.364 116.414 247.374 112.832 251.286C112.072 252.117 111.94 251.99 111.078 253.031Z" fill="#D0D0B9"/>
<path fill-rule="evenodd" clip-rule="evenodd" d="M756.564 399.172C750.099 398.527 760.612 394.603 744.252 400.486C735.172 403.751 739.882 411.228 744.028 416.418C744.031 416.421 744.845 419.224 748.444 418.073L756.515 411.529C758.722 408.629 759.309 406.503 763.051 402.411C764.615 400.701 765.258 399.923 766.495 398.066C763.2 398.011 759.399 399.455 756.564 399.172Z" fill="#A4A46C"/>
<path fill-rule="evenodd" clip-rule="evenodd" d="M157.004 283.256C149.183 282.476 150.176 282.626 150.576 289.824C150.955 296.654 147.701 295.133 144.998 298.132C146.551 300.755 149.937 302.818 154.307 303.254C154.543 300.198 153.936 299.949 154.304 296.265C163.553 295.068 162.937 294.32 170.696 300.695L175.422 297.135C170.845 289.242 174.66 290.608 168.259 289.969C168.015 288.108 167.831 287.873 167.215 286.371L161.659 285.817C160.422 282.421 162 283.483 159.364 280.696C157.3 281.216 158.009 280.522 157.004 283.256Z" fill="#D0D0B9"/>
<path fill-rule="evenodd" clip-rule="evenodd" d="M106.024 273.979C105.859 275.632 110.723 282.057 112.766 283.736L123.571 279.675C124.078 275.829 123.93 273.758 123.938 270.721C123.953 264.882 126.018 267.725 127.34 264.224C125.358 263.537 126.331 264.213 125.395 262.632C116.811 265.731 120.963 260.792 117.198 260.417C114.766 260.174 110.29 262.504 109.439 264.167C108.509 265.986 108.985 268.07 108.509 270.019C107.344 274.785 106.407 270.142 106.024 273.979Z" fill="#FFDA18"/>
<path fill-rule="evenodd" clip-rule="evenodd" d="M142.452 218.211C139.509 219.776 138.222 222.48 136.9 224.646L139.352 227.106C142.92 225.112 140.257 224.98 146.623 225.615C150.591 226.011 150.098 227.683 153.466 225.442C155.538 224.063 156.469 222.659 159.54 222.711C161.339 204.686 157.683 210.645 155.852 210.462C153.636 210.241 152.409 207.787 152.099 205.895C148.728 205.634 150.046 205.325 148.014 207.13C147.018 208.015 148.228 207.23 146.581 208.491C145.881 209.026 145.452 209.05 144.512 209.855C140.186 213.565 142.306 217.091 142.452 218.211Z" fill="#D0D0B9"/>
<path fill-rule="evenodd" clip-rule="evenodd" d="M67.0284 221.87C69.2302 223.327 70.9689 223.205 70.5054 229.205L77.4515 229.898C76.8363 237.852 74.5679 236.599 80.2332 237.164C84.081 237.548 82.621 232.929 87.6627 233.013C87.8673 220.315 93.2313 228.991 91.891 218.758C84.8468 219.67 86.5856 217.924 83.355 218.56C81.7626 218.874 78.7991 220.981 73.2376 216.807C71.8969 215.8 73.3594 216.11 71.1922 215.296C70.0258 218.382 68.2269 218.362 67.0284 221.87Z" fill="#FFDA18"/>
<path fill-rule="evenodd" clip-rule="evenodd" d="M69.814 244.724C69.4317 248.555 71.5008 248.911 71.0002 253.927C78.06 255.227 75.4859 256.983 79.3859 259.167C81.0099 260.077 82.4527 260.1 83.9796 261.142C85.4787 262.163 85.9411 263.401 87.4668 264.655C90.5564 264.255 89.0532 263.697 91.8413 262.994C91.9003 259.357 90.0345 259.501 88.4223 256.884C85.1029 251.495 91.0147 255.553 82.7433 243.08C81.0347 240.503 79.3348 240.082 75.229 239.673C73.4552 244.864 70.0313 242.546 69.814 244.724Z" fill="#D0D0B9"/>
<path fill-rule="evenodd" clip-rule="evenodd" d="M2.74569 277.169C2.4473 280.159 3.9964 276.769 4.13111 284.303C4.14975 285.326 4.06013 285.062 4.20928 286.147C4.59963 288.986 5.22583 287.463 4.76824 292.048C10.6913 294.06 8.56763 291.924 15.342 295.503C17.0824 296.423 17.738 297.046 18.7699 298.48C21.3337 302.043 18.9437 299.654 19.8458 302.636L22.745 301.49C22.2163 300.197 22.1907 299.529 21.8545 298.449C20.8013 295.065 17.5638 297.38 18.31 289.904C18.6472 286.525 19.8226 288.808 20.7353 279.663C19.6087 279.455 3.28923 271.723 2.74569 277.169Z" fill="#FFDA18"/>
<path fill-rule="evenodd" clip-rule="evenodd" d="M131.295 266.716C136.103 269.897 137.917 271.302 140.121 276.681C143.527 276.241 143.203 276.087 146.152 278.103C150.97 281.397 154.397 284.234 157.983 277.358L158.622 274.82C158.617 274.785 157.496 271.465 157.481 271.424C148.313 275.147 148.329 275.795 146.363 269.049C145.669 266.671 146.341 263.556 146.64 260.559C140.84 258.588 142.377 255.942 136.295 261.937C136.192 262.038 136.048 262.185 135.944 262.287L131.295 266.716Z" fill="#FFDA18"/>
<path fill-rule="evenodd" clip-rule="evenodd" d="M132.877 245.422C135.946 247.943 135.669 249.942 138.507 252.273C142.513 251.755 147.805 248.615 151.493 248.677C151.548 245.235 149.164 243.163 147.356 240.609C146.414 239.278 146.185 238.229 144.525 237.195C141.034 235.02 139.92 236.668 142.106 230.269C137.631 229.822 136.137 229.966 135.506 226.117L134.117 225.978C133.575 231.407 130.402 232.195 134.009 236.262C138.26 241.055 135.524 237.674 132.877 245.422Z" fill="#FFDA18"/>
<path fill-rule="evenodd" clip-rule="evenodd" d="M89.2558 231.075C90.955 231.653 94.5043 233.695 95.2997 233.775C97.9788 234.042 101.372 230.187 104.744 230.524C108.092 230.857 108.696 234.153 112.863 231.093C116.32 228.554 114.961 226.052 112.832 223.928C110.549 221.651 111.926 223.765 110.641 220.629C106.602 221.151 104.848 220.452 101.824 220.291C94.1765 219.887 99.0654 218.495 94.1101 217.582C92.6773 231.939 90.8466 222.474 89.2558 231.075Z" fill="#D0D0B9"/>
<path fill-rule="evenodd" clip-rule="evenodd" d="M98.6359 237.115C97.9643 243.845 99.939 239.032 101.948 248.399C102.267 249.882 101.912 248.708 102.6 250.41C103.15 251.769 102.992 251.182 103.437 252.27C110.425 252.387 112.153 250.255 113.859 246.327C116.518 240.2 117.474 243.113 114.331 234.487C111.304 234.977 112.978 235.75 110.72 235.525C107.864 235.24 105.386 233.849 103.991 233.906C102.902 233.95 98.734 236.133 98.6359 237.115Z" fill="#D0D0B9"/>
<path fill-rule="evenodd" clip-rule="evenodd" d="M91.702 255.778C94.5119 262.638 95.6032 258.377 99.0526 263.769C100.604 266.194 101.03 270.685 104.907 271.072C108.132 271.394 107.541 265.761 107.888 262.285C111.606 261.682 110.072 259.981 113.79 259.379C112.991 257.427 110.353 253.184 108.924 251.905C97.3057 253.408 106.052 252.599 99.964 250.312C99.428 251.73 98.1837 253.408 97.0925 254.578C94.9614 256.862 95.75 256.181 91.702 255.778Z" fill="#D0D0B9"/>
<path fill-rule="evenodd" clip-rule="evenodd" d="M68.4357 256.952C68.2152 259.162 68.4334 258.551 69.1481 260.185L69.6128 261.078C71.0579 263.926 72.1303 265.327 76.6369 266.157C77.1023 269.708 77.4003 276.429 77.3395 280.204L79.4231 280.412C81.2304 275.63 85.2326 278.434 86.292 267.818C86.5377 265.357 85.7054 264.327 84.5701 262.866C80.9353 258.185 84.0941 263.671 75.3076 256.434C73.746 255.148 72.148 254.303 70.1705 253.631C69.619 254.459 68.5527 255.78 68.4357 256.952Z" fill="#FFDA18"/>
<path fill-rule="evenodd" clip-rule="evenodd" d="M82.8746 240.435C84.2542 243.007 86.7805 244.894 87.942 247.109C90.6448 252.264 85.3309 255.356 93.2315 256.144C95.3924 256.359 99.2652 251.919 99.7551 247.011C100.02 244.358 96.6348 244.925 97.2494 236.977C87.1476 234.748 91.4069 235.411 88.4725 236.384C85.6977 237.304 85.9123 236.763 82.8746 240.435Z" fill="#D0D0B9"/>
<path fill-rule="evenodd" clip-rule="evenodd" d="M168.581 260.165L168.028 265.701C173.928 267.705 176.878 267.035 176.716 277.05C178.829 277.213 179.261 277.061 180.922 276.673C192.107 274.058 185.313 277.057 192.066 277.882C192.501 273.519 192.105 271.581 191.643 268.056C179.725 264.007 183.608 266.294 178.496 267.75C178.142 267.851 177.624 267.774 176.919 267.985C177.155 264.929 176.548 264.68 176.916 260.996C174.106 260.479 174.694 259.821 172.942 259.677C171.086 259.524 171.092 260.206 168.581 260.165Z" fill="#D0D0B9"/>
<path fill-rule="evenodd" clip-rule="evenodd" d="M153.089 245.129C156.388 244.595 155.727 241.898 157.601 242.085C160.659 242.39 159.488 243.501 161.482 243.291C163.575 243.07 161.398 241.868 166.006 242.225C164.857 240.083 164.782 239.947 162.114 239.041C163.128 230.758 163.794 238.501 159.401 231.083C157.673 232.041 156.353 233.379 151.456 229.933C148.975 228.188 149.895 227.339 145.786 226.929C142.759 226.627 144.31 227.418 143.956 228.506C141.854 234.95 143.262 231.72 146.894 234.922C147.436 235.4 152.723 242.899 153.089 245.129Z" fill="#D0D0B9"/>
<path fill-rule="evenodd" clip-rule="evenodd" d="M615.057 102.031C610.832 101.609 610.06 100.833 606.096 100.438C605.191 109.505 606.037 110.276 610.063 111.823C614.258 113.435 614.1 114.423 618.962 109.111C620.674 107.24 622.343 106.655 623.254 104.245C621.013 100.462 616.505 103.217 617.068 95.9409L614.984 95.7331C614.742 98.8695 615.404 98.5523 615.057 102.031Z" fill="#D0D0B9"/>
<path fill-rule="evenodd" clip-rule="evenodd" d="M475.035 85.2697C474.263 93.0061 470.292 98.0748 486.225 99.6639C487.356 88.3308 490.226 83.3047 475.035 85.2697Z" fill="#D0D0B9"/>
<path fill-rule="evenodd" clip-rule="evenodd" d="M164.279 268.122L163.727 273.658C162.22 274.27 161.985 274.454 160.115 274.696C160.531 277.228 160.913 275.819 160.721 277.444C160.622 278.285 160.048 278.812 159.563 280.231L162.235 283.138C164.975 282.9 165.396 282.91 169.08 283.277C168.808 281.198 168.154 280.285 170.021 279.057C170.662 278.635 174.331 277.723 175.258 277.603C175.412 268.043 171.282 268.091 164.279 268.122Z" fill="#D0D0B9"/>
<path fill-rule="evenodd" clip-rule="evenodd" d="M488.039 109.629C490.819 109.675 490.695 109.214 494.772 107.735C497.31 106.814 499.543 106.321 501.788 105.41C501.405 102.484 500.226 101.001 499.77 97.5209C496.661 97.9419 495.047 99.1374 495.115 94.96C490.412 94.491 491.6 97.0784 490.488 100.97C489.672 103.826 488.545 106.892 488.039 109.629Z" fill="#D0D0B9"/>
<path fill-rule="evenodd" clip-rule="evenodd" d="M33.2263 342.989C33.147 346.452 37.4041 353.236 38.907 356.038C40.6801 355.75 44.3643 354.015 46.1976 353.27C46.2437 350.403 45.6574 351.656 45.9176 349.049C46.2191 346.028 47.534 348.597 45.7067 344.136C43.974 344.839 42.714 345.458 40.637 345.727C39.7786 344.126 39.5635 343.207 38.2045 341.99L33.2263 342.989Z" fill="#D0D0B9"/>
<path fill-rule="evenodd" clip-rule="evenodd" d="M40.9222 358.547C42.9156 362.265 43.5902 362.124 43.4975 367.889C51.4441 366.861 44.8153 366.623 56.1376 367.752C56.7447 365.975 56.9721 365.782 57.8715 364.431C55.0519 363.473 51.9663 361.15 49.9581 359.434C45.1616 355.332 46.2458 357.859 40.9222 358.547Z" fill="#D0D0B9"/>
<path fill-rule="evenodd" clip-rule="evenodd" d="M43.4378 136.568C44.8732 139.243 46.2109 141.57 47.8639 144.401C49.4392 147.099 51.0572 149.623 52.4066 152.139C54.0992 151.919 55.9716 151.757 57.4064 151.24C57.6459 148.134 56.4922 142.856 55.6635 140.583C54.0658 141.432 53.4622 141.962 51.289 142.243C48.9276 137.84 48.8707 135.066 43.4378 136.568Z" fill="#D0D0B9"/>
<path fill-rule="evenodd" clip-rule="evenodd" d="M473.156 82.9868C474.761 82.7793 475.636 82.4944 476.955 82.1773C485.221 80.1927 478.002 73.4449 477.385 68.7326C474.287 69.2342 472.969 71.5614 471.907 74.5082C469.754 80.4816 471.033 79.0286 473.156 82.9868Z" fill="#D0D0B9"/>
<path fill-rule="evenodd" clip-rule="evenodd" d="M54.8289 379.289C54.7397 384.834 55.5597 382.856 64.9021 383.788C67.8879 375.048 67.4871 380.632 71.2875 376.038C68.7286 374.486 68.6253 375.672 68.0218 373.616C64.5627 373.558 67.1551 373.297 64.4672 374.723C63.4318 375.272 62.4629 375.77 61.3086 376.311C60.1353 376.861 59.3596 377.198 58.1112 377.851C56.0073 378.952 57.3359 378.883 54.8289 379.289Z" fill="#FFDA18"/>
<path fill-rule="evenodd" clip-rule="evenodd" d="M39.7929 327.686C39.1335 331.253 37.6009 331.637 34.4477 332.045C34.2837 334.158 34.5093 334.6 34.7276 336.267C32.7956 336.964 33.9212 336.824 31.1855 336.612C31.617 339.246 31.7982 337.576 32.2296 340.21C34.7592 339.8 37.5548 335.774 38.5454 333.153L39.9347 333.291C40.3111 336.16 39.9124 335.393 41.742 336.267C41.9476 334.208 42.1112 332.411 42.1784 330.376C42.1878 330.095 42.2222 328.707 42.2115 328.545C41.8367 323.153 39.4849 324.408 37.5905 323.761C34.7467 322.79 35.5439 322.471 33.4683 320.766C33.2624 323.437 33.3505 323.867 34.601 325.563C36.4026 328.009 35.9259 327.3 39.7929 327.686Z" fill="#D0D0B9"/>
<path fill-rule="evenodd" clip-rule="evenodd" d="M55.9237 369.828C53.4958 369.381 52.8465 368.544 49.7803 368.497C46.3898 368.445 47.431 369.398 44.0477 369.343C45.0956 372.219 42.9442 374.231 50.3357 375.706C56.7146 376.978 51.7319 373.066 55.9237 369.828Z" fill="#D0D0B9"/>
<path fill-rule="evenodd" clip-rule="evenodd" d="M52.8772 379.307C57.0244 379.376 62.3714 374.233 66.0687 373.635L66.2759 371.559C63.4887 371.281 58.3227 369.98 56.6116 371.437C54.8053 372.975 56.0292 373.293 55.081 375.781C54.0284 378.542 54.0672 376.158 52.8772 379.307Z" fill="#D0D0B9"/>
<path fill-rule="evenodd" clip-rule="evenodd" d="M631.442 92.4824C635.856 96.2374 632.711 92.609 642.555 93.5908C643.342 91.2877 644.293 89.596 644.634 86.8096L634.081 90.2624C631.651 91.2586 632.22 90.8633 631.442 92.4824Z" fill="#D0D0B9"/>
<path fill-rule="evenodd" clip-rule="evenodd" d="M743.08 21.1538C742.709 24.8742 743.324 27.7999 747.183 29.2492C748.032 24.6555 748.751 27.584 749.745 17.625C747.75 17.8835 747.762 18.0544 746.166 18.7008L744.326 19.5648C742.895 20.6537 743.343 18.519 743.08 21.1538Z" fill="#D0D0B9"/>
<path fill-rule="evenodd" clip-rule="evenodd" d="M371.952 42.8416C373.697 46.0957 374.628 45.0414 383.064 43.9499C383.932 39.2536 385.125 39.04 379.8 40.6885C377.184 41.4984 374.252 42.011 371.952 42.8416Z" fill="#D0D0B9"/>
<path fill-rule="evenodd" clip-rule="evenodd" d="M136.444 158.908C133.955 158.45 133.22 157.716 131.026 156.97C131.244 158.637 131.47 159.078 131.306 161.191L138.251 161.884C138.968 159.787 139.338 159.968 140.055 157.871C138.588 156.9 138.078 156.508 136.789 155.449L136.444 158.908Z" fill="#D0D0B9"/>
<path fill-rule="evenodd" clip-rule="evenodd" d="M629.379 120.23C629.119 122.836 629.706 121.584 629.659 124.451C630.713 124.28 636.817 121.905 637.921 118.986C635.315 118.726 629.593 118.089 629.379 120.23Z" fill="#D0D0B9"/>
<path fill-rule="evenodd" clip-rule="evenodd" d="M70.2877 338.415C70.3427 335.031 68.6762 333.145 67.5754 330.457C65.1535 330.77 63.3002 331.365 60.4917 331.148L60.3535 332.532C63.0888 332.744 61.9635 332.884 63.8955 332.186C65.3605 336.208 63.0183 333.727 66.8706 335.481C70.68 337.214 67.573 335.986 70.2877 338.415Z" fill="#FFDA18"/>
<path fill-rule="evenodd" clip-rule="evenodd" d="M619.85 96.2179C619.59 98.8264 623.719 100.428 625.616 101.684C625.955 98.2883 625.767 96.9583 624.918 94.627C623.345 94.6015 619.995 94.7714 619.85 96.2179Z" fill="#D0D0B9"/>
<path fill-rule="evenodd" clip-rule="evenodd" d="M393.067 49.14C398.004 49.6325 396.512 49.8217 398.691 49.0027C398.667 46.5187 398.479 46.8016 396.485 45.7174C395.05 44.9369 393.858 44.4713 392.162 44.1591C392.127 46.2978 392.488 47.5509 393.067 49.14Z" fill="#D0D0B9"/>
<path fill-rule="evenodd" clip-rule="evenodd" d="M406.609 53.986L406.402 56.0616C410.935 56.8961 406.342 57.5012 412.652 56.6849L412.997 53.2255C410.01 53.1754 409.597 54.0359 406.609 53.986Z" fill="#D0D0B9"/>
<path fill-rule="evenodd" clip-rule="evenodd" d="M372.715 35.2303L372.577 36.6142C376.057 36.9613 375.397 36.9188 377.3 38.4832L381.082 37.0071C378.843 36.0275 377.111 34.2714 375.631 34.1237C373.983 33.9594 376.586 34.4974 372.715 35.2303Z" fill="#D0D0B9"/>
<path fill-rule="evenodd" clip-rule="evenodd" d="M57.4558 368.582C57.738 368.634 59.1212 368.977 59.1444 368.98C62.1459 369.415 60.4856 368.493 65.0256 370.036C63.884 367.907 62.1889 366.518 59.121 365.953C57.8512 367.488 58.2088 366.59 57.4558 368.582Z" fill="#D0D0B9"/>
<path fill-rule="evenodd" clip-rule="evenodd" d="M399.043 52.5325C398.88 54.645 399.105 55.0864 399.323 56.7533L403.284 53.8126C401.589 52.3647 401.419 51.8757 399.043 52.5325Z" fill="#D0D0B9"/>
<path fill-rule="evenodd" clip-rule="evenodd" d="M396.597 41.8075L396.459 43.1908C399.468 43.4909 399.841 43.8625 402.084 43.0531C400.871 40.2918 400.381 41.7899 396.597 41.8075Z" fill="#D0D0B9"/>
<path fill-rule="evenodd" clip-rule="evenodd" d="M392.444 55.3682C393.774 54.8689 393.367 54.9216 395.292 54.9537L395.499 52.8778L392.721 52.6007L392.444 55.3682Z" fill="#D0D0B9"/>
<path fill-rule="evenodd" clip-rule="evenodd" d="M1.99405 291.77C3.06129 290.021 2.70143 291.092 3.03348 288.379L1.64431 288.241C0.592312 291.321 -0.098503 289.898 1.99405 291.77Z" fill="#D0D0B9"/>
<path fill-rule="evenodd" clip-rule="evenodd" d="M57.4539 368.582L56.6897 369.206L57.4539 368.582Z" fill="#D0D0B9"/>
</svg>
