<svg width="65" height="58" viewBox="0 0 65 58" fill="none" xmlns="http://www.w3.org/2000/svg">
<path d="M14.5947 9.0401L14.6233 9.01635C14.7399 8.91943 14.8903 8.87281 15.0413 8.88674C15.1922 8.90067 15.3315 8.97401 15.4284 9.09063L16.5722 10.4669L15.6642 11.2215L14.5204 9.84522C14.4235 9.7286 14.3769 9.57826 14.3908 9.42727C14.4048 9.27629 14.4781 9.13701 14.5947 9.0401Z" fill="#F2BF08" stroke="#F2BF08" stroke-width="0.4"/>
<path d="M19.6831 9.33539L18.5145 9.53564L18.211 7.76437C18.1853 7.61428 18.2202 7.46012 18.3082 7.33581C18.3961 7.2115 18.5298 7.12721 18.6799 7.10149L18.7167 7.09519C18.8668 7.06947 19.021 7.10443 19.1453 7.19237C19.2696 7.28031 19.3539 7.41403 19.3796 7.56412L19.6831 9.33539Z" fill="#F2BF08" stroke="#F2BF08" stroke-width="0.4"/>
<path d="M24.9213 19.9093C24.8953 19.8803 24.8707 19.8508 24.8467 19.8225C24.8245 19.7949 24.8011 19.768 24.7782 19.7423C23.4575 20.7324 21.9414 21.4306 20.3305 21.7907C19.9574 21.8735 19.58 21.9359 19.2002 21.9777C19.254 22.3337 19.3083 22.7147 19.3589 23.1116C19.7367 23.0687 20.1137 23.0068 20.4898 22.9259C22.3225 22.5308 24.0458 21.7371 25.5373 20.6012C25.318 20.3608 25.1143 20.1304 24.9213 19.9093ZM24.9213 19.9093L24.8417 19.8185C24.8195 19.7909 24.7961 19.764 24.7733 19.7383C23.4525 20.7284 21.9364 21.4266 20.3255 21.7867C19.9524 21.8695 19.5751 21.9319 19.1952 21.9737C19.249 22.3297 19.3033 22.7107 19.3539 23.1076C19.7317 23.0647 20.1087 23.0028 20.4848 22.9219C22.3175 22.5268 24.0408 21.7332 25.5323 20.5972C25.318 20.3608 25.1143 20.1304 24.9213 19.9093ZM30.4105 23.6757L30.3495 23.5228L30.3033 23.5897C30.0875 23.9036 29.8536 24.2047 29.6028 24.4914C28.4899 25.7327 27.1345 26.7329 25.6202 27.4303C24.106 28.1277 22.4649 28.5076 20.7982 28.5464C20.4173 28.5506 20.0365 28.5327 19.6577 28.4926C19.6568 28.5386 19.656 28.5846 19.6533 28.63C19.6328 29.2688 19.5823 29.9074 19.5011 30.5239C19.7944 30.9317 20.1183 31.3412 20.46 31.7345C21.7776 33.2631 23.4203 34.708 25.034 35.9602C27.1018 37.5541 29.2775 39.0028 31.5455 40.2959C32.0371 37.7318 32.3505 35.1367 32.4833 32.5294C32.5807 30.4892 32.5504 28.3016 32.2454 26.3067C32.1636 25.7874 32.0709 25.2855 31.9486 24.7911C31.4274 24.4521 30.9125 24.0755 30.4105 23.6757ZM30.7067 38.4744C29.6831 37.8443 28.2093 36.8991 26.643 35.7432C28.3256 35.3858 29.9072 34.6573 31.2725 33.611C31.1329 35.5526 30.8949 37.2909 30.7067 38.4744ZM30.9341 25.496C30.9691 25.6608 31.0027 25.8294 31.0336 26.0025C31.0435 26.0546 31.0526 26.1086 31.0618 26.1626C31.0844 26.2938 31.1057 26.4288 31.1256 26.5644C31.1456 26.6999 31.1654 26.8387 31.1827 26.9787C31.1999 27.1187 31.2153 27.2375 31.2296 27.371C31.2298 27.3826 31.2309 27.3942 31.233 27.4056C31.2512 27.5546 31.2633 27.6969 31.2771 27.8432L31.2955 28.0676C31.3086 28.219 31.319 28.3715 31.3282 28.5246C31.3373 28.6778 31.3452 28.8315 31.3518 28.9859C31.3583 29.1402 31.3659 29.3035 31.3696 29.4654L31.3765 29.7093C31.3779 29.8661 31.3833 30.0383 31.3849 30.2059C31.3854 30.289 31.3866 30.3735 31.3864 30.4585L31.3859 30.7137C31.3856 30.8838 31.3858 31.0552 31.3802 31.2309L31.3743 31.4948C31.3699 31.6699 31.3642 31.8488 31.3572 32.0283C29.7188 33.5704 27.6221 34.536 25.3853 34.7787C25.2443 34.6674 25.1059 34.5549 24.9688 34.4449L24.7643 34.2779C24.6298 34.1667 24.5036 34.0533 24.3676 33.946L24.1734 33.7805C23.917 33.5587 23.6691 33.3393 23.4296 33.1223C23.1901 32.9052 22.9598 32.6887 22.7386 32.4727C22.6592 32.396 22.5817 32.32 22.5055 32.2433C22.4887 32.2274 22.4733 32.211 22.4578 32.1945C22.3344 32.0735 22.2155 31.952 22.1004 31.8319L22.0454 31.7739C21.9792 31.7052 21.9142 31.636 21.8493 31.5668C21.7844 31.4975 21.7207 31.4277 21.6571 31.3579C21.5619 31.2538 21.4694 31.1485 21.3793 31.0452C21.2893 30.9419 21.2018 30.8374 21.1155 30.7355C21.0804 30.6935 21.0453 30.6514 21.0121 30.61C20.9007 30.4741 20.7944 30.3389 20.6919 30.2052C20.6919 30.2052 20.6889 30.1987 20.6871 30.1948C20.6614 30.1594 20.6325 30.124 20.6067 30.0886C20.554 30.0185 20.5012 29.9484 20.4517 29.8784C20.4021 29.8083 20.3531 29.7428 20.306 29.6748C20.4478 29.6787 20.591 29.682 20.7337 29.6808C22.5868 29.6523 24.4135 29.237 26.0969 28.4618C27.7802 27.6865 29.2832 26.5682 30.5094 25.1786C30.603 25.0709 30.6936 24.96 30.7828 24.8496C30.8039 24.9296 30.8237 25.0102 30.8428 25.0927C30.8619 25.1752 30.8828 25.2615 30.9018 25.3472C30.9119 25.3897 30.9201 25.4347 30.9302 25.4773C30.9324 25.4889 30.9336 25.4915 30.9341 25.496ZM23.1365 22.0374C23.9857 21.647 24.7892 21.164 25.5323 20.5972C25.837 20.3635 26.1291 20.1173 26.4085 19.8585C26.1392 19.5608 25.8856 19.2732 25.65 19.0009C25.3714 19.2624 25.0787 19.5086 24.7733 19.7383C23.4525 20.7284 21.9364 21.4266 20.3255 21.7867C19.9524 21.8695 19.5751 21.9319 19.1952 21.9737C19.249 22.3297 19.3033 22.7107 19.3539 23.1076C19.7317 23.0647 20.1087 23.0028 20.4848 22.9219C21.3986 22.7256 22.2879 22.4289 23.1365 22.0374ZM19.0067 20.8299C19.0193 20.8572 19.0176 20.891 19.0223 20.9219C19.2912 20.52 19.6158 20.1585 19.9866 19.8483C21.0117 19.0216 22.226 18.4624 23.5205 18.2208C23.9972 18.1404 24.483 18.1286 24.9631 18.1858C24.9427 18.1622 24.9224 18.1385 24.9034 18.1142C25.4301 18.0211 26.0505 17.9195 26.7372 17.8251C26.8998 17.8022 27.0661 17.7806 27.2332 17.754C27.1265 17.693 27.0215 17.636 26.9137 17.5865C26.1869 17.2289 25.3916 17.0322 24.5819 17.0097C23.9993 16.9962 23.4175 17.0599 22.8516 17.1991C21.6991 17.4845 20.611 17.9856 19.645 18.676C19.1726 19.0162 18.7473 19.4173 18.3801 19.8691C17.8722 20.4994 17.5053 21.2313 17.304 22.0154C17.2741 22.1315 17.2531 22.2465 17.2237 22.3671C17.3501 22.2522 17.4746 22.1398 17.6001 22.0364C18.1131 21.5751 18.5936 21.1697 19.0067 20.8299ZM19.5735 25.2551C19.9549 25.2532 20.336 25.2296 20.7147 25.1843C23.0992 24.896 25.3331 23.8671 27.1021 22.2426C27.3827 21.9841 27.6484 21.71 27.8978 21.4213C27.6149 21.1488 27.3533 20.8711 27.0965 20.6007C26.8503 20.8943 26.5854 21.1718 26.3037 21.4316C24.724 22.8705 22.7377 23.7853 20.6174 24.0505C20.2377 24.0966 19.8555 24.1192 19.4731 24.118C19.5093 24.4837 19.5413 24.8608 19.5735 25.2551ZM24.9213 19.9093C24.8953 19.8803 24.8707 19.8508 24.8467 19.8225C24.8226 19.7942 24.7973 19.7666 24.7733 19.7383C23.4525 20.7284 21.9364 21.4266 20.3255 21.7867C19.9524 21.8695 19.5751 21.9319 19.1952 21.9737C19.249 22.3297 19.3033 22.7107 19.3539 23.1076C19.7317 23.0647 20.1087 23.0028 20.4848 22.9219C22.3175 22.5268 24.0408 21.7332 25.5323 20.5972C25.318 20.3608 25.1143 20.1304 24.9213 19.9093Z" fill="#F2BF08" stroke="#F2BF08" stroke-width="0.4"/>
<path d="M26.9112 17.5908L26.7347 17.8295C26.8972 17.8065 27.0635 17.785 27.2307 17.7584C27.129 17.6982 27.0215 17.6391 26.9112 17.5908ZM26.3039 21.4316C24.7242 22.8704 22.7379 23.7852 20.6176 24.0504C20.2379 24.0966 19.8557 24.1192 19.4732 24.118C19.5118 24.4889 19.5463 24.8711 19.576 25.2603C19.9575 25.2584 20.3385 25.2347 20.7173 25.1894C23.1017 24.9012 25.3357 23.8723 27.1046 22.2477C27.3853 21.9893 27.6509 21.7151 27.9003 21.4265C27.6174 21.1539 27.3558 20.8763 27.0991 20.6058C26.8519 20.8977 26.5863 21.1735 26.3039 21.4316ZM23.1367 22.0373C23.9859 21.647 24.7893 21.164 25.5325 20.5972C25.8372 20.3635 26.1292 20.1173 26.4087 19.8585C26.1394 19.5608 25.8858 19.2732 25.6502 19.0008C25.3715 19.2623 25.0788 19.5085 24.7734 19.7383C23.4526 20.7284 21.9366 21.4266 20.3256 21.7867C19.9525 21.8694 19.5752 21.9319 19.1953 21.9737C19.2492 22.3297 19.3035 22.7107 19.354 23.1075C19.7319 23.0646 20.1089 23.0028 20.4849 22.9219C21.3987 22.7255 22.288 22.4289 23.1367 22.0373ZM17.3042 22.0153C17.2742 22.1314 17.2533 22.2465 17.2238 22.3671C17.3503 22.2522 17.4748 22.1398 17.6002 22.0363L17.3042 22.0153Z" fill="#F2BF08" stroke="#F2BF08" stroke-width="0.4"/>
<path d="M17.4397 9.6677C16.5924 10.0579 15.8798 10.6907 15.3921 11.4859C14.9043 12.2811 14.6634 13.2031 14.6997 14.1353C14.7359 15.0675 15.0478 15.968 15.5959 16.7229C16.1439 17.4778 16.9035 18.0533 17.7786 18.3765C18.6537 18.6997 19.605 18.7562 20.5122 18.5387C21.4194 18.3213 22.2417 17.8397 22.8752 17.1549C23.5087 16.4701 23.9249 15.6128 24.0712 14.6915C24.2175 13.7702 24.0873 12.8261 23.697 11.9788C23.1737 10.8426 22.2205 9.96074 21.047 9.52732C19.8735 9.09391 18.576 9.1444 17.4397 9.6677ZM20.9112 17.2053C20.2693 17.5009 19.5541 17.5996 18.8561 17.4888C18.1581 17.378 17.5087 17.0626 16.9899 16.5827C16.4711 16.1028 16.1063 15.4798 15.9416 14.7926C15.7768 14.1053 15.8196 13.3846 16.0645 12.7217C16.3093 12.0587 16.7453 11.4833 17.3172 11.0681C17.8891 10.6529 18.5713 10.4166 19.2775 10.3891C19.9837 10.3616 20.6821 10.5442 21.2846 10.9137C21.887 11.2832 22.3664 11.823 22.662 12.4649C23.0561 13.326 23.0932 14.3081 22.765 15.1965C22.4369 16.0848 21.7704 16.8071 20.9112 17.2053Z" fill="#F2BF08" stroke="#F2BF08" stroke-width="0.4"/>
<path d="M27.8977 21.4213C27.6483 21.7099 27.3827 21.9841 27.102 22.2425C27.8958 23.0353 28.7305 23.7859 29.6028 24.4914C29.8536 24.2047 30.0874 23.9036 30.3032 23.5897C29.4641 22.9093 28.6612 22.1856 27.8977 21.4213ZM37.628 17.1619C33.5943 15.671 27.5242 16.4759 24.5819 17.0096C23.5172 17.2025 22.856 17.3623 22.856 17.3623C22.856 17.3623 23.0936 17.6903 23.5195 18.229C23.8385 18.6313 24.2575 19.1481 24.7699 19.7413C24.7928 19.767 24.8162 19.794 24.8383 19.8216L24.9179 19.9124C25.1128 20.1373 25.3129 20.3599 25.529 20.6003C25.7724 20.869 26.0295 21.1471 26.298 21.4295C26.5665 21.7118 26.8228 21.9746 27.0988 22.2456C27.8925 23.0384 28.7272 23.789 29.5995 24.4945C29.8979 24.7347 30.2007 24.9661 30.5078 25.1887C30.6477 25.291 30.7878 25.3902 30.9286 25.4874C31.3616 25.7853 31.8004 26.0615 32.2421 26.3098C32.7893 26.6225 33.3606 26.8908 33.9507 27.1122C39.4496 29.1431 41.7381 27.4597 42.7569 24.7072C43.7757 21.9547 43.1236 19.1927 37.6274 17.1606L37.628 17.1619ZM41.6824 24.3114C41.2678 25.4339 40.6727 26.1612 39.8639 26.5337C38.6332 27.1005 36.7781 26.9336 34.3504 26.0359C33.5063 25.711 32.7007 25.2935 31.9486 24.7911C31.4274 24.452 30.9125 24.0755 30.4105 23.6756L30.3495 23.5228L30.3032 23.5897C29.4641 22.9093 28.6612 22.1856 27.8977 21.4213C27.6149 21.1487 27.3532 20.8711 27.0965 20.6007C26.8577 20.3487 26.6271 20.1008 26.4085 19.8585C26.1392 19.5608 25.8856 19.2732 25.65 19.0008C25.3997 18.7101 25.168 18.436 24.9604 18.187C24.9401 18.1633 24.9198 18.1396 24.9007 18.1154C25.4275 18.0223 26.0479 17.9206 26.7346 17.8263C26.8971 17.8033 27.0634 17.7818 27.2306 17.7552C30.2659 17.3722 34.3553 17.1663 37.2273 18.2292C39.5027 19.0696 40.9905 20.0792 41.6293 21.2201C42.1224 22.0961 42.1383 23.077 41.6824 24.3114Z" fill="#F2BF08" stroke="#F2BF08" stroke-width="0.4"/>
<path d="M19.3541 23.1076C19.3961 23.4312 19.4346 23.7676 19.4709 24.1128C19.854 24.1158 20.237 24.095 20.6176 24.0505C20.5776 23.6629 20.5334 23.2867 20.4874 22.9271C20.1102 23.0033 19.7324 23.0634 19.3541 23.1076ZM19.5736 25.2551C19.6582 26.3321 19.6863 27.4127 19.6579 28.4926C20.0367 28.5327 20.4175 28.5507 20.7984 28.5464C20.8292 27.425 20.8014 26.3028 20.7149 25.1843C20.3362 25.2296 19.9551 25.2532 19.5736 25.2551ZM19.3541 23.1076C19.3961 23.4312 19.4346 23.7676 19.4709 24.1128C19.5095 24.4837 19.5439 24.866 19.5736 25.2551C19.6582 26.3321 19.6863 27.4127 19.6579 28.4926C20.0367 28.5327 20.4175 28.5507 20.7984 28.5464C20.8292 27.425 20.8014 26.3028 20.7149 25.1843C20.6923 24.7934 20.6533 24.4149 20.6152 24.0453C20.5772 23.6757 20.531 23.2815 20.485 22.9219C20.1094 23.0015 19.7324 23.0634 19.3541 23.1076ZM19.3541 23.1076C19.3961 23.4312 19.4346 23.7676 19.4709 24.1128C19.5095 24.4837 19.5439 24.866 19.5736 25.2551C19.6582 26.3321 19.6863 27.4127 19.6579 28.4926C20.0367 28.5327 20.4175 28.5507 20.7984 28.5464C20.8292 27.425 20.8014 26.3028 20.7149 25.1843C20.6923 24.7934 20.6533 24.4149 20.6152 24.0453C20.5772 23.6757 20.531 23.2815 20.485 22.9219C20.1094 23.0015 19.7324 23.0634 19.3541 23.1076ZM19.3541 23.1076C19.3961 23.4312 19.4346 23.7676 19.4709 24.1128C19.5095 24.4837 19.5439 24.866 19.5736 25.2551C19.6582 26.3321 19.6863 27.4127 19.6579 28.4926C20.0367 28.5327 20.4175 28.5507 20.7984 28.5464C20.8292 27.425 20.8014 26.3028 20.7149 25.1843C20.6923 24.7934 20.6533 24.4149 20.6152 24.0453C20.5772 23.6757 20.531 23.2815 20.485 22.9219C20.1094 23.0015 19.7324 23.0634 19.3541 23.1076ZM18.3785 19.8652C16.0604 21.7542 11.501 25.8462 10.0114 29.8794C7.98045 35.3782 9.66388 37.6667 12.4121 38.6796C15.1603 39.6925 17.9311 39.0459 19.9638 33.5509C20.1792 32.9586 20.3467 32.35 20.4647 31.7309C20.5632 31.2339 20.6385 30.7209 20.6936 30.1982C20.713 30.0319 20.7269 29.8571 20.7401 29.6842C20.7753 29.305 20.7962 28.9246 20.8029 28.5428C20.8338 27.4213 20.806 26.2991 20.7195 25.1806C20.6969 24.7898 20.6579 24.4112 20.6198 24.0416C20.5818 23.672 20.5356 23.2778 20.4896 22.9182C20.4384 22.5201 20.3841 22.1391 20.3303 21.7831C20.2123 21.0144 20.0921 20.3537 19.9938 19.8498C19.8613 19.176 19.7665 18.7822 19.7665 18.7822C19.7665 18.7822 19.2195 19.1867 18.3785 19.8652ZM19.1928 21.9749C19.2466 22.3309 19.3009 22.7119 19.3515 23.1088C19.3935 23.4324 19.432 23.7688 19.4683 24.114C19.5069 24.4849 19.5413 24.8672 19.5711 25.2563C19.6564 26.3328 19.6854 27.4131 19.6579 28.4926C19.657 28.5386 19.6562 28.5846 19.6535 28.63C19.633 29.2688 19.5824 29.9074 19.5013 30.5239C19.3942 31.422 19.1878 32.3055 18.886 33.1582C17.9902 35.5866 16.9112 37.1048 15.6805 37.6716C14.8717 38.0441 13.9322 38.0236 12.8097 37.609C11.5753 37.1531 10.8402 36.5034 10.4949 35.5656C10.043 34.3386 10.2401 32.5593 11.0833 30.2764C12.145 27.4018 14.9545 24.4304 17.2212 22.3715C17.3476 22.2566 17.4721 22.1442 17.5976 22.0408C18.1157 21.5803 18.5962 21.1749 19.0093 20.8351C19.0219 20.8624 19.0202 20.8962 19.0249 20.9271C19.0795 21.2403 19.1372 21.5945 19.1954 21.9737L19.1928 21.9749ZM19.3515 23.1088C19.3935 23.4324 19.432 23.7688 19.4683 24.114C19.5069 24.4849 19.5413 24.8672 19.5711 25.2563C19.6564 26.3328 19.6854 27.4131 19.6579 28.4926C20.0367 28.5327 20.4175 28.5507 20.7984 28.5464C20.8292 27.425 20.8014 26.3028 20.7149 25.1843C20.6923 24.7934 20.6533 24.4149 20.6152 24.0453C20.5772 23.6757 20.531 23.2815 20.485 22.9219C20.1094 23.0015 19.7324 23.0634 19.3541 23.1076L19.3515 23.1088ZM19.3515 23.1088C19.3935 23.4324 19.432 23.7688 19.4683 24.114C19.5069 24.4849 19.5413 24.8672 19.5711 25.2563C19.6564 26.3328 19.6854 27.4131 19.6579 28.4926C20.0367 28.5327 20.4175 28.5507 20.7984 28.5464C20.8292 27.425 20.8014 26.3028 20.7149 25.1843C20.6923 24.7934 20.6533 24.4149 20.6152 24.0453C20.5772 23.6757 20.531 23.2815 20.485 22.9219C20.1094 23.0015 19.7324 23.0634 19.3541 23.1076L19.3515 23.1088ZM19.3515 23.1088C19.3935 23.4324 19.432 23.7688 19.4683 24.114C19.5069 24.4849 19.5413 24.8672 19.5711 25.2563C19.6564 26.3328 19.6854 27.4131 19.6579 28.4926C20.0367 28.5327 20.4175 28.5507 20.7984 28.5464C20.8292 27.425 20.8014 26.3028 20.7149 25.1843C20.6923 24.7934 20.6533 24.4149 20.6152 24.0453C20.5772 23.6757 20.531 23.2815 20.485 22.9219C20.1094 23.0015 19.7324 23.0634 19.3541 23.1076L19.3515 23.1088ZM19.5711 25.2563C19.6564 26.3328 19.6854 27.4131 19.6579 28.4926C20.0367 28.5327 20.4175 28.5507 20.7984 28.5464C20.8292 27.425 20.8014 26.3028 20.7149 25.1843C20.3362 25.2296 19.9551 25.2532 19.5736 25.2551L19.5711 25.2563ZM19.3515 23.1088C19.3935 23.4324 19.432 23.7688 19.4683 24.114C19.8523 24.1167 20.2362 24.0955 20.6176 24.0505C20.5776 23.6629 20.5334 23.2867 20.4874 22.9271C20.1102 23.0033 19.7324 23.0634 19.3541 23.1076L19.3515 23.1088Z" fill="#F2BF08" stroke="#F2BF08" stroke-width="0.4"/>
<path d="M41.9566 31.0128L41.9762 30.9966C42.0558 30.9304 42.1586 30.8985 42.2617 30.908C42.3649 30.9175 42.46 30.9677 42.5262 31.0473L43.3076 31.9876L42.6873 32.5031L41.9059 31.5628C41.8397 31.4832 41.8078 31.3805 41.8174 31.2773C41.8269 31.1742 41.877 31.079 41.9566 31.0128Z" fill="#F2BF08" stroke="#F2BF08" stroke-width="0.6"/>
<path d="M45.4329 31.2145L44.6345 31.3513L44.4271 30.1412C44.4096 30.0387 44.4334 29.9334 44.4935 29.8485C44.5536 29.7635 44.645 29.7059 44.7475 29.6884L44.7726 29.6841C44.8752 29.6665 44.9805 29.6904 45.0654 29.7505C45.1503 29.8105 45.2079 29.9019 45.2255 30.0044L45.4329 31.2145Z" fill="#F2BF08" stroke="#F2BF08" stroke-width="0.6"/>
<path d="M49.0117 38.4385C48.994 38.4187 48.9772 38.3985 48.9608 38.3792C48.9456 38.3604 48.9296 38.3419 48.914 38.3244C48.0117 39.0008 46.9759 39.4779 45.8754 39.7239C45.6205 39.7804 45.3627 39.823 45.1032 39.8516C45.1399 40.0948 45.177 40.3551 45.2116 40.6262C45.4697 40.5969 45.7273 40.5547 45.9842 40.4994C47.2363 40.2295 48.4136 39.6873 49.4326 38.9112C49.2828 38.7469 49.1436 38.5895 49.0117 38.4385ZM49.0117 38.4385L48.9574 38.3765C48.9422 38.3576 48.9262 38.3392 48.9106 38.3217C48.0083 38.9981 46.9725 39.4751 45.872 39.7211C45.6171 39.7777 45.3593 39.8203 45.0998 39.8489C45.1365 40.0921 45.1736 40.3524 45.2082 40.6235C45.4663 40.5942 45.7239 40.5519 45.9808 40.4967C47.2329 40.2268 48.4102 39.6845 49.4292 38.9085C49.2828 38.7469 49.1436 38.5895 49.0117 38.4385ZM52.7619 41.0116L52.7203 40.9072L52.6886 40.9529C52.5412 41.1674 52.3815 41.3731 52.2101 41.5689C51.4498 42.417 50.5238 43.1003 49.4893 43.5767C48.4547 44.0532 47.3336 44.3127 46.1949 44.3393C45.9347 44.3421 45.6745 44.3299 45.4157 44.3025C45.4152 44.3339 45.4146 44.3654 45.4127 44.3963C45.3987 44.8328 45.3642 45.2691 45.3087 45.6902C45.5091 45.9688 45.7304 46.2486 45.9638 46.5173C46.864 47.5616 47.9863 48.5488 49.0888 49.4042C50.5014 50.4932 51.9878 51.4829 53.5373 52.3663C53.8732 50.6146 54.0873 48.8417 54.178 47.0603C54.2446 45.6665 54.2239 44.172 54.0155 42.8091C53.9596 42.4543 53.8963 42.1115 53.8127 41.7737C53.4567 41.542 53.1049 41.2848 52.7619 41.0116ZM52.9642 51.1219C52.265 50.6914 51.258 50.0457 50.188 49.256C51.3375 49.0118 52.4181 48.5142 53.3508 47.7993C53.2554 49.1258 53.0928 50.3134 52.9642 51.1219ZM53.1196 42.2552C53.1436 42.3678 53.1665 42.4831 53.1876 42.6013C53.1944 42.6369 53.2006 42.6738 53.2068 42.7107C53.2223 42.8003 53.2368 42.8925 53.2505 42.9851C53.2641 43.0778 53.2777 43.1726 53.2895 43.2682C53.3012 43.3638 53.3118 43.445 53.3215 43.5362C53.3216 43.5441 53.3224 43.552 53.3238 43.5599C53.3363 43.6616 53.3445 43.7589 53.354 43.8588L53.3665 44.0121C53.3755 44.1155 53.3826 44.2198 53.3889 44.3244C53.3951 44.429 53.4005 44.534 53.405 44.6395C53.4094 44.7449 53.4146 44.8565 53.4172 44.9671L53.4219 45.1337C53.4228 45.2408 53.4265 45.3585 53.4276 45.473C53.428 45.5298 53.4287 45.5875 53.4286 45.6456L53.4283 45.8199C53.4281 45.9361 53.4282 46.0532 53.4244 46.1733L53.4204 46.3536C53.4174 46.4732 53.4135 46.5954 53.4087 46.718C52.2893 47.7715 50.8569 48.4312 49.3287 48.5971C49.2324 48.521 49.1379 48.4441 49.0442 48.369L48.9045 48.2549C48.8126 48.179 48.7264 48.1015 48.6335 48.0282L48.5008 47.9151C48.3256 47.7636 48.1563 47.6137 47.9926 47.4654C47.829 47.3172 47.6717 47.1692 47.5206 47.0217C47.4663 46.9692 47.4134 46.9173 47.3613 46.8649C47.3499 46.8541 47.3393 46.8428 47.3287 46.8316C47.2444 46.7489 47.1632 46.6659 47.0846 46.5839L47.047 46.5442C47.0017 46.4973 46.9574 46.45 46.913 46.4027C46.8686 46.3554 46.8252 46.3077 46.7817 46.26C46.7167 46.1889 46.6535 46.117 46.5919 46.0464C46.5304 45.9758 46.4706 45.9044 46.4117 45.8348C46.3877 45.8061 46.3637 45.7774 46.3411 45.7491C46.265 45.6562 46.1923 45.5639 46.1223 45.4725C46.1223 45.4725 46.1202 45.4681 46.119 45.4654C46.1014 45.4412 46.0817 45.417 46.0641 45.3929C46.0281 45.345 45.992 45.2971 45.9582 45.2492C45.9243 45.2014 45.8908 45.1566 45.8586 45.1101C45.9556 45.1128 46.0534 45.1151 46.1508 45.1143C47.4168 45.0948 48.6648 44.8111 49.8149 44.2814C50.9649 43.7518 51.9917 42.9878 52.8295 42.0384C52.8934 41.9648 52.9553 41.8891 53.0163 41.8137C53.0307 41.8683 53.0442 41.9234 53.0573 41.9797C53.0703 42.0361 53.0846 42.0951 53.0976 42.1536C53.1045 42.1826 53.1101 42.2134 53.117 42.2425C53.1185 42.2504 53.1193 42.2522 53.1196 42.2552ZM47.7924 39.8924C48.3726 39.6257 48.9215 39.2957 49.4292 38.9085C49.6374 38.7488 49.8369 38.5806 50.0278 38.4038C49.8438 38.2004 49.6706 38.0039 49.5096 37.8179C49.3192 37.9965 49.1193 38.1647 48.9106 38.3217C48.0083 38.9981 46.9725 39.4751 45.872 39.7211C45.6171 39.7777 45.3593 39.8203 45.0998 39.8489C45.1365 40.0921 45.1736 40.3524 45.2082 40.6235C45.4663 40.5942 45.7239 40.5519 45.9808 40.4967C46.6051 40.3625 47.2126 40.1599 47.7924 39.8924ZM44.971 39.0674C44.9796 39.0861 44.9784 39.1092 44.9817 39.1303C45.1653 38.8557 45.3871 38.6088 45.6405 38.3968C46.3408 37.8321 47.1703 37.45 48.0547 37.2849C48.3804 37.23 48.7123 37.222 49.0403 37.261C49.0264 37.2449 49.0125 37.2287 48.9995 37.2121C49.3594 37.1485 49.7832 37.0791 50.2524 37.0146C50.3634 36.9989 50.477 36.9842 50.5912 36.966C50.5183 36.9244 50.4466 36.8854 50.3729 36.8516C49.8764 36.6073 49.3331 36.4729 48.7799 36.4575C48.3819 36.4483 47.9844 36.4918 47.5978 36.5869C46.8104 36.7819 46.067 37.1242 45.4071 37.5959C45.0843 37.8283 44.7938 38.1024 44.5429 38.411C44.1959 38.8417 43.9452 39.3417 43.8077 39.8773C43.7873 39.9566 43.773 40.0353 43.7528 40.1176C43.8392 40.0391 43.9243 39.9623 44.01 39.8917C44.3605 39.5765 44.6887 39.2996 44.971 39.0674ZM45.3582 42.0907C45.6188 42.0894 45.8791 42.0732 46.1379 42.0423C47.7669 41.8453 49.2931 41.1424 50.5016 40.0325C50.6934 39.856 50.8749 39.6687 51.0453 39.4715C50.852 39.2853 50.6733 39.0956 50.4979 38.9108C50.3296 39.1114 50.1487 39.301 49.9562 39.4785C48.877 40.4615 47.52 41.0865 46.0714 41.2677C45.812 41.2992 45.5509 41.3146 45.2896 41.3138C45.3144 41.5637 45.3362 41.8213 45.3582 42.0907ZM49.0117 38.4385C48.994 38.4187 48.9772 38.3985 48.9608 38.3792C48.9443 38.3599 48.927 38.341 48.9106 38.3217C48.0083 38.9981 46.9725 39.4751 45.872 39.7211C45.6171 39.7777 45.3593 39.8203 45.0998 39.8489C45.1365 40.0921 45.1736 40.3524 45.2082 40.6235C45.4663 40.5942 45.7239 40.5519 45.9808 40.4967C47.2329 40.2268 48.4102 39.6845 49.4292 38.9085C49.2828 38.7469 49.1436 38.5895 49.0117 38.4385Z" fill="#F2BF08" stroke="#F2BF08" stroke-width="0.6"/>
<path d="M50.3711 36.8546L50.2505 37.0176C50.3616 37.0019 50.4752 36.9872 50.5894 36.969C50.5199 36.9279 50.4465 36.8876 50.3711 36.8546ZM49.9562 39.4785C48.877 40.4615 47.52 41.0865 46.0714 41.2677C45.812 41.2992 45.5509 41.3146 45.2896 41.3138C45.316 41.5672 45.3395 41.8284 45.3598 42.0942C45.6204 42.0929 45.8808 42.0768 46.1395 42.0458C47.7685 41.8489 49.2947 41.146 50.5033 40.0361C50.695 39.8595 50.8765 39.6722 51.0469 39.475C50.8536 39.2888 50.6749 39.0992 50.4995 38.9144C50.3306 39.1138 50.1491 39.3022 49.9562 39.4785ZM47.7924 39.8924C48.3726 39.6257 48.9215 39.2957 49.4292 38.9085C49.6374 38.7488 49.8369 38.5806 50.0278 38.4038C49.8438 38.2004 49.6706 38.0039 49.5096 37.8179C49.3192 37.9965 49.1193 38.1647 48.9106 38.3217C48.0083 38.9981 46.9725 39.4751 45.872 39.7211C45.6171 39.7777 45.3593 39.8203 45.0998 39.8489C45.1365 40.0921 45.1736 40.3524 45.2082 40.6235C45.4663 40.5942 45.7239 40.5519 45.9808 40.4967C46.6051 40.3625 47.2126 40.1599 47.7924 39.8924ZM43.8077 39.8773C43.7873 39.9566 43.773 40.0353 43.7528 40.1176C43.8392 40.0391 43.9243 39.9623 44.01 39.8917L43.8077 39.8773Z" fill="#F2BF08" stroke="#F2BF08" stroke-width="0.6"/>
<path d="M43.9003 31.4416C43.3214 31.7082 42.8346 32.1405 42.5014 32.6838C42.1682 33.2271 42.0035 33.857 42.0283 34.4938C42.0531 35.1307 42.2662 35.7459 42.6406 36.2616C43.015 36.7774 43.534 37.1705 44.1318 37.3913C44.7297 37.6122 45.3796 37.6507 45.9994 37.5022C46.6192 37.3536 47.181 37.0246 47.6138 36.5568C48.0466 36.0889 48.3309 35.5033 48.4308 34.8738C48.5308 34.2444 48.4418 33.5994 48.1752 33.0205C47.8177 32.2443 47.1665 31.6418 46.3648 31.3457C45.5631 31.0496 44.6766 31.0841 43.9003 31.4416ZM46.272 36.5912C45.8334 36.7932 45.3448 36.8606 44.868 36.7849C44.3911 36.7092 43.9474 36.4937 43.593 36.1659C43.2386 35.838 42.9893 35.4124 42.8768 34.9428C42.7642 34.4733 42.7935 33.981 42.9607 33.528C43.128 33.0751 43.4259 32.682 43.8166 32.3983C44.2073 32.1147 44.6734 31.9532 45.1558 31.9345C45.6383 31.9157 46.1155 32.0404 46.5271 32.2928C46.9386 32.5453 47.2661 32.9141 47.4681 33.3526C47.7373 33.9409 47.7626 34.6119 47.5385 35.2188C47.3143 35.8257 46.859 36.3191 46.272 36.5912Z" fill="#F2BF08" stroke="#F2BF08" stroke-width="0.6"/>
<path d="M51.0453 39.4715C50.8749 39.6687 50.6934 39.856 50.5017 40.0325C51.044 40.5741 51.6143 41.087 52.2102 41.5689C52.3815 41.373 52.5413 41.1674 52.6887 40.9529C52.1154 40.4881 51.5669 39.9936 51.0453 39.4715ZM57.6929 36.5615C54.9371 35.5429 50.7901 36.0929 48.7799 36.4575C48.0526 36.5893 47.6008 36.6984 47.6008 36.6984C47.6008 36.6984 47.7632 36.9225 48.0542 37.2906C48.2721 37.5654 48.5583 37.9184 48.9084 38.3238C48.924 38.3413 48.94 38.3597 48.9552 38.3786L49.0095 38.4406C49.1427 38.5943 49.2794 38.7464 49.427 38.9106C49.5933 39.0942 49.7689 39.2842 49.9524 39.4771C50.1358 39.6699 50.311 39.8495 50.4995 40.0346C51.0417 40.5762 51.612 41.0891 52.2079 41.571C52.4118 41.7351 52.6186 41.8932 52.8284 42.0453C52.9241 42.1152 53.0198 42.183 53.1159 42.2494C53.4118 42.4529 53.7116 42.6416 54.0133 42.8112C54.3871 43.0249 54.7775 43.2082 55.1806 43.3594C58.9374 44.7469 60.5009 43.5968 61.1969 41.7164C61.8929 39.8359 61.4474 37.9489 57.6925 36.5606L57.6929 36.5615ZM60.4628 41.446C60.1795 42.2129 59.773 42.7097 59.2204 42.9642C58.3796 43.3514 57.1123 43.2374 55.4537 42.6241C54.877 42.4021 54.3267 42.1169 53.8128 41.7737C53.4567 41.542 53.1049 41.2848 52.762 41.0116L52.7203 40.9072L52.6887 40.9529C52.1154 40.4881 51.5669 39.9936 51.0453 39.4715C50.852 39.2853 50.6733 39.0956 50.4979 38.9108C50.3348 38.7387 50.1772 38.5694 50.0279 38.4038C49.8439 38.2004 49.6706 38.0039 49.5097 37.8179C49.3387 37.6193 49.1804 37.432 49.0386 37.2618C49.0247 37.2457 49.0108 37.2295 48.9978 37.2129C49.3577 37.1493 49.7815 37.0799 50.2507 37.0154C50.3617 36.9997 50.4753 36.985 50.5895 36.9668C52.6632 36.7052 55.4571 36.5645 57.4191 37.2907C58.9737 37.8648 59.9901 38.5545 60.4265 39.334C60.7634 39.9325 60.7743 40.6026 60.4628 41.446Z" fill="#F2BF08" stroke="#F2BF08" stroke-width="0.6"/>
<path d="M45.208 40.6235C45.2368 40.8446 45.263 41.0744 45.2878 41.3103C45.5496 41.3124 45.8112 41.2981 46.0713 41.2677C46.0439 41.0029 46.0137 40.7459 45.9823 40.5002C45.7246 40.5523 45.4665 40.5934 45.208 40.6235ZM45.358 42.0907C45.4158 42.8265 45.435 43.5647 45.4156 44.3025C45.6744 44.3299 45.9345 44.3422 46.1947 44.3393C46.2158 43.5732 46.1968 42.8064 46.1377 42.0423C45.879 42.0732 45.6186 42.0894 45.358 42.0907ZM45.208 40.6235C45.2368 40.8446 45.263 41.0744 45.2878 41.3103C45.3142 41.5637 45.3377 41.8248 45.358 42.0907C45.4158 42.8265 45.435 43.5647 45.4156 44.3025C45.6744 44.3299 45.9345 44.3422 46.1947 44.3393C46.2158 43.5732 46.1968 42.8064 46.1377 42.0423C46.1223 41.7753 46.0956 41.5166 46.0696 41.2641C46.0436 41.0116 46.0121 40.7424 45.9806 40.4967C45.724 40.5511 45.4665 40.5934 45.208 40.6235ZM45.208 40.6235C45.2368 40.8446 45.263 41.0744 45.2878 41.3103C45.3142 41.5637 45.3377 41.8248 45.358 42.0907C45.4158 42.8265 45.435 43.5647 45.4156 44.3025C45.6744 44.3299 45.9345 44.3422 46.1947 44.3393C46.2158 43.5732 46.1968 42.8064 46.1377 42.0423C46.1223 41.7753 46.0956 41.5166 46.0696 41.2641C46.0436 41.0116 46.0121 40.7424 45.9806 40.4967C45.724 40.5511 45.4665 40.5934 45.208 40.6235ZM45.208 40.6235C45.2368 40.8446 45.263 41.0744 45.2878 41.3103C45.3142 41.5637 45.3377 41.8248 45.358 42.0907C45.4158 42.8265 45.435 43.5647 45.4156 44.3025C45.6744 44.3299 45.9345 44.3422 46.1947 44.3393C46.2158 43.5732 46.1968 42.8064 46.1377 42.0423C46.1223 41.7753 46.0956 41.5166 46.0696 41.2641C46.0436 41.0116 46.0121 40.7424 45.9806 40.4967C45.724 40.5511 45.4665 40.5934 45.208 40.6235ZM44.5415 38.4084C42.9578 39.6989 39.8429 42.4945 38.8252 45.2499C37.4377 49.0067 38.5878 50.5701 40.4654 51.2621C42.3429 51.9541 44.2358 51.5123 45.6246 47.7583C45.7717 47.3536 45.8862 46.9378 45.9668 46.5148C46.0341 46.1753 46.0855 45.8248 46.1232 45.4677C46.1364 45.3541 46.1459 45.2347 46.155 45.1166C46.179 44.8576 46.1933 44.5976 46.1979 44.3368C46.219 43.5706 46.2 42.8039 46.1409 42.0398C46.1254 41.7728 46.0988 41.5141 46.0728 41.2616C46.0468 41.0091 46.0152 40.7398 45.9838 40.4942C45.9488 40.2221 45.9117 39.9619 45.8749 39.7186C45.7943 39.1935 45.7123 38.7421 45.6451 38.3979C45.5546 37.9375 45.4898 37.6685 45.4898 37.6685C45.4898 37.6685 45.1161 37.9449 44.5415 38.4084ZM45.0978 39.8497C45.1346 40.0929 45.1717 40.3532 45.2063 40.6243C45.235 40.8455 45.2613 41.0753 45.286 41.3111C45.3124 41.5645 45.3359 41.8257 45.3563 42.0915C45.4146 42.827 45.4344 43.565 45.4156 44.3025C45.415 44.3339 45.4144 44.3654 45.4126 44.3963C45.3986 44.8328 45.364 45.2691 45.3086 45.6902C45.2354 46.3038 45.0944 46.9074 44.8882 47.49C44.2762 49.149 43.5391 50.1862 42.6983 50.5735C42.1457 50.828 41.5039 50.8139 40.737 50.5307C39.8937 50.2192 39.3915 49.7754 39.1555 49.1347C38.8468 48.2964 38.9815 47.0808 39.5576 45.5211C40.2829 43.5573 42.2023 41.5273 43.7508 40.1207C43.8373 40.0422 43.9223 39.9654 44.008 39.8947C44.362 39.5801 44.6902 39.3031 44.9725 39.071C44.9811 39.0896 44.9799 39.1128 44.9831 39.1338C45.0204 39.3478 45.0598 39.5898 45.0996 39.8489L45.0978 39.8497ZM45.2063 40.6243C45.235 40.8455 45.2613 41.0753 45.286 41.3111C45.3124 41.5645 45.3359 41.8257 45.3563 42.0915C45.4146 42.827 45.4344 43.565 45.4156 44.3025C45.6744 44.3299 45.9345 44.3422 46.1947 44.3393C46.2158 43.5732 46.1968 42.8064 46.1377 42.0423C46.1223 41.7753 46.0956 41.5166 46.0696 41.2641C46.0436 41.0116 46.0121 40.7424 45.9806 40.4967C45.724 40.5511 45.4665 40.5934 45.208 40.6235L45.2063 40.6243ZM45.2063 40.6243C45.235 40.8455 45.2613 41.0753 45.286 41.3111C45.3124 41.5645 45.3359 41.8257 45.3563 42.0915C45.4146 42.827 45.4344 43.565 45.4156 44.3025C45.6744 44.3299 45.9345 44.3422 46.1947 44.3393C46.2158 43.5732 46.1968 42.8064 46.1377 42.0423C46.1223 41.7753 46.0956 41.5166 46.0696 41.2641C46.0436 41.0116 46.0121 40.7424 45.9806 40.4967C45.724 40.5511 45.4665 40.5934 45.208 40.6235L45.2063 40.6243ZM45.2063 40.6243C45.235 40.8455 45.2613 41.0753 45.286 41.3111C45.3124 41.5645 45.3359 41.8257 45.3563 42.0915C45.4146 42.827 45.4344 43.565 45.4156 44.3025C45.6744 44.3299 45.9345 44.3422 46.1947 44.3393C46.2158 43.5732 46.1968 42.8064 46.1377 42.0423C46.1223 41.7753 46.0956 41.5166 46.0696 41.2641C46.0436 41.0116 46.0121 40.7424 45.9806 40.4967C45.724 40.5511 45.4665 40.5934 45.208 40.6235L45.2063 40.6243ZM45.3563 42.0915C45.4146 42.827 45.4344 43.565 45.4156 44.3025C45.6744 44.3299 45.9345 44.3422 46.1947 44.3393C46.2158 43.5732 46.1968 42.8064 46.1377 42.0423C45.879 42.0732 45.6186 42.0894 45.358 42.0907L45.3563 42.0915ZM45.2063 40.6243C45.235 40.8455 45.2613 41.0753 45.286 41.3111C45.5484 41.313 45.8107 41.2985 46.0713 41.2677C46.0439 41.0029 46.0137 40.7459 45.9823 40.5002C45.7246 40.5523 45.4665 40.5934 45.208 40.6235L45.2063 40.6243Z" fill="#F2BF08" stroke="#F2BF08" stroke-width="0.6"/>
</svg>
