<svg width="53" height="40" viewBox="0 0 53 40" fill="none" xmlns="http://www.w3.org/2000/svg">
<path d="M5.45576 14.1391C4.50296 14.1391 3.35928 13.5719 2.75643 13.0879C2.51147 12.8903 0.381584 11.1266 1.17691 9.88063C1.40437 9.52364 2.07245 8.93525 3.65992 7.57925C4.72725 6.66773 5.93773 5.63204 6.45947 5.05775C6.70602 4.78825 6.93825 4.50463 7.16731 4.22948C8.00558 3.21636 8.87408 2.16938 10.2086 1.86319C11.3762 1.59792 13.5458 1.10265 15.2876 3.00894C15.5659 3.31231 15.5135 3.75679 15.1731 4.0023C14.8295 4.24923 14.33 4.19985 14.0532 3.89789C13.0384 2.78741 11.9409 2.92852 10.6079 3.23047C9.8221 3.41109 9.15562 4.21396 8.45096 5.06481C8.20759 5.3583 7.96104 5.65602 7.69858 5.94387C7.11322 6.5873 5.91864 7.60888 4.76383 8.59519C3.90647 9.32751 2.73257 10.3322 2.55919 10.5791C2.58146 10.7428 3.14932 11.5005 3.82376 12.0409C4.36776 12.4783 5.2617 12.7845 5.50189 12.7253C5.58779 12.7027 5.70232 12.6646 5.83911 12.6194C6.72033 12.3259 8.3603 11.7799 10.1275 12.4092C11.4907 12.8875 14.338 11.8561 15.8268 9.84112C16.0686 9.51659 16.5601 9.42487 16.9275 9.63793C17.295 9.851 17.3968 10.2884 17.1582 10.6144C15.348 13.0667 11.7882 14.5201 9.53579 13.7172C8.34598 13.2967 7.12277 13.6989 6.39425 13.9401C6.20973 14.0022 6.05385 14.0516 5.93296 14.0827C5.78344 14.1222 5.62278 14.1391 5.45576 14.1391Z" fill="#F2BF08" stroke="#F2BF08" stroke-width="0.3"/>
<path d="M15.515 7.07408C15.1539 7.07408 14.8278 6.85537 14.7419 6.52942C14.6417 6.14985 14.9057 5.7717 15.3336 5.68139C16.4678 5.44434 17.3723 3.67032 17.342 2.88014C17.3261 2.48365 17.5208 2.57573 17.4428 2.47696C17.4206 2.50236 17.3585 2.54187 17.2774 2.61383C16.2467 3.52676 14.6099 4.53564 13.9784 4.88134C13.6046 5.08312 13.1147 4.98153 12.884 4.65135C12.655 4.31976 12.7711 3.88516 13.1449 3.67915C13.7016 3.37437 15.2318 2.43322 16.1528 1.61482C16.9465 0.912133 17.6576 1.01232 18.0091 1.13507C18.7408 1.39047 18.7879 1.86139 18.8277 2.88014C18.8897 4.4238 17.516 6.67335 15.6995 7.05291C15.6374 7.06843 15.5754 7.07408 15.515 7.07408Z" fill="#F2BF08" stroke="#F2BF08" stroke-width="0.3"/>
<path d="M42.3796 39.6871H39.7153C39.4894 39.6871 39.2746 39.601 39.1235 39.4542C38.9724 39.3061 38.8993 39.1071 38.9247 38.9082C39.0822 37.5719 39.4544 33.8426 39.2826 32.6489C39.1124 31.4678 38.7545 29.8889 38.4936 28.7375L38.3123 27.929C38.2725 27.7385 37.921 27.215 37.6108 26.7536C36.6358 25.2988 35.1628 23.0991 35.508 20.7709C35.5652 20.3857 35.9502 20.1034 36.4003 20.1627C36.8346 20.2135 37.1416 20.5677 37.0843 20.9557C36.8107 22.7985 38.0626 24.6681 38.9772 26.034C39.4433 26.7282 39.7789 27.2319 39.8727 27.6623L40.0509 28.4609C40.3165 29.6335 40.6792 31.2407 40.8573 32.4711C41.0355 33.7001 40.7444 36.8114 40.5901 38.276H41.597C41.6161 37.9007 41.6479 37.3758 41.6924 36.6534C41.772 35.3623 41.8722 33.7537 41.8499 33.1766C41.8022 32.0054 41.8929 27.9106 42.0328 26.9907C42.1315 26.3557 42.7916 25.5317 43.8621 24.2392C44.5031 23.4631 45.168 22.6616 45.5864 21.9815C46.4914 20.5155 46.9909 16.6874 46.3037 13.7581C45.6722 11.0588 43.0922 8.90697 39.8839 8.40182C37.9799 8.10268 36.5244 8.56268 35.1151 9.00856C34.0955 9.33027 33.1315 9.63364 32.0738 9.63364C29.8834 9.63364 25.6221 9.44739 23.5208 8.95071C21.4959 8.46955 18.1603 7.03877 17.0564 6.35584C16.6985 6.1343 16.6094 5.69406 16.8608 5.37517C17.1105 5.05346 17.6068 4.97444 17.9679 5.1988C18.9588 5.80977 22.0924 7.15024 23.936 7.58625C25.7875 8.02649 29.8119 8.22262 32.0785 8.22262C32.8611 8.22262 33.6612 7.97005 34.587 7.67796C36.114 7.19398 37.8446 6.64792 40.1654 7.01196C44.0084 7.61588 47.1007 10.2122 47.8642 13.4702C48.5784 16.5194 48.1759 20.7285 46.9829 22.6588C46.5137 23.4208 45.8186 24.2603 45.1457 25.0731C44.5556 25.7842 43.6664 26.8594 43.6108 27.1811C43.4851 28.0024 43.3976 32.0478 43.4406 33.1244C43.466 33.7664 43.369 35.3397 43.2831 36.7295C43.2274 37.6227 43.1574 38.7332 43.1733 38.9237C43.1877 39.1198 43.1113 39.316 42.9602 39.4585C42.8091 39.601 42.5991 39.6871 42.3796 39.6871Z" fill="#F2BF08" stroke="#F2BF08" stroke-width="0.3"/>
<path d="M38.7832 28.3819C38.5287 28.3819 38.2774 28.2733 38.1231 28.0715C37.4884 27.2404 34.4598 26.3458 31.3835 26.4121C29.4557 26.4474 27.4133 27.3138 26.33 28.1025C25.9928 28.3523 25.4902 28.3071 25.2102 28.0066C24.9318 27.706 24.9796 27.2615 25.32 27.0146C26.6497 26.0438 29.031 25.0448 31.3501 25.0011C34.3867 24.9644 38.2504 25.7235 39.4402 27.2799C39.6867 27.603 39.5913 28.0404 39.2286 28.2591C39.0918 28.3424 38.9375 28.3819 38.7832 28.3819Z" fill="#F2BF08" stroke="#F2BF08" stroke-width="0.3"/>
<path d="M24.8395 39.6871H21.9096C21.6805 39.6871 21.4642 39.5996 21.3131 39.4472C21.162 39.2962 21.092 39.093 21.1206 38.8913C21.127 38.8433 21.8237 33.9625 21.7807 32.3399C21.7346 30.5803 21.3687 28.5132 20.9647 27.7315C20.82 27.4521 20.4668 26.9907 20.093 26.5025C19.2866 25.4498 18.3735 24.2547 18.2352 23.2726C18.1811 22.886 18.4897 22.5332 18.9255 22.4839C19.3597 22.4302 19.759 22.7082 19.8131 23.0962C19.9053 23.7439 20.7738 24.8812 21.4101 25.7109C21.8396 26.271 22.2102 26.7564 22.4106 27.1459C22.9737 28.2366 23.3268 30.6198 23.3714 32.3074C23.4064 33.6324 23.0087 36.7888 22.8083 38.2746H24.0585C24.0935 36.9962 24.2081 34.3365 24.4944 32.2764C24.6168 31.3874 24.7457 30.1796 24.8777 28.9379C25.1895 26.0072 25.4138 24.0318 25.6826 23.3178C25.821 22.9495 26.2695 22.7491 26.6879 22.8719C27.1046 22.9961 27.3289 23.3954 27.1905 23.7651C26.9599 24.3803 26.6831 26.9808 26.4604 29.0719C26.3268 30.3292 26.1964 31.5525 26.0707 32.4513C25.7144 35.0166 25.6333 38.5399 25.6333 38.983C25.6349 39.371 25.2802 39.6871 24.8395 39.6871Z" fill="#F2BF08" stroke="#F2BF08" stroke-width="0.3"/>
<path d="M20.535 28.492C18.8775 28.492 16.8303 27.8104 16.0477 25.6897C15.7026 24.7542 15.4544 23.8553 15.2174 22.9876C14.8659 21.7049 14.5016 20.3786 13.8033 18.8885C13.4629 18.1604 13.2068 17.5255 12.9778 16.9625C12.4163 15.5755 12.0791 14.7387 11.0833 13.9669C10.7524 13.7101 10.719 13.2642 11.0085 12.9707C11.298 12.6772 11.8023 12.6504 12.1315 12.903C13.4391 13.9175 13.8733 14.9941 14.4762 16.4856C14.6957 17.0316 14.9422 17.644 15.2731 18.3481C16.0175 19.9383 16.3961 21.3183 16.7635 22.6546C17.0053 23.535 17.2328 24.3675 17.5588 25.2523C18.2921 27.2362 20.5986 27.1727 21.3494 26.9949C21.7709 26.9046 22.2099 27.1176 22.3228 27.4944C22.4358 27.8711 22.1845 28.2577 21.7598 28.3579C21.4019 28.4426 20.9835 28.492 20.535 28.492Z" fill="#F2BF08" stroke="#F2BF08" stroke-width="0.3"/>
<path d="M44.084 10.4692C45.4236 10.438 48.0446 9.61056 48.0446 8.26731C48.0446 7.10153 48.5782 6.09738 50.0032 6.40064C50.5116 6.50885 51.0724 10.0625 51.0724 10.0625C51.5122 12.9081 47.4301 11.5622 46.0648 12.4338" stroke="#F2BF08" stroke-width="2" stroke-linecap="round"/>
</svg>
