<svg width="66" height="43" viewBox="0 0 66 43" fill="none" xmlns="http://www.w3.org/2000/svg">
<path d="M36.9473 25.4752V28.8816" stroke="#F2BF08" stroke-width="2" stroke-miterlimit="10" stroke-linecap="round" stroke-linejoin="round"/>
<path d="M40.0659 25.3048V27.5665" stroke="#F2BF08" stroke-width="2" stroke-miterlimit="10" stroke-linecap="round" stroke-linejoin="round"/>
<path d="M43.0796 24.4018V28.8816" stroke="#F2BF08" stroke-width="2" stroke-miterlimit="10" stroke-linecap="round" stroke-linejoin="round"/>
<path d="M9.77259 17.4662C7.44024 21.9024 8.11386 22.049 5.55567 23.8869C5.55567 23.8869 4.21233 21.3915 1 23.8869C1 23.8869 2.75218 24.1839 2.9274 25.3722C3.10262 26.5605 2.05131 28.0459 3.27784 29.353C4.50436 30.6601 2.75218 31.4325 3.74508 32.9178C4.73799 34.4032 1.29203 39.394 5.55567 40.1069C5.55567 40.1069 6.7822 40.5862 9.35207 37.465C9.35207 37.465 14.375 36.8986 14.1414 29.65C14.1414 29.65 15.2511 27.2141 16.7112 28.8182C18.1714 30.4224 20.3908 28.7588 20.3908 28.7588L21.9094 29.5312L21.3253 35.1756L20.3908 38.5622L17.8209 41.1764H23.5992V37.7304L25.5851 31.3731L27.2204 37.8492L25.8187 41.1764H29.9655L29.4399 37.465L28.6222 27.7488C28.6222 27.7488 28.9025 25.6099 30.6158 25.0355C30.9234 24.9326 31.2738 24.8811 31.6788 24.8969C32.8975 24.9524 34.7743 25.3881 36.947 25.4752C38.851 25.5505 40.977 25.3603 43.0835 24.4018C43.8389 24.0572 44.5904 23.6175 45.3302 23.0551C45.3302 23.0551 45.155 27.927 46.7319 29.4718C46.7319 29.4718 44.2205 37.968 44.2789 39.0375L42.4099 41.1764H47.9001L47.316 38.9781L50.2947 29.7095C50.2947 29.7095 50.9956 26.5011 50.2947 24.0651L51.2876 23.2333L55.376 32.2643L55.6681 38.4433L53.7991 41.1764H59.2892L58.1795 38.4433L58.0627 28.1647C58.0627 28.1647 59.5813 27.4517 58.3547 25.3722C58.3547 25.3722 57.8135 23.162 57.6928 20.1398C57.611 18.0088 57.7356 15.4817 58.4131 13.0378C58.4131 13.0378 60.399 -0.770012 46.6151 1.19066C46.6151 1.19066 43.1458 1.58279 39.1275 1.93135C37.3558 2.08583 35.479 2.23238 33.7424 2.33537C31.1453 2.48985 28.8714 2.5453 27.75 2.37498C27.75 2.37498 19.7483 1.17877 13.2069 11.5802C11.6026 14.1311 10.528 16.0244 9.77259 17.4662V17.4662Z" stroke="#F2BF08" stroke-width="2" stroke-miterlimit="10" stroke-linecap="round" stroke-linejoin="round"/>
<path d="M62.1744 20C61.7809 20 61.4335 19.7353 61.3643 19.3591C61.2425 18.6966 61.2309 17.2771 61.2194 15.4799C61.2046 13.4335 61.1865 11.1146 60.9922 9.64246C60.6777 7.28024 58.1485 5.09759 56.5217 4.49543C56.0985 4.33908 55.8911 3.88862 56.0574 3.49233C56.2253 3.0945 56.7012 2.89327 57.126 3.05735C59.097 3.788 62.209 6.32514 62.6256 9.45206C62.8331 11.0155 62.8512 13.3824 62.866 15.4722C62.8775 17.0604 62.889 18.5604 62.9878 19.096C63.0652 19.517 62.7655 19.918 62.3177 19.9907C62.2683 19.9969 62.2205 20 62.1744 20Z" fill="#F2BF08" stroke="#F2BF08" stroke-width="0.5"/>
<path d="M62.7255 27C62.7083 27 62.6926 27 62.6753 26.9983C62.4243 26.9801 62.1968 26.8376 62.0619 26.6155C62.0384 26.5774 61.4704 25.6227 60.7832 24.0168C60.3816 23.077 59.5344 20.7253 60.3267 19.2038C60.5605 18.7547 61.0421 18.1878 62.0007 18.0437C62.9452 17.9011 63.6873 18.1083 64.2144 18.6552C65.1306 19.6065 65.0647 21.2755 64.9031 22.6229C64.6145 25.041 63.3797 26.637 63.328 26.7033C63.1789 26.8906 62.9577 27 62.7255 27ZM62.5545 19.6546C62.4557 19.6546 62.3443 19.6645 62.2235 19.6828C61.8846 19.7325 61.7701 19.8717 61.7026 20.001C61.4077 20.5662 61.6179 21.9368 62.2141 23.3339C62.4086 23.788 62.5922 24.1875 62.7553 24.5239C63.0016 23.977 63.2464 23.2544 63.3468 22.4141C63.5508 20.6954 63.3327 20.064 63.1146 19.8353C63.0001 19.7143 62.8118 19.6546 62.5545 19.6546Z" fill="#F2BF08" stroke="#F2BF08" stroke-width="0.5"/>
<path d="M9.77246 17.4661C9.77246 17.4661 16.9058 22.9283 20.2894 14.4954C23.6731 6.06259 26.4649 10.4949 30.1445 7.59151C33.8241 4.68418 33.7423 2.34326 33.7423 2.34326" stroke="#F2BF08" stroke-width="2" stroke-miterlimit="10" stroke-linecap="round" stroke-linejoin="round"/>
<path d="M39.1238 1.9353C39.1238 1.9353 35.4753 12.5229 46.4518 11.5842C57.4282 10.6494 53.2541 18.9277 57.6891 20.1398" stroke="#F2BF08" stroke-width="2" stroke-miterlimit="10" stroke-linecap="round" stroke-linejoin="round"/>
<path d="M45.3263 23.055C45.3263 23.055 44.4774 14.7965 30.6157 25.0355" stroke="#F2BF08" stroke-width="2" stroke-miterlimit="10" stroke-linecap="round" stroke-linejoin="round"/>
</svg>
