<svg width="42" height="53" viewBox="0 0 42 53" fill="none" xmlns="http://www.w3.org/2000/svg">
<path d="M10.7951 13.6646C10.7917 13.6681 10.7881 13.6713 10.7845 13.675C10.6711 13.792 10.5682 13.9165 10.4758 14.0467C10.2618 13.915 10.0361 13.7946 9.80301 13.6899C8.0947 12.9202 6.08359 13.8699 5.99892 13.9108L5.48973 14.1559L5.64324 14.6998C5.66881 14.7904 6.28876 16.9263 7.99687 17.6959C8.70254 18.0142 9.44309 18.1858 10.1023 18.1858C10.1275 18.1858 10.1522 18.1846 10.1772 18.184L10.3975 20.0426C10.4128 20.4203 10.4935 20.8122 10.6302 21.1935V29.6524C10.6302 30.4576 10.7247 31.1607 10.9184 31.7998C11.1613 32.611 11.5655 33.318 12.1461 33.9576L14.3943 41.6405L13.8536 51.3896H13.4492C13.0808 51.3896 12.7595 51.6736 12.7486 52.0419C12.7371 52.4229 13.0425 52.7353 13.4211 52.7353H17.2952L18.3981 42.8581V41.775L22.7083 51.3896H22.303C21.9345 51.3896 21.6133 51.6736 21.6022 52.0419C21.5908 52.4229 21.8962 52.7353 22.2747 52.7353H27.2862L24.0427 45.3663L24.0109 45.3011C23.1249 43.6805 22.963 41.7341 22.9335 41.0576C23.4447 40.4382 24.0395 39.508 24.3708 38.2755C25.3872 38.5498 26.9147 38.8653 29.2961 38.8653C30.0979 38.8653 30.8952 38.792 31.6791 38.65C32.0078 39.9265 32.6111 40.9042 33.4752 41.5582C34.1849 42.0959 34.6016 42.8857 34.6274 43.7361L32.5697 51.3896H31.929C31.5604 51.3896 31.2392 51.6736 31.2282 52.0419C31.2168 52.4229 31.5222 52.7353 31.9007 52.7353H35.5213L37.2111 46.9403V51.3893H36.8452C36.4768 51.3893 36.1556 51.6732 36.1444 52.0415C36.133 52.4226 36.4385 52.735 36.817 52.735H40.6432V46.0791L41.2704 40.8042C41.4194 39.7709 40.9937 39.3138 40.7262 39.133C40.0636 38.6852 39.7316 37.9125 39.7125 36.7733L40.5006 34.367L40.7134 33.2397C40.8558 32.4851 40.8675 31.7241 40.7576 30.985V27.5114C40.7576 25.5843 39.8298 23.7324 38.2119 22.4304C37.9048 22.1833 37.4737 22.1351 37.1141 22.3074C36.7739 22.4704 36.5626 22.7984 36.5626 23.1635V25.6953C35.7779 25.3838 34.9323 25.218 34.0637 25.218H31.9291C31.5606 25.218 31.2393 25.5019 31.2283 25.8701C31.2169 26.2512 31.5224 26.5637 31.9008 26.5637H33.984C35.5403 26.5637 37.0441 27.1951 38.0866 28.3507C39.2293 29.6175 39.7055 31.3239 39.391 32.9901L39.1946 34.0313L38.366 36.561V36.6685C38.366 38.3043 38.8944 39.5 39.9372 40.2234C39.9524 40.2724 39.9701 40.3983 39.9378 40.6181L39.3024 45.9597L39.2976 45.9993V51.3892H38.5569V42.9438C38.5569 42.7365 38.5418 42.5304 38.5123 42.3302L38.5043 42.2763C38.3316 41.1757 37.7425 40.1842 36.845 39.4843C36.2205 38.9982 35.7259 38.0817 35.415 36.834L35.4061 36.8003C35.3031 36.3812 35.2217 35.9274 35.1638 35.4497C35.1331 35.2003 35.11 34.9449 35.0951 34.6879C35.0768 34.3947 34.915 34.1305 34.662 33.9811C34.4094 33.8322 34.0999 33.818 33.8336 33.944C32.6676 34.4978 31.433 34.7786 30.1638 34.7786C28.0771 34.7786 26.3956 34.4728 25.0207 33.8428C24.7597 33.7244 24.4983 33.5922 24.2423 33.4491C23.9216 33.2709 23.5314 33.3069 23.2481 33.5411C22.9659 33.7746 22.8577 34.1499 22.972 34.4969C23.1677 35.0921 23.3708 36.0346 23.227 37.1485C23.2198 37.2077 23.2106 37.2671 23.2017 37.3226L23.1989 37.3413C22.9589 38.8031 22.2188 39.8321 21.7991 40.3152C21.6594 40.4761 21.5824 40.6828 21.5824 40.8973L21.5826 40.9109C21.5959 41.5788 21.7249 43.9091 22.8182 45.9242L25.2237 51.3896H24.1833L18.2538 38.1632C18.1324 37.676 17.9327 37.205 17.6646 36.769L15.929 32.6548C15.7567 32.2466 15.4916 31.8856 15.1617 31.5899C14.5923 31.0794 14.266 30.3492 14.266 29.584V28.3395C14.266 27.9711 13.982 27.6499 13.6138 27.6387C13.2328 27.6274 12.9203 27.9329 12.9203 28.3114V29.4725C12.9203 30.6592 13.3888 31.8177 14.2774 32.6044C14.4546 32.7613 14.597 32.9596 14.6892 33.1778L15.321 34.6757C14.3901 34.1521 13.7224 33.6654 13.2341 33.1547C12.74 32.6393 12.4043 32.0698 12.2072 31.4119C12.0518 30.8991 11.9762 30.3237 11.9762 29.6526V23.0887C12.4714 23.4662 13.0297 23.6729 13.5931 23.6729H14.431C15.3804 23.6729 16.2155 23.1171 16.7941 22.3349L17.2527 23.5474C17.9394 25.3628 19.678 26.5639 21.6188 26.5639H28.0909C28.4593 26.5639 28.7805 26.28 28.7917 25.9118C28.8031 25.5307 28.4976 25.2182 28.1192 25.2182H21.6188C20.2459 25.2182 18.9971 24.3554 18.5114 23.0712L17.8223 21.2494C17.6755 20.8612 17.6113 20.447 17.6267 20.0322L17.6269 20.0261L17.8369 18.1843C17.8608 18.1848 17.8844 18.186 17.9085 18.186C18.5676 18.186 19.3082 18.0144 20.0137 17.6962C21.7217 16.9266 22.3428 14.7909 22.3686 14.7004L22.5224 14.1561L22.0127 13.911C21.928 13.8701 19.916 12.9208 18.2077 13.6902C17.9715 13.7967 17.744 13.9183 17.5294 14.0508C17.4396 13.9236 17.3396 13.8023 17.2296 13.6877C22.6923 12.3222 26.8056 7.51258 27.1171 1.70929C27.1378 1.32411 26.8304 1.00021 26.4448 1.00021C26.0901 1.00021 25.7926 1.27535 25.7738 1.62958C25.5697 5.47188 23.5077 8.82899 20.4725 10.8184C21.4378 9.50236 22.0097 7.88048 22.0097 6.12692V4.61663C22.0097 4.24511 21.7084 3.94398 21.337 3.94398H21.3365C20.9651 3.94398 20.664 4.24511 20.664 4.61663V6.12661C20.664 8.55902 19.3413 10.6869 17.3783 11.833C17.5447 11.4204 17.6373 10.9703 17.6373 10.4988V8.26638C17.6373 7.89497 17.3362 7.59374 16.9646 7.59374H16.9641C16.5927 7.59374 16.2915 7.89487 16.2915 8.26638V10.4441C16.2915 11.653 15.3533 12.6839 14.1453 12.7296C12.8754 12.7776 11.827 11.7584 11.827 10.4989V8.26638C11.827 7.89497 11.5258 7.59374 11.1543 7.59374H11.1538C10.7824 7.59374 10.4811 7.89487 10.4811 8.26638V10.4989C10.4811 10.9704 10.5737 11.4205 10.7401 11.8331C8.77717 10.687 7.45456 8.55902 7.45456 6.12671V4.61663C7.45456 4.24511 7.15343 3.94398 6.78191 3.94398H6.78139C6.40998 3.94398 6.10875 4.24511 6.10875 4.61663V6.12661C6.10875 7.88017 6.68057 9.50205 7.64596 10.8181C4.61057 8.82878 2.54854 5.47167 2.3444 1.62937C2.32556 1.27525 2.02806 1 1.67342 1C1.28782 1 0.980378 1.32369 1.00098 1.70888C1.3107 7.47925 5.37886 12.268 10.7951 13.6646ZM8.54996 16.4692C7.85589 16.1564 7.4087 15.43 7.16544 14.9115C7.71562 14.75 8.55627 14.6041 9.25076 14.9171C9.50075 15.0294 9.7379 15.163 9.95249 15.3107C9.91812 15.5136 9.90384 15.7216 9.91036 15.9324L10.0178 16.839C9.56762 16.8254 9.05449 16.6967 8.54996 16.4692ZM39.4118 27.8432C39.366 27.7842 39.3213 27.7243 39.2734 27.6665C38.8724 27.1827 38.4123 26.7633 37.9082 26.4147V23.97C38.8713 24.9606 39.4118 26.2187 39.4118 27.5115V27.8432ZM34.3206 37.89C34.7155 39.0827 35.2844 39.9752 36.0178 40.5461C36.6061 41.0049 37.0034 41.64 37.1487 42.3466L34.5119 51.3898H33.9631L35.9743 43.9091V43.8204C35.9743 42.5131 35.3597 41.2978 34.2875 40.4856C33.6781 40.0244 33.2427 39.3041 32.9903 38.3437C33.4886 38.2004 33.9302 38.0441 34.3206 37.89ZM30.1636 36.1244C31.4162 36.1244 32.6386 35.8889 33.806 35.4236C33.8127 35.4871 33.8202 35.5503 33.8279 35.613C33.868 35.9444 33.9199 36.2655 33.9806 36.576C33.5613 36.7465 33.0807 36.9228 32.5247 37.0778C31.4775 37.371 30.3913 37.5198 29.2962 37.5198C26.986 37.5198 25.5424 37.2038 24.5992 36.9427C24.6459 36.3263 24.6145 35.7003 24.505 35.0869C26.0485 35.7849 27.9003 36.1244 30.1636 36.1244ZM14.9056 35.984L15.2759 36.2193C15.6064 36.4291 15.9021 36.6832 16.1544 36.9745C16.2309 37.0629 16.3016 37.1552 16.3692 37.2494L16.9749 38.6004C17.0256 38.8321 17.0524 39.0543 17.0524 39.2607V42.7833L16.0914 51.3896H15.2015L15.7508 41.4843L13.9839 35.4464C14.2663 35.624 14.572 35.8025 14.9056 35.984ZM18.0505 15.3166C18.2657 15.1675 18.5056 15.0319 18.7604 14.9168C19.4541 14.6041 20.2945 14.7499 20.8446 14.9111C20.5999 15.4304 20.1511 16.1581 19.4604 16.4693C18.9551 16.6971 18.4404 16.8259 17.99 16.8391L18.0884 15.9752L18.0925 15.9163C18.0978 15.713 18.0832 15.5125 18.0505 15.3166ZM14.4308 22.3271H13.5929C13.1621 22.3271 12.7057 22.0444 12.3341 21.5505C12.5055 20.7851 13.1891 20.2112 14.0054 20.2112C14.8263 20.2112 15.5135 20.7916 15.68 21.5634C15.3414 22.0095 14.8946 22.3271 14.4308 22.3271ZM11.7508 14.6117C12.085 14.2669 12.5337 14.0769 13.0139 14.0769H14.9886C15.4672 14.0769 15.9146 14.2656 16.2485 14.6084C16.5761 14.9446 16.7528 15.3861 16.7478 15.8545L16.2877 19.8904C15.727 19.262 14.9118 18.8653 14.0053 18.8653C13.1033 18.8653 12.2914 19.258 11.731 19.881L11.2547 15.8636C11.2473 15.3935 11.4228 14.95 11.7508 14.6117Z" fill="#F2BF08" stroke="#F2BF08" stroke-width="0.2"/>
</svg>
