<svg width="48" height="49" viewBox="0 0 48 49" fill="none" xmlns="http://www.w3.org/2000/svg">
<path d="M12.6159 3.11567C12.0653 2.94106 11.4583 2.83006 10.7951 2.79522C7.32577 2.60268 6.57906 5.95775 6.57906 5.95775L1.34879 6.04542C0.428611 7.565 2.38011 9.95564 2.38011 9.95564C2.38011 9.95564 1.89809 12.9637 3.73379 13.0165C5.56949 13.0693 8.5085 13.91 8.5085 13.91C9.60051 15.3081 9.80234 16.5372 9.62709 17.7686C9.17566 20.9432 6.23442 24.1429 9.59149 30.3038C10.3152 31.6329 11.1756 32.8385 12.1119 33.93C12.7766 34.7043 13.481 35.4196 14.2011 36.0802C14.5309 38.7445 14.8828 41.4962 14.8828 41.4962C14.8828 41.4962 13.8733 42.9713 13.2294 44.3777C12.9464 44.9882 12.7344 45.5893 12.703 46.0452C12.703 46.0452 14.8109 49.436 17.8653 45.9587L18.7283 39.4847C21.9424 41.4824 24.587 42.3823 24.587 42.3823C21.747 43.0566 22.9598 45.8775 22.9598 45.8775L34.2362 45.7261C34.9372 43.4581 34.1645 42.2218 34.1645 42.2218C34.1645 42.2218 36.5215 41.3508 36.8137 38.1997C36.9194 37.0531 36.7538 35.6061 36.0984 33.7912C33.6487 26.98 25.5993 25.4436 23.0329 22.892C20.4666 20.3403 17.9649 17.6288 17.9649 17.6288C17.9649 17.6288 17.6973 16.1709 17.386 14.2417C17.1213 12.5957 16.8224 10.6077 16.6308 8.88114C16.5101 7.80101 16.2632 6.8567 15.8934 6.05233" stroke="#F2BF08" stroke-width="1.8" stroke-miterlimit="10" stroke-linecap="round" stroke-linejoin="round"/>
<path d="M15.9092 6.07194C16.1489 5.99689 16.3554 5.96 16.5188 5.97815C17.7451 6.12474 14.3257 1.75289 14.3257 1.75289C14.3257 1.75289 13.4188 1.60095 12.6347 3.13505C12.1839 4.02008 11.7717 5.4602 11.5957 7.81562C11.5294 8.72763 14.3564 6.57013 15.9092 6.07194Z" stroke="#F2BF08" stroke-width="1.8" stroke-miterlimit="10" stroke-linecap="round" stroke-linejoin="round"/>
<path d="M18.7141 39.4724L19.1255 30.64" stroke="#F2BF08" stroke-width="1.8" stroke-miterlimit="10" stroke-linecap="round" stroke-linejoin="round"/>
<path d="M14.175 36.0774C13.9969 34.6191 13.8261 33.1858 13.7226 32.2398C13.4322 29.5727 13.0028 28.365 13.0028 28.365" stroke="#F2BF08" stroke-width="1.8" stroke-miterlimit="10" stroke-linecap="round" stroke-linejoin="round"/>
<path d="M12.0744 33.9293L11.611 41.1288C11.611 41.1288 9.23175 40.9098 8.8889 44.0521L13.187 44.3725" stroke="#F2BF08" stroke-width="1.8" stroke-miterlimit="10" stroke-linecap="round" stroke-linejoin="round"/>
<path d="M24.8859 42.355L29.5217 41.5672C29.5217 41.5672 24.8299 41.2782 25.1645 34.3969" stroke="#F2BF08" stroke-width="1.8" stroke-miterlimit="10" stroke-linecap="round" stroke-linejoin="round"/>
<path d="M36.837 38.168C36.837 38.168 46.6307 34.7195 46.4497 25.8764C46.4497 25.8764 41.786 34.9218 36.1215 33.759" stroke="#F2BF08" stroke-width="1.8" stroke-miterlimit="10" stroke-linecap="round" stroke-linejoin="round"/>
<path d="M17.3899 14.2532C17.3899 14.2532 15.6381 17.9029 9.6259 17.7861" stroke="#F2BF08" stroke-width="1.8" stroke-miterlimit="10" stroke-linecap="round" stroke-linejoin="round"/>
</svg>
