<svg width="60" height="52" viewBox="0 0 60 52" fill="none" xmlns="http://www.w3.org/2000/svg">
<path d="M5.00539 14.6976C3.24454 14.6976 1.3936 12.1967 1.31141 12.0833C1.02847 11.6978 0.936792 11.2517 1.0427 10.7921C1.21657 10.0452 1.91838 9.32847 3.13232 8.65714C4.61497 7.84066 7.44434 5.28538 8.83215 3.83084C10.5108 2.07087 13.4777 1.5447 16.0447 2.55169C16.4493 2.71045 16.6422 3.15195 16.4762 3.53751C16.3118 3.9261 15.8455 4.10905 15.4472 3.9518C13.2517 3.08996 11.0466 3.75222 10.0003 4.84993C8.75628 6.15025 5.6993 8.98827 3.92264 9.96955C2.75454 10.6106 2.60438 11.0416 2.58541 11.1202C3.28722 12.1468 4.53119 13.2733 5.02594 13.1825C5.34207 13.1327 5.7641 12.9028 6.20827 12.6624C7.0065 12.2285 8.00863 11.6857 9.19728 11.7341C10.6847 11.7945 13.2675 11.4392 14.1637 10.2508C14.4182 9.9121 14.9129 9.83347 15.2654 10.0799C15.621 10.3234 15.7017 10.7966 15.4456 11.1338C13.7796 13.3458 9.60509 13.2551 9.13563 13.2476C8.33582 13.2188 7.67669 13.6059 6.98753 13.9779C6.41849 14.2878 5.87949 14.5796 5.28517 14.6749C5.19191 14.69 5.10023 14.6976 5.00539 14.6976Z" fill="#F2BF08" stroke="#F2BF08" stroke-width="0.2"/>
<path d="M18.4827 6.36227C18.2528 6.39794 18.0475 6.85266 17.8758 6.7033C17.6061 6.46596 17.5851 5.57296 17.8758 5.34335C19.0464 4.41889 19.3048 2.97847 19.3303 2.07143C19.3339 1.9058 19.6968 1.79446 19.662 1.6712C18.724 2.03035 17.9469 2.94717 17.5001 3.47288C17.3286 3.67671 17.1912 3.83155 17.0981 3.91517C16.8234 4.15928 16.0226 4.24909 15.7368 4.02639C15.4491 3.80156 15.7853 3.34806 16.06 3.10395C16.1246 3.04658 16.2137 2.93566 16.3308 2.79612C16.9719 2.0412 18.1638 0.636397 19.8967 0.367559C20.1281 0.33167 20.3623 0.391218 20.5272 0.528295L20.775 0.910755C20.7355 2.28364 20.1657 5.16775 18.855 6.20378C18.7475 6.28843 18.6175 6.34135 18.4827 6.36227Z" fill="#F2BF08" stroke="#F2BF08" stroke-width="0.3"/>
<path d="M46.7168 51.6834H43.0378C42.7848 51.6834 42.5445 51.5957 42.3716 51.4429C42.2005 51.2887 42.1113 51.0845 42.1295 50.8742C42.1368 50.8062 42.7029 44.1147 42.6337 42.1968C42.5645 40.3062 42.499 38.5199 41.283 37.4082L40.8916 37.0618C39.2806 35.6521 36.5828 33.2956 36.8614 27.2757C36.8814 26.8598 37.2163 26.5225 37.8079 26.5497C38.3085 26.5664 38.7017 26.9173 38.6817 27.3362C38.4305 32.7178 40.706 34.7053 42.2114 36.0212L42.6283 36.3918C44.2957 37.9149 44.3758 40.0687 44.4523 42.1515C44.5087 43.7547 44.161 48.3014 44.0099 50.1724H45.8084C45.7629 48.7461 45.5226 45.5652 45.164 43.2314C44.7417 40.468 45.3643 37.0588 46.755 34.5465L47.3121 33.5648C48.4498 31.5759 49.7404 29.3207 50.2155 26.2533C50.7234 22.9892 49.3108 20.2969 46.1288 18.4698C43.7332 17.0904 39.5901 17.6818 36.2625 18.1567C35.4342 18.2747 34.6441 18.3866 33.9215 18.4668C29.8639 18.9114 26.2068 18.2232 24.6831 17.3097C23.2141 16.4294 20.8021 14.156 20.0903 12.1777L19.6917 11.0523C19.1765 9.5761 18.472 7.55385 17.966 6.92464C17.6875 6.57827 17.8003 6.10787 18.219 5.87646C18.6341 5.64504 19.2002 5.7373 19.4805 6.0867C20.094 6.85204 20.6801 8.45381 21.4411 10.6334L21.8324 11.7451C22.3931 13.2954 24.5247 15.3509 25.7499 16.0845C26.7747 16.7001 29.9185 17.3823 33.683 16.9663C34.3857 16.8892 35.152 16.7803 35.9548 16.6668C39.6101 16.145 44.1574 15.4977 47.1628 17.2265C50.9419 19.3985 52.6202 22.5854 52.0213 26.4484C51.5098 29.7548 50.0918 32.2278 48.954 34.2152L48.4079 35.1817C47.1519 37.4551 46.5857 40.5406 46.9698 43.0423C47.4031 45.8572 47.7053 50.2435 47.6215 51.0013C47.5796 51.3855 47.1883 51.6834 46.7168 51.6834Z" fill="#F2BF08" stroke="#F2BF08" stroke-width="0.2"/>
<path d="M23.1121 51.6835H19.2984C19.0363 51.6835 18.7887 51.5897 18.614 51.4263C18.441 51.263 18.3609 51.0452 18.3955 50.8289C18.4064 50.7699 19.3275 44.8589 19.3275 42.8336C19.3275 41.3983 18.5302 39.01 17.0885 36.1089C16.1565 34.2395 15.2791 30.266 15.5066 27.5526C15.543 27.1351 15.9835 26.816 16.4787 26.8507C16.9793 26.881 17.3561 27.2425 17.3233 27.6584C17.1231 30.0497 17.9368 33.8553 18.7705 35.5296C19.8554 37.7077 21.1497 40.7448 21.1497 42.8336C21.1497 44.4959 20.5927 48.424 20.3342 50.1709H22.2055C22.2092 49.575 22.2201 48.7809 22.2292 47.8885C22.2674 44.7727 22.3148 40.5089 22.2165 39.2852C22.1054 37.9058 22.7498 34.7431 23.2686 32.2021C23.4634 31.2401 23.6382 30.3825 23.7401 29.779C23.8093 29.3646 24.3008 29.0863 24.765 29.1331C25.2638 29.1906 25.6114 29.5718 25.5423 29.9847C25.4385 30.5988 25.2619 31.473 25.0617 32.4531C24.5866 34.7855 23.9367 37.9799 24.0332 39.1824C24.1369 40.4635 24.086 44.7606 24.0496 47.8991C24.035 49.2513 24.0204 50.3766 24.0241 50.9196C24.0259 51.1223 23.9294 51.3159 23.7583 51.4566C23.5872 51.6033 23.3542 51.6835 23.1121 51.6835Z" fill="#F2BF08" stroke="#F2BF08" stroke-width="0.2"/>
<path d="M30.9724 34.5268C27.6684 34.5268 24.7449 34.126 24.1915 34.0458C23.6964 33.9747 23.3651 33.5815 23.4525 33.1716C23.538 32.7587 24.0168 32.4728 24.5046 32.5575C27.7358 33.0279 34.726 33.4968 38.0718 31.9177C38.5069 31.7075 39.0639 31.836 39.3133 32.2021C39.5627 32.5651 39.4098 33.0279 38.9711 33.2336C36.8358 34.2409 33.7685 34.5268 30.9724 34.5268Z" fill="#F2BF08" stroke="#F2BF08" stroke-width="0.2"/>
<path d="M16.3805 32.379C16.1839 32.379 15.9855 32.3261 15.818 32.2187C14.1852 31.1569 11.1451 29.177 11.3891 24.2779C11.4455 23.1571 11.5802 22.1165 11.7131 21.1092C12.0845 18.2596 12.4048 15.7987 10.6919 12.9551C10.4698 12.5815 10.65 12.1293 11.0996 11.9417C11.5511 11.7542 12.0954 11.9054 12.3211 12.279C14.2707 15.5204 13.9085 18.314 13.5225 21.271C13.3951 22.2527 13.2622 23.2691 13.2094 24.3384C13.0019 28.4646 15.4667 30.0679 16.9412 31.0268C17.3362 31.284 17.4054 31.7589 17.0959 32.0886C16.9175 32.2807 16.6499 32.379 16.3805 32.379Z" fill="#F2BF08" stroke="#F2BF08" stroke-width="0.2"/>
<path d="M35.5016 18.2506C35.4888 18.2506 35.4761 18.2506 35.4634 18.2506C27.6904 17.9738 25.5296 13.3409 24.3682 10.8513L24.2408 10.579C22.9556 7.82017 22.2475 6.30008 19.8574 5.35021C19.4041 5.17022 19.213 4.71797 19.4296 4.34135C19.6462 3.96473 20.1923 3.80591 20.6438 3.9859C23.6856 5.19442 24.6304 7.22423 25.9392 10.033L26.0648 10.3053C27.4665 13.3046 29.4671 16.5233 35.5416 16.738C36.0422 16.7562 36.4336 17.1086 36.4136 17.5261C36.3899 17.9329 35.9858 18.2506 35.5016 18.2506Z" fill="#F2BF08" stroke="#F2BF08" stroke-width="0.2"/>
<path d="M57.7681 40.0338C55.7966 40.0338 53.5649 39.1399 51.9757 37.6955C50.452 36.31 49.7603 34.6145 50.0752 33.0475C50.5758 30.5518 51.1456 27.7218 50.3665 26.775C50.0825 26.4301 50.1863 25.9598 50.6031 25.7253C51.0163 25.4894 51.5825 25.5771 51.8665 25.9219C52.9805 27.2741 52.611 29.6095 51.8701 33.297C51.5661 34.8141 52.6474 36.065 53.3191 36.676C54.0418 37.334 54.9392 37.8528 55.8512 38.1704C55.2268 37.098 54.9065 35.5129 55.813 33.2985C57.1801 29.9589 57.992 24.2264 55.9677 22.1467C53.8288 19.9505 51.1911 19.9036 48.8883 20.1577C48.3914 20.2182 47.9345 19.9202 47.8671 19.5043C47.8034 19.0914 48.1529 18.7117 48.6535 18.6557C51.0837 18.3941 54.6316 18.3714 57.3822 21.1953C60.2055 24.0933 58.7056 30.9299 57.5369 33.7856C56.2808 36.8545 57.8755 38.2112 58.6182 38.6514C58.9313 38.8359 59.0696 39.1641 58.9659 39.4712C58.8621 39.7767 58.5399 39.9975 58.1576 40.0217C58.0302 40.0293 57.8991 40.0338 57.7681 40.0338Z" fill="#F2BF08" stroke="#F2BF08" stroke-width="0.2"/>
</svg>
