<svg width="55" height="37" viewBox="0 0 55 37" fill="none" xmlns="http://www.w3.org/2000/svg">
<path d="M9.05318 19.2362C10.6037 20.7704 15.1606 22.1873 15.1606 22.1873C17.5717 30.1622 13.5532 34.6355 13.5532 34.6355C15.5056 35.6799 18.0342 34.5748 18.0342 34.5748L18.0873 34.3076L18.6105 31.571L20.3354 31.3241L19.7023 29.2392L20.7373 24.2154C20.7373 24.2154 21.6396 24.3328 23.1105 24.4988C25.3093 24.7457 28.782 25.0979 32.3986 25.3206C35.0372 25.4825 36.9517 24.7498 38.2672 23.8754C39.9618 22.754 40.6708 21.3938 40.6708 21.3938C40.6708 21.3938 42.4526 26.0574 42.6232 27.4054C42.7559 28.4498 41.9939 32.1054 41.6451 33.7044C41.5427 34.1699 41.4745 34.4614 41.4745 34.4614C43.8287 34.8298 45.5537 33.3562 45.5537 33.3562C44.6931 31.3322 47.1042 25.5068 47.1042 25.5068C46.1868 24.2195 47.563 21.7663 47.563 21.7663C54.3983 16.3053 49.3448 7.65833 44.5187 5.39135C39.6927 3.12031 27.9176 5.9419 25.1615 6.12812C25.1615 6.12812 17.0865 6.66653 13.6404 5.56137" stroke="#F2BF08" stroke-width="2" stroke-miterlimit="10" stroke-linecap="round" stroke-linejoin="round"/>
<path d="M12.9769 15.5604C12.9769 15.5604 12.5751 18.8111 9.98956 19.1188C9.65973 19.1593 9.34507 19.1957 9.04937 19.2362C7.04388 19.4953 5.84969 19.6856 5.04598 19.3657C4.79577 19.2645 4.54935 19.1633 4.31051 19.054C3.66223 18.7707 3.03292 18.4832 2.40739 18.2606C1.54681 17.9529 0.398111 16.115 1.37242 14.7022C1.37242 14.7022 1.43308 14.6698 1.54302 14.6132C2.26332 14.2245 5.02702 12.6579 4.87917 11.6985C4.70857 10.5933 5.45542 9.67438 5.73975 9.42744C5.78903 9.38696 5.79661 9.25741 5.77766 9.05905C5.6753 8.09963 4.86022 5.58975 4.47732 4.51698C4.0186 3.22966 5.68288 1.87756 5.68288 1.87756L8.55652 6.54108L9.64836 6.35891L12.522 3.16893C12.522 3.16893 13.1286 4.20527 13.6366 5.54927C14.5123 7.85674 15.0999 11.0629 11.832 11.4515" stroke="#F2BF08" stroke-width="2" stroke-miterlimit="10" stroke-linecap="round" stroke-linejoin="round"/>
<path d="M48.3788 8.20658C49.7093 9.83825 51.8676 9.83825 53.2006 8.20658C54.2665 6.89947 54.2665 4.78391 53.2006 3.4768C52.3488 2.43229 50.9677 2.43229 50.116 3.4768C49.4351 4.31181 49.4351 5.66613 50.116 6.50409C50.6622 7.17388 51.5452 7.17388 52.0914 6.50409" stroke="#F2BF08" stroke-width="2" stroke-miterlimit="10" stroke-linecap="round" stroke-linejoin="round"/>
<path d="M8.55273 6.5451C8.38214 6.42365 6.94531 6.60582 5.79662 9.05902" stroke="#F2BF08" stroke-width="2" stroke-miterlimit="10" stroke-linecap="round" stroke-linejoin="round"/>
<path d="M38.2596 23.8673L39.8594 28.9316L38.8813 33.2875C38.8813 33.2875 40.2575 34.2509 41.6375 33.6963" stroke="#F2BF08" stroke-width="2" stroke-miterlimit="10" stroke-linecap="round" stroke-linejoin="round"/>
<path d="M23.1029 24.4907C22.9892 24.8024 22.5684 29.049 22.5684 29.049L23.8308 31.2593L22.6821 32.1782L22.394 33.8339C22.394 33.8339 21.2984 35.4046 18.0797 34.2995" stroke="#F2BF08" stroke-width="2" stroke-miterlimit="10" stroke-linecap="round" stroke-linejoin="round"/>
</svg>
